<svg width="127" height="126" viewBox="0 0 127 126" fill="none" xmlns="http://www.w3.org/2000/svg">
<path d="M69.1216 8.08054C69.1374 7.90351 69.1242 7.743 69.0819 7.599C69.0441 7.45116 68.9608 7.31411 68.8319 7.18785C68.7076 7.05775 68.526 6.92677 68.2872 6.79491C68.0529 6.65921 67.7473 6.51288 67.3705 6.35591C66.9527 6.18252 66.5659 5.99492 66.2101 5.7931C65.8542 5.59128 65.5452 5.36602 65.2828 5.11734C65.0246 4.86903 64.8306 4.59248 64.7007 4.28768C64.5711 3.97867 64.5237 3.63028 64.5585 3.24251C64.5925 2.86317 64.7035 2.52472 64.8916 2.22716C65.0839 1.92999 65.3397 1.68311 65.659 1.48652C65.9786 1.28572 66.3462 1.14233 66.7618 1.05634C67.1816 0.970735 67.6381 0.950018 68.1312 0.994191C68.814 1.05535 69.393 1.23255 69.8681 1.52578C70.3474 1.81939 70.7049 2.19131 70.9408 2.64156C71.1766 3.09181 71.2707 3.58247 71.2232 4.11354L69.4908 3.95837C69.5165 3.67176 69.478 3.41339 69.3754 3.18326C69.2771 2.95352 69.1113 2.76447 68.8782 2.61613C68.6492 2.46816 68.3514 2.37775 67.9847 2.34491C67.6307 2.31319 67.3309 2.33945 67.0855 2.42368C66.8442 2.50829 66.6564 2.63592 66.5222 2.80659C66.3921 2.97764 66.3171 3.17486 66.2971 3.39825C66.282 3.56684 66.3085 3.72217 66.3765 3.86422C66.4448 4.00205 66.5538 4.13715 66.7034 4.26952C66.8534 4.39766 67.0419 4.52289 67.2688 4.64519C67.5004 4.76365 67.7699 4.88551 68.0773 5.01077C68.5695 5.20782 68.997 5.41605 69.3597 5.63549C69.7267 5.8553 70.026 6.09455 70.2578 6.35324C70.4937 6.6123 70.6617 6.89502 70.7617 7.20139C70.866 7.50814 70.9013 7.84907 70.8677 8.2242C70.8322 8.6204 70.7225 8.96746 70.5386 9.2654C70.3547 9.56333 70.1076 9.80886 69.7971 10.002C69.4866 10.1951 69.1219 10.3303 68.7028 10.4074C68.288 10.485 67.8298 10.5013 67.3283 10.4564C66.8815 10.4164 66.4442 10.3177 66.0164 10.1604C65.5932 9.99931 65.2154 9.78276 64.8828 9.5108C64.5507 9.23462 64.2959 8.90164 64.1183 8.51185C63.9412 8.11785 63.8751 7.67006 63.92 7.16849L65.665 7.32479C65.6389 7.61562 65.663 7.86845 65.7372 8.08329C65.8161 8.29429 65.936 8.47286 66.0971 8.619C66.2628 8.7613 66.4611 8.87253 66.6918 8.95268C66.9226 9.03283 67.1749 9.08518 67.4489 9.10972C67.8029 9.14143 68.0981 9.11901 68.3344 9.04246C68.5753 8.96207 68.7605 8.83846 68.8902 8.67162C69.0241 8.50517 69.1012 8.30814 69.1216 8.08054Z" fill="white"/>
<path d="M79.7461 11.3565L79.3861 12.6795L74.6454 11.3896L75.0054 10.0666L79.7461 11.3565ZM77.5863 2.61159L75.1599 11.5296L73.4755 11.0713L75.9019 2.1533L77.5863 2.61159ZM80.1924 7.27427L79.8407 8.56664L75.7186 7.4451L76.0702 6.15272L80.1924 7.27427ZM81.7942 3.75647L81.4325 5.08559L76.7102 3.80073L77.0718 2.4716L81.7942 3.75647Z" fill="white"/>
<path d="M86.8581 12.7088L89.5816 6.87684L91.1633 7.61547L88.4398 13.4474C88.1801 14.0034 87.8364 14.4243 87.4086 14.7103C86.9826 14.9924 86.5114 15.1413 85.995 15.157C85.4786 15.1727 84.9577 15.0579 84.4324 14.8126C83.8918 14.5601 83.4546 14.2462 83.1208 13.8708C82.7888 13.4916 82.5917 13.0586 82.5295 12.5718C82.4711 12.0868 82.5771 11.5549 82.8474 10.9759L84.4348 11.7172C84.288 12.0316 84.2177 12.307 84.2241 12.5435C84.2304 12.78 84.3021 12.9816 84.439 13.1483C84.5799 13.3168 84.771 13.4575 85.0126 13.5703C85.2465 13.6795 85.4767 13.7217 85.7032 13.6967C85.9353 13.6696 86.1505 13.5739 86.3487 13.4096C86.5468 13.2453 86.7167 13.0117 86.8581 12.7088Z" fill="white"/>
<path d="M97.7668 13.2559L91.0834 18.1271L89.5766 17.0586L97.7393 11.5168L98.7025 12.1997L97.7668 13.2559ZM95.0291 20.9248L97.4043 12.9989L98.0863 11.7628L99.0546 12.4494L96.5411 21.9969L95.0291 20.9248ZM96.917 18.0538L96.1203 19.1774L92.0763 16.3099L92.873 15.1862L96.917 18.0538Z" fill="white"/>
<path d="M112.66 25.7133L113.734 27.0895L108.894 30.8657C108.337 31.3005 107.775 31.5462 107.207 31.6028C106.643 31.6567 106.102 31.5524 105.586 31.2897C105.073 31.0244 104.611 30.6282 104.199 30.101C103.783 29.5673 103.507 29.0176 103.372 28.4522C103.24 27.8842 103.27 27.3347 103.462 26.8036C103.658 26.27 104.034 25.7857 104.591 25.351L109.43 21.5748L110.504 22.951L105.665 26.7272C105.325 26.9927 105.09 27.2668 104.962 27.5495C104.837 27.8295 104.803 28.1133 104.861 28.4009C104.919 28.6884 105.059 28.974 105.28 29.2576C105.504 29.5445 105.747 29.7493 106.01 29.8721C106.274 29.9983 106.556 30.0331 106.856 29.9766C107.159 29.9174 107.48 29.7551 107.821 29.4896L112.66 25.7133Z" fill="white"/>
<path d="M117.074 32.1353L117.726 33.4983L112.539 38.7783L119.902 38.0511L120.557 39.4198L110.737 40.308L110.214 39.2142L117.074 32.1353ZM116.745 31.4481L117.383 32.7824L111.731 35.78L109.16 37.0093L108.407 35.4345L116.745 31.4481ZM120.244 38.767L120.885 40.1071L112.547 44.0934L111.794 42.5186L114.365 41.2892L120.244 38.767Z" fill="white"/>
<path d="M123.149 54.92L115.041 53.2944L114.808 51.462L124.411 53.7231L124.56 54.8944L123.149 54.92ZM115.65 58.0928L123.093 54.4792L124.465 54.145L124.615 55.3226L115.883 59.9316L115.65 58.0928ZM119.041 57.5405L117.675 57.714L117.05 52.796L118.417 52.6225L119.041 57.5405Z" fill="white"/>
<path d="M119.123 66.2317L119.273 63.856L120.641 63.9426L120.491 66.3182C120.466 66.7068 120.51 67.0254 120.621 67.2742C120.737 67.5274 120.903 67.7181 121.119 67.8463C121.34 67.9748 121.596 68.0482 121.888 68.0667C122.171 68.0846 122.438 68.0443 122.69 67.9457C122.943 67.8472 123.152 67.6803 123.32 67.445C123.487 67.2138 123.583 66.904 123.608 66.5155L123.722 64.71L115.873 64.2133L115.983 62.4712L125.207 63.0549L124.982 66.6025C124.937 67.3204 124.77 67.9247 124.48 68.4152C124.194 68.9101 123.817 69.2764 123.348 69.5138C122.883 69.7558 122.364 69.8586 121.789 69.8223C121.194 69.7846 120.689 69.617 120.276 69.3194C119.862 69.0261 119.555 68.6166 119.355 68.0908C119.155 67.5693 119.077 66.9496 119.123 66.2317Z" fill="white"/>
<path d="M117.983 80.8309L117.523 80.7099C116.848 80.5323 116.264 80.2825 115.771 79.9604C115.282 79.6394 114.893 79.2637 114.603 78.8332C114.314 78.4027 114.129 77.9319 114.049 77.4208C113.969 76.9097 114.003 76.3738 114.15 75.8131C114.296 75.2606 114.529 74.7794 114.851 74.3697C115.172 73.964 115.565 73.6428 116.03 73.4062C116.495 73.1696 117.019 73.0297 117.604 72.9864C118.193 72.9443 118.825 73.012 119.5 73.1895L119.96 73.3105C120.64 73.4891 121.223 73.7409 121.711 74.0661C122.199 74.3912 122.587 74.769 122.877 75.1995C123.17 75.631 123.357 76.1024 123.437 76.6135C123.516 77.1287 123.483 77.6625 123.338 78.215C123.19 78.7757 122.956 79.2589 122.635 79.6646C122.314 80.0703 121.919 80.3888 121.452 80.6203C120.987 80.8569 120.463 80.9948 119.879 81.0339C119.295 81.0772 118.663 81.0095 117.983 80.8309ZM117.972 79.0032L118.444 79.1274C118.931 79.2555 119.371 79.3229 119.763 79.3297C120.159 79.3375 120.507 79.2868 120.807 79.1775C121.107 79.0683 121.354 78.9014 121.549 78.6769C121.748 78.4535 121.89 78.1801 121.975 77.8568C122.061 77.5294 122.072 77.2216 122.007 76.9334C121.946 76.6504 121.812 76.3875 121.604 76.1448C121.397 75.9021 121.119 75.6848 120.772 75.4927C120.427 75.3059 120.011 75.1484 119.524 75.0204L119.051 74.8961C118.568 74.7692 118.129 74.7018 117.733 74.6939C117.335 74.6901 116.985 74.7424 116.681 74.8506C116.38 74.9639 116.13 75.1303 115.933 75.3496C115.735 75.5689 115.593 75.8423 115.507 76.1697C115.421 76.4971 115.41 76.8049 115.474 77.0931C115.539 77.3813 115.675 77.6447 115.884 77.8833C116.095 78.127 116.375 78.3429 116.724 78.5308C117.073 78.7188 117.489 78.8762 117.972 79.0032Z" fill="white"/>
<path d="M119.921 87.8184L111.453 84.1153L112.152 82.5159L120.62 86.2191L119.921 87.8184Z" fill="white"/>
<path d="M114.539 95.0429L109.316 88.6301L110.303 87.0682L116.274 94.9224L115.643 95.9207L114.539 95.0429ZM106.734 92.72L114.776 94.6672L116.047 95.282L115.413 96.2857L105.744 94.2872L106.734 92.72ZM109.702 94.4514L108.537 93.716L111.184 89.5242L112.349 90.2596L109.702 94.4514Z" fill="white"/>
<path d="M102.379 98.2558L103.745 96.8044L104.735 97.7533L103.378 99.1955C103.009 99.5868 102.787 99.9962 102.71 100.424C102.636 100.854 102.699 101.291 102.898 101.734C103.1 102.18 103.43 102.619 103.89 103.051L104.236 103.377C104.591 103.711 104.94 103.967 105.283 104.145C105.627 104.323 105.962 104.423 106.289 104.447C106.613 104.473 106.926 104.421 107.228 104.292C107.529 104.163 107.813 103.957 108.08 103.674L109.498 102.167L110.501 103.111L109.083 104.618C108.66 105.068 108.199 105.407 107.699 105.634C107.198 105.865 106.677 105.983 106.138 105.987C105.6 105.997 105.067 105.891 104.539 105.667C104.009 105.447 103.501 105.109 103.018 104.653L102.68 104.336C102.199 103.883 101.831 103.398 101.576 102.878C101.321 102.365 101.183 101.84 101.16 101.301C101.135 100.766 101.224 100.24 101.427 99.7216C101.63 99.2035 101.947 98.7149 102.379 98.2558ZM109.805 103.851L103.075 97.5162L104.272 96.2451L111.002 102.579L109.805 103.851Z" fill="white"/>
<path d="M93.8611 111.861L93.5844 111.473C93.1787 110.905 92.8893 110.339 92.7163 109.777C92.5457 109.217 92.4868 108.68 92.5395 108.164C92.5922 107.648 92.7512 107.167 93.0165 106.723C93.2817 106.279 93.6503 105.889 94.1221 105.552C94.587 105.22 95.0743 104.999 95.584 104.89C96.0902 104.783 96.5976 104.788 97.1063 104.903C97.6149 105.018 98.1078 105.246 98.5849 105.587C99.0645 105.931 99.5071 106.387 99.9128 106.955L100.189 107.342C100.598 107.914 100.885 108.481 101.052 109.043C101.22 109.604 101.277 110.143 101.224 110.659C101.174 111.179 101.016 111.661 100.751 112.105C100.482 112.551 100.115 112.941 99.6504 113.273C99.1785 113.61 98.6895 113.831 98.1833 113.938C97.6771 114.045 97.1701 114.037 96.6625 113.916C96.1538 113.801 95.6627 113.572 95.189 113.229C94.7119 112.889 94.2693 112.432 93.8611 111.861ZM95.0206 110.448L95.3046 110.846C95.5972 111.255 95.8921 111.588 96.1892 111.844C96.4887 112.104 96.7887 112.287 97.0893 112.395C97.3898 112.503 97.6867 112.532 97.9799 112.484C98.2756 112.44 98.5594 112.32 98.8315 112.126C99.107 111.929 99.3122 111.699 99.4471 111.437C99.5809 111.18 99.6457 110.892 99.6413 110.573C99.6369 110.253 99.5625 109.909 99.4179 109.539C99.2724 109.175 99.0533 108.788 98.7607 108.378L98.4767 107.98C98.1865 107.574 97.8917 107.241 97.5921 106.982C97.2892 106.725 96.9862 106.541 96.6832 106.43C96.3792 106.324 96.0811 106.293 95.7888 106.335C95.4966 106.377 95.2128 106.497 94.9372 106.693C94.6617 106.89 94.4565 107.12 94.3217 107.382C94.1868 107.645 94.1233 107.935 94.1311 108.252C94.138 108.574 94.2154 108.92 94.3634 109.287C94.5114 109.655 94.7304 110.041 95.0206 110.448Z" fill="white"/>
<path d="M92.2161 117.921L89.1607 119.314C88.5215 119.605 87.9289 119.759 87.3829 119.775C86.8369 119.791 86.3547 119.667 85.9362 119.402C85.5178 119.137 85.1831 118.729 84.9321 118.179C84.7337 117.743 84.6387 117.331 84.6471 116.941C84.6554 116.551 84.751 116.185 84.9338 115.841C85.1128 115.499 85.3628 115.18 85.684 114.885L86.0649 114.404L88.7623 113.175L89.3451 114.423L87.3293 115.342C87.002 115.491 86.7569 115.673 86.5939 115.886C86.4309 116.1 86.3421 116.334 86.3273 116.587C86.3086 116.842 86.359 117.1 86.4783 117.362C86.6065 117.643 86.7709 117.861 86.9718 118.016C87.1744 118.175 87.4109 118.26 87.6813 118.272C87.9516 118.283 88.2543 118.213 88.5893 118.06L90.0564 117.391L86.7944 110.235L88.3828 109.511L92.2161 117.921ZM83.635 111.675L87.298 114.554L85.6199 115.326L81.968 112.533L81.9311 112.452L83.635 111.675Z" fill="white"/>
<path d="M75.1268 119.225L75.1693 119.469C75.239 119.869 75.1672 120.221 74.9537 120.525C74.7403 120.828 74.4147 121.018 73.977 121.094C73.5309 121.172 73.1561 121.104 72.8526 120.891C72.5491 120.677 72.3624 120.37 72.2927 119.97L72.2502 119.726C72.1805 119.326 72.2527 118.976 72.4669 118.677C72.6769 118.378 73.0049 118.19 73.451 118.112C73.8888 118.036 74.2611 118.102 74.5681 118.311C74.8708 118.52 75.0571 118.825 75.1268 119.225Z" fill="white"/>
<path d="M57.5189 117.978C57.5051 118.155 57.5202 118.315 57.5642 118.459C57.6036 118.606 57.6885 118.742 57.8188 118.867C57.9446 118.996 58.1277 119.124 58.368 119.254C58.6039 119.387 58.9111 119.529 59.2897 119.682C59.7095 119.851 60.0984 120.034 60.4565 120.231C60.8146 120.429 61.1263 120.651 61.3915 120.897C61.6525 121.142 61.8497 121.416 61.9831 121.719C62.1162 122.027 62.1676 122.375 62.1373 122.763C62.1077 123.143 62.0005 123.482 61.8158 123.782C61.627 124.081 61.374 124.331 61.057 124.531C60.7397 124.736 60.3738 124.884 59.9592 124.974C59.5404 125.065 59.0842 125.091 58.5906 125.052C57.9071 124.999 57.3262 124.828 56.8478 124.541C56.3651 124.252 56.0033 123.885 55.7623 123.437C55.5213 122.99 55.4216 122.5 55.463 121.969L57.197 122.104C57.1746 122.391 57.2161 122.649 57.3213 122.877C57.4223 123.106 57.5902 123.293 57.8251 123.439C58.0557 123.584 58.3545 123.671 58.7216 123.7C59.076 123.727 59.3754 123.698 59.6199 123.611C59.8602 123.523 60.0464 123.394 60.1787 123.221C60.3068 123.049 60.3795 122.851 60.397 122.627C60.4101 122.458 60.3819 122.303 60.3123 122.162C60.2423 122.025 60.1318 121.891 59.9807 121.761C59.8292 121.634 59.6394 121.511 59.411 121.391C59.1781 121.276 58.9072 121.157 58.5983 121.035C58.1039 120.844 57.6741 120.641 57.3089 120.425C56.9394 120.21 56.6373 119.974 56.4026 119.718C56.1637 119.462 55.9925 119.181 55.889 118.876C55.7812 118.57 55.742 118.23 55.7713 117.854C55.8022 117.457 55.9079 117.109 56.0884 116.809C56.2688 116.509 56.5132 116.261 56.8214 116.064C57.1296 115.867 57.4928 115.728 57.9109 115.646C58.3248 115.564 58.7828 115.542 59.2848 115.581C59.7321 115.616 60.1704 115.71 60.6 115.862C61.025 116.018 61.4053 116.231 61.7409 116.499C62.0763 116.771 62.3349 117.101 62.5169 117.489C62.6985 117.881 62.7698 118.328 62.7306 118.83L60.984 118.694C61.0067 118.403 60.9797 118.15 60.903 117.936C60.8218 117.726 60.6998 117.549 60.537 117.404C60.3697 117.264 60.1702 117.155 59.9385 117.078C59.7069 117 59.4539 116.951 59.1797 116.929C58.8253 116.902 58.5304 116.927 58.295 117.007C58.0551 117.09 57.8712 117.216 57.7435 117.384C57.6115 117.552 57.5367 117.75 57.5189 117.978Z" fill="white"/>
<path d="M46.8588 114.826L47.2033 113.498L51.9588 114.733L51.6143 116.06L46.8588 114.826ZM49.1204 123.545L51.4427 114.599L53.1323 115.038L50.8101 123.983L49.1204 123.545ZM46.4602 118.913L46.7967 117.616L50.9316 118.69L50.5951 119.986L46.4602 118.913ZM44.8995 122.449L45.2456 121.116L49.9826 122.345L49.6365 123.679L44.8995 122.449Z" fill="white"/>
<path d="M39.7311 113.556L37.0756 119.419L35.4855 118.699L38.141 112.836C38.3941 112.277 38.7329 111.852 39.1574 111.561C39.58 111.274 40.0495 111.12 40.5657 111.098C41.0819 111.076 41.604 111.185 42.1322 111.424C42.6757 111.67 43.1165 111.979 43.4546 112.351C43.791 112.726 43.9931 113.157 44.0611 113.643C44.1251 114.127 44.0253 114.66 43.7617 115.242L42.1658 114.519C42.3089 114.203 42.376 113.927 42.3669 113.691C42.3578 113.454 42.2838 113.254 42.1449 113.089C42.0022 112.922 41.8093 112.783 41.5665 112.673C41.3313 112.567 41.1007 112.527 40.8745 112.555C40.6427 112.585 40.4286 112.683 40.2324 112.849C40.0361 113.016 39.869 113.252 39.7311 113.556Z" fill="white"/>
<path d="M28.815 113.134L35.4418 108.187L36.9608 109.238L28.8624 114.873L27.8915 114.201L28.815 113.134ZM31.4642 105.434L29.1803 113.387L28.5126 114.631L27.5365 113.956L29.9399 104.38L31.4642 105.434ZM29.6094 108.327L30.3931 107.194L34.4699 110.015L33.6862 111.148L29.6094 108.327Z" fill="white"/>
<path d="M13.7791 100.848L12.6895 99.4838L17.485 95.6523C18.0371 95.2112 18.5967 94.9591 19.1638 94.896C19.7276 94.8355 20.2692 94.9337 20.7885 95.1904C21.3044 95.4498 21.7711 95.8407 22.1885 96.3631C22.6111 96.8921 22.8933 97.4385 23.035 98.0023C23.1735 98.5688 23.1497 99.1186 22.9636 99.6518C22.7743 100.188 22.4035 100.676 21.8514 101.117L17.0559 104.949L15.9663 103.585L20.7618 99.7535C21.099 99.4841 21.3302 99.2073 21.4553 98.9232C21.577 98.6418 21.6073 98.3576 21.546 98.0707C21.4847 97.7839 21.3418 97.4999 21.1173 97.2189C20.8901 96.9346 20.6447 96.7325 20.3811 96.6128C20.1148 96.4897 19.8323 96.4581 19.5336 96.518C19.2315 96.5806 18.9119 96.7467 18.5746 97.0161L13.7791 100.848Z" fill="white"/>
<path d="M9.29279 94.4794L8.6254 93.124L13.7507 87.7842L6.39607 88.5968L5.72587 87.2357L15.5344 86.2337L16.07 87.3214L9.29279 94.4794ZM9.62929 95.1627L8.97592 93.8359L14.5927 90.7729L17.1496 89.5138L17.9207 91.0798L9.62929 95.1627ZM6.04555 87.8849L5.38937 86.5524L13.6808 82.4695L14.452 84.0355L11.8951 85.2946L6.04555 87.8849Z" fill="white"/>
<path d="M2.95219 71.7603L11.0791 73.2929L11.3328 75.1226L1.70389 72.9716L1.54172 71.8021L2.95219 71.7603ZM10.4147 68.5019L3.01321 72.2005L1.64547 72.5503L1.48244 71.3746L10.1601 66.6659L10.4147 68.5019ZM7.02974 69.093L8.39413 68.9038L9.07504 73.8143L7.71065 74.0035L7.02974 69.093Z" fill="white"/>
<path d="M6.84982 60.412L6.72682 62.7892L5.35755 62.7183L5.48056 60.3411C5.50068 59.9523 5.45358 59.6342 5.33926 59.3868C5.22094 59.1349 5.05273 58.9461 4.83465 58.8204C4.61235 58.6945 4.35539 58.624 4.06379 58.6089C3.78064 58.5942 3.51356 58.6376 3.26254 58.739C3.01152 58.8404 2.8036 59.0098 2.63877 59.247C2.47417 59.48 2.38181 59.7909 2.36169 60.1797L2.2682 61.9864L10.1224 62.3928L10.0322 64.1361L0.802395 63.6585L0.986087 60.1086C1.02326 59.3901 1.18387 58.784 1.4679 58.2902C1.74793 57.792 2.12093 57.4214 2.5869 57.1786C3.04886 56.9313 3.56722 56.8225 4.14197 56.8523C4.73786 56.8831 5.24433 57.0449 5.6614 57.3377C6.07869 57.6262 6.39032 58.0322 6.5963 58.5556C6.80249 59.0747 6.887 59.6935 6.84982 60.412Z" fill="white"/>
<path d="M7.81938 45.8003L8.2812 45.9159C8.95852 46.0856 9.5455 46.3285 10.0421 46.6448C10.5347 46.9601 10.9281 47.3313 11.2225 47.7584C11.5169 48.1855 11.7071 48.6541 11.7931 49.1642C11.8791 49.6744 11.8517 50.2106 11.7109 50.773C11.5721 51.3272 11.344 51.811 11.0267 52.2245C10.7104 52.6339 10.3213 52.9596 9.85936 53.2016C9.39741 53.4437 8.87442 53.5897 8.2904 53.6398C7.70228 53.6888 7.06956 53.6285 6.39223 53.4589L5.93042 53.3432C5.24899 53.1726 4.66252 52.9276 4.17103 52.6082C3.67953 52.2888 3.28659 51.9155 2.9922 51.4885C2.6937 51.0603 2.50145 50.5912 2.41544 50.0811C2.33046 49.5669 2.35736 49.0326 2.49614 48.4785C2.63698 47.9161 2.86554 47.4302 3.18182 47.0208C3.4981 46.6114 3.88876 46.2883 4.35379 46.0514C4.81575 45.8093 5.33822 45.6653 5.92121 45.6194C6.50523 45.5693 7.13795 45.6296 7.81938 45.8003ZM7.85252 47.6277L7.37839 47.509C6.88989 47.3867 6.44961 47.3244 6.05754 47.3222C5.66137 47.3189 5.31393 47.3737 5.01521 47.4865C4.7165 47.5993 4.47113 47.769 4.27911 47.9958C4.08299 48.2215 3.94432 48.4965 3.86311 48.8208C3.78087 49.1492 3.77356 49.4571 3.84118 49.7445C3.90573 50.0268 4.04315 50.288 4.25346 50.5283C4.46377 50.7685 4.74387 50.9827 5.09379 51.1706C5.44062 51.3534 5.85829 51.506 6.34678 51.6284L6.82091 51.7471C7.3053 51.8684 7.74558 51.9307 8.14175 51.9339C8.53895 51.933 8.88896 51.8767 9.19178 51.765C9.49153 51.6481 9.73895 51.4789 9.93404 51.2572C10.1291 51.0356 10.2678 50.7606 10.35 50.4322C10.4323 50.1038 10.4396 49.7959 10.372 49.5085C10.3044 49.2211 10.1649 48.9593 9.95354 48.7232C9.73913 48.4819 9.45645 48.2693 9.10551 48.0855C8.75457 47.9016 8.33691 47.749 7.85252 47.6277Z" fill="white"/>
<path d="M5.80078 38.8354L14.3113 42.4395L13.6305 44.0469L5.12005 40.4428L5.80078 38.8354Z" fill="white"/>
<path d="M11.1021 31.5431L16.3975 37.8956L15.4293 39.4686L9.36843 31.6836L9.98728 30.6781L11.1021 31.5431ZM18.9328 33.7763L10.8692 31.9215L9.59135 31.3214L10.2135 30.3105L19.9043 32.1978L18.9328 33.7763ZM15.9451 32.079L17.1181 32.801L14.5196 37.023L13.3466 36.301L15.9451 32.079Z" fill="white"/>
<path d="M23.2231 28.1916L21.8737 29.6586L20.8732 28.721L22.2139 27.2634C22.5778 26.8679 22.7957 26.4559 22.8677 26.0277C22.9365 25.5965 22.8689 25.1606 22.6648 24.7199C22.4576 24.2763 22.122 23.8411 21.6579 23.4142L21.3075 23.0919C20.9494 22.7624 20.5974 22.5106 20.2517 22.3363C19.906 22.1621 19.5695 22.0653 19.2423 22.046C18.9179 22.0236 18.6057 22.0786 18.3058 22.2109C18.0058 22.3432 17.7241 22.5527 17.4605 22.8392L16.0596 24.3622L15.0458 23.4297L16.4467 21.9067C16.865 21.4519 17.3223 21.1079 17.8187 20.8745C18.318 20.6381 18.8369 20.5146 19.3756 20.5041C19.914 20.4876 20.4483 20.5881 20.9785 20.8055C21.5115 21.0199 22.0226 21.3519 22.5115 21.8017L22.8526 22.1154C23.3384 22.5624 23.7119 23.0439 23.9731 23.5601C24.234 24.0703 24.3787 24.5944 24.4071 25.1323C24.4384 25.6671 24.3556 26.1947 24.1587 26.715C23.9618 27.2354 23.6499 27.7276 23.2231 28.1916ZM15.7334 22.6822L22.5355 28.9391L21.3537 30.2239L14.5516 23.9669L15.7334 22.6822Z" fill="white"/>
<path d="M31.5835 14.4905L31.8646 14.8748C32.2768 15.4383 32.5727 16.0005 32.7522 16.5613C32.9292 17.1186 32.9943 17.6556 32.9475 18.1722C32.9007 18.6888 32.7472 19.1707 32.4871 19.6179C32.227 20.0651 31.863 20.4598 31.3951 20.8021C30.934 21.1394 30.4492 21.3655 29.9408 21.4805C29.4359 21.5929 28.9284 21.5945 28.4185 21.4851C27.9086 21.3758 27.4131 21.1536 26.9321 20.8186C26.4486 20.4802 26.0008 20.0292 25.5885 19.4656L25.3075 19.0814C24.8927 18.5144 24.5986 17.951 24.425 17.3911C24.2514 16.8313 24.188 16.293 24.2348 15.7764C24.2791 15.2564 24.4313 14.7728 24.6914 14.3256C24.9549 13.8759 25.3172 13.4825 25.7783 13.1452C26.2463 12.8029 26.7327 12.5755 27.2377 12.463C27.7426 12.3506 28.2496 12.352 28.7586 12.4673C29.2686 12.5766 29.7623 12.8 30.2399 13.1375C30.7209 13.4725 31.1687 13.9235 31.5835 14.4905ZM30.4403 15.9166L30.1517 15.5221C29.8544 15.1157 29.5557 14.7862 29.2557 14.5338C28.9532 14.2779 28.6511 14.0979 28.3493 13.9935C28.0476 13.8892 27.7504 13.8628 27.4577 13.9143C27.1626 13.9624 26.8801 14.0852 26.6103 14.2825C26.3371 14.4824 26.1346 14.7144 26.0027 14.9786C25.8718 15.2369 25.8104 15.5257 25.8184 15.8449C25.8265 16.1641 25.9049 16.5078 26.0537 16.8761C26.2034 17.2384 26.4269 17.6228 26.7242 18.0293L27.0128 18.4238C27.3076 18.8268 27.6063 19.1562 27.9088 19.4121C28.2147 19.6654 28.5198 19.846 28.8241 19.9537C29.1292 20.0556 29.4277 20.0837 29.7194 20.0381C30.0111 19.9925 30.2936 19.8697 30.5668 19.6698C30.8401 19.47 31.0426 19.2379 31.1744 18.9737C31.3062 18.7095 31.3664 18.4191 31.355 18.1024C31.3444 17.7798 31.263 17.4356 31.1108 17.0698C30.9586 16.704 30.7351 16.3196 30.4403 15.9166Z" fill="white"/>
<path d="M33.1559 8.41337L36.195 6.9852C36.8308 6.68643 37.4215 6.5257 37.9673 6.50302C38.513 6.48034 38.9967 6.59907 39.4182 6.85921C39.8397 7.11936 40.1791 7.52327 40.4365 8.07096C40.6399 8.50374 40.7396 8.91507 40.7358 9.30495C40.732 9.69483 40.6407 10.0627 40.4619 10.4086C40.287 10.7526 40.0406 11.0741 39.7229 11.3731L39.3476 11.858L36.6647 13.1188L36.0674 11.8776L38.0724 10.9354C38.3979 10.7824 38.6409 10.598 38.8014 10.3823C38.9619 10.1667 39.048 9.93212 39.0599 9.67873C39.0756 9.42355 39.0222 9.16574 38.8998 8.90531C38.7684 8.62572 38.6014 8.40963 38.3988 8.25704C38.1944 8.10062 37.9569 8.01817 37.6864 8.00969C37.4159 8.00121 37.114 8.07527 36.7808 8.23185L35.3216 8.91759L38.6666 16.0355L37.0868 16.778L33.1559 8.41337ZM41.8091 14.5588L38.1128 11.7229L39.7819 10.9315L43.466 13.6819L43.5038 13.7624L41.8091 14.5588Z" fill="white"/>
<path d="M50.2404 6.9081L50.1951 6.66471C50.1208 6.26531 50.1887 5.91265 50.3987 5.60673C50.6086 5.3008 50.932 5.10721 51.3689 5.02596C51.814 4.94316 52.1896 5.00674 52.4955 5.21671C52.8014 5.42667 52.9915 5.73136 53.0658 6.13076L53.1111 6.37414C53.1854 6.77354 53.1172 7.12412 52.9064 7.42589C52.6998 7.72688 52.374 7.91877 51.9288 8.00157C51.492 8.08283 51.1189 8.02094 50.8096 7.81591C50.5044 7.6101 50.3147 7.3075 50.2404 6.9081Z" fill="white"/>
</svg>
