<svg width="175" height="175" viewBox="0 0 175 175" fill="none" xmlns="http://www.w3.org/2000/svg">
<path d="M96.2416 12.0156L96.0958 13.6968L90.0715 13.1742L90.2174 11.493L96.2416 12.0156ZM91.7085 1.89846L90.7253 13.2309L88.5849 13.0452L89.5681 1.71278L91.7085 1.89846ZM95.887 6.97392L95.7445 8.61618L90.5064 8.16176L90.6489 6.51949L95.887 6.97392ZM97.0556 2.36234L96.9091 4.05131L90.9082 3.53071L91.0547 1.84174L97.0556 2.36234Z" fill="#00163A"/>
<path d="M105.91 3.89865L103.398 14.9927L101.302 14.5182L103.815 3.42413L105.91 3.89865Z" fill="#00163A"/>
<path d="M121.06 8.71769L117.067 19.3688L115.048 18.6119L113.29 9.52581L110.52 16.9143L108.508 16.1601L112.501 5.50899L114.513 6.26317L116.283 15.362L119.056 7.96625L121.06 8.71769Z" fill="#00163A"/>
<path d="M126.801 21.2259C126.91 21.0366 126.979 20.8507 127.006 20.668C127.041 20.4834 127.019 20.2872 126.941 20.0794C126.87 19.8697 126.735 19.6292 126.537 19.3581C126.346 19.085 126.081 18.763 125.742 18.3922C125.366 17.9817 125.032 17.5715 124.74 17.1615C124.448 16.7515 124.22 16.3397 124.056 15.9259C123.897 15.5148 123.824 15.1054 123.837 14.6979C123.853 14.2858 123.981 13.8724 124.221 13.4578C124.456 13.0521 124.756 12.7321 125.12 12.4978C125.489 12.2661 125.903 12.1234 126.361 12.0699C126.822 12.0118 127.307 12.0427 127.815 12.1626C128.328 12.2851 128.848 12.499 129.376 12.8044C130.106 13.2272 130.66 13.7256 131.038 14.2995C131.42 14.876 131.626 15.4767 131.655 16.1016C131.684 16.7265 131.535 17.3229 131.206 17.8908L129.353 16.818C129.531 16.5115 129.622 16.2033 129.627 15.8932C129.637 15.5857 129.55 15.2887 129.367 15.0021C129.188 14.7181 128.903 14.4626 128.511 14.2355C128.132 14.0162 127.784 13.8899 127.466 13.8564C127.153 13.8255 126.877 13.8704 126.639 13.9911C126.405 14.1145 126.219 14.2956 126.081 14.5345C125.976 14.7147 125.925 14.9018 125.927 15.0956C125.932 15.2849 125.983 15.4923 126.082 15.7177C126.182 15.9385 126.328 16.1761 126.517 16.4305C126.714 16.6829 126.952 16.9589 127.23 17.2583C127.677 17.7337 128.045 18.1881 128.336 18.6213C128.631 19.0572 128.841 19.4796 128.965 19.8886C129.094 20.3002 129.135 20.7029 129.087 21.0967C129.044 21.4931 128.907 21.8919 128.674 22.293C128.429 22.7167 128.126 23.047 127.767 23.2839C127.407 23.5209 127.003 23.6665 126.557 23.7208C126.11 23.775 125.633 23.7364 125.125 23.6049C124.622 23.4761 124.102 23.2563 123.566 22.9457C123.088 22.669 122.651 22.3319 122.256 21.9342C121.867 21.5347 121.558 21.0968 121.328 20.6206C121.101 20.14 120.99 19.6361 120.994 19.109C121.001 18.5773 121.16 18.0433 121.47 17.507L123.336 18.5876C123.156 18.8986 123.052 19.1932 123.023 19.4715C123.001 19.7478 123.042 20.0094 123.146 20.2561C123.257 20.501 123.421 20.728 123.637 20.9373C123.852 21.1466 124.107 21.336 124.4 21.5057C124.778 21.7249 125.119 21.8532 125.423 21.8905C125.733 21.9259 126.004 21.8842 126.236 21.7653C126.471 21.6491 126.66 21.4693 126.801 21.2259Z" fill="#00163A"/>
<path d="M141.156 21.0536L134.139 30.0071L132.454 28.6867L139.471 19.7333L141.156 21.0536ZM143.935 23.2317L142.889 24.5661L135.676 18.9137L136.722 17.5793L143.935 23.2317Z" fill="#00163A"/>
<path d="M143.673 36.789L142.456 37.9579L138.267 33.5968L139.484 32.4279L143.673 36.789ZM146.926 26.1905L138.722 34.0701L137.234 32.5206L145.437 24.641L146.926 26.1905ZM146.727 32.7617L145.538 33.9036L141.896 30.1116L143.085 28.9697L146.727 32.7617ZM150.644 30.0614L149.421 31.2358L145.248 26.8916L146.471 25.7172L150.644 30.0614Z" fill="#00163A"/>
<path d="M155.89 36.5626L146.724 43.2975L145.452 41.5661L154.618 34.8312L155.89 36.5626Z" fill="#00163A"/>
<path d="M164.167 50.0831L154.18 55.528L153.147 53.6349L157.76 45.6119L150.833 49.3889L149.804 47.5026L159.791 42.0577L160.82 43.944L156.207 51.9844L163.142 48.2037L164.167 50.0831Z" fill="#00163A"/>
<path d="M169.719 65.2479L158.635 67.8023L158.152 65.7088L169.237 63.1543L169.719 65.2479ZM165.961 70.8202L164.309 71.2009L163.152 66.184L164.804 65.8033L165.961 70.8202ZM170.884 70.3029L169.232 70.6836L167.941 65.0805L169.593 64.6998L170.884 70.3029Z" fill="#00163A"/>
<path d="M162.952 84.9098L161.272 85.0649L160.746 79.3703L162.427 79.2153L162.952 84.9098ZM172.133 78.971L160.806 80.016L160.608 77.8766L171.935 76.8317L172.133 78.971Z" fill="#00163A"/>
<path d="M166.861 94.958L166.276 94.9318C165.417 94.8934 164.65 94.7444 163.973 94.4848C163.302 94.2254 162.736 93.8742 162.276 93.4314C161.816 92.9885 161.472 92.47 161.243 91.8759C161.014 91.2817 160.916 90.6282 160.948 89.9154C160.979 89.213 161.135 88.5735 161.416 87.9969C161.697 87.4256 162.087 86.9373 162.585 86.532C163.082 86.1268 163.677 85.8223 164.369 85.6186C165.067 85.4152 165.845 85.3327 166.703 85.3711L167.288 85.3972C168.152 85.4359 168.92 85.5875 169.591 85.8521C170.262 86.1167 170.827 86.4704 171.287 86.9133C171.752 87.3564 172.099 87.875 172.328 88.4692C172.557 89.0685 172.655 89.7194 172.624 90.4218C172.592 91.1346 172.436 91.7767 172.155 92.3481C171.874 92.9194 171.482 93.405 170.979 93.8048C170.481 94.2101 169.887 94.512 169.195 94.7104C168.503 94.9141 167.725 94.9966 166.861 94.958ZM166.373 92.7621L166.974 92.789C167.593 92.8167 168.139 92.7837 168.612 92.6902C169.091 92.5969 169.497 92.4456 169.829 92.2363C170.162 92.027 170.416 91.762 170.592 91.4415C170.773 91.1211 170.873 90.7554 170.891 90.3444C170.91 89.9281 170.843 89.555 170.691 89.2249C170.544 88.9003 170.314 88.6189 170.002 88.3808C169.689 88.1426 169.299 87.9531 168.831 87.8123C168.367 87.6769 167.826 87.5953 167.207 87.5676L166.606 87.5408C165.992 87.5133 165.446 87.5462 164.967 87.6395C164.488 87.738 164.08 87.8918 163.742 88.1009C163.409 88.3154 163.153 88.5803 162.972 88.8954C162.791 89.2106 162.691 89.5763 162.672 89.9925C162.654 90.4088 162.72 90.7819 162.873 91.1119C163.025 91.442 163.257 91.7235 163.57 91.9564C163.888 92.1948 164.281 92.3818 164.749 92.5175C165.218 92.6531 165.759 92.7347 166.373 92.7621Z" fill="#00163A"/>
<path d="M171.575 100.373L170.788 104.43C170.624 105.279 170.355 105.983 169.981 106.541C169.607 107.1 169.138 107.495 168.574 107.725C168.009 107.955 167.361 107.999 166.63 107.857C166.052 107.745 165.571 107.546 165.186 107.259C164.802 106.972 164.502 106.614 164.288 106.186C164.073 105.762 163.933 105.284 163.866 104.751L163.657 104.026L164.351 100.444L166.018 100.752L165.499 103.428C165.415 103.863 165.422 104.238 165.52 104.554C165.618 104.87 165.788 105.126 166.031 105.322C166.274 105.523 166.569 105.657 166.916 105.724C167.29 105.797 167.626 105.788 167.924 105.697C168.228 105.607 168.483 105.431 168.687 105.168C168.892 104.906 169.038 104.552 169.124 104.107L169.502 102.159L159.999 100.316L160.408 98.2072L171.575 100.373ZM159.185 104.512L164.687 102.897L164.262 105.13L158.854 106.795L158.747 106.774L159.185 104.512Z" fill="#00163A"/>
<path d="M167.687 115.578L156.831 112.179L157.473 110.129L168.329 113.528L167.687 115.578Z" fill="#00163A"/>
<path d="M157.163 121.875L158.41 119.224L159.937 119.942L158.689 122.593C158.485 123.027 158.391 123.411 158.406 123.746C158.423 124.088 158.527 124.382 158.717 124.627C158.911 124.874 159.171 125.074 159.496 125.227C159.812 125.375 160.137 125.45 160.47 125.452C160.803 125.453 161.119 125.357 161.417 125.164C161.713 124.975 161.963 124.664 162.167 124.23L163.115 122.215L154.357 118.094L155.272 116.15L165.564 120.993L163.701 124.952C163.324 125.753 162.859 126.369 162.305 126.799C161.754 127.236 161.157 127.484 160.513 127.544C159.871 127.611 159.23 127.493 158.589 127.191C157.925 126.879 157.423 126.458 157.084 125.931C156.743 125.408 156.577 124.8 156.587 124.108C156.594 123.42 156.786 122.676 157.163 121.875Z" fill="#00163A"/>
<path d="M155.963 134.774L149.91 126.591L151.212 124.727L158.104 134.725L157.271 135.916L155.963 134.774ZM146.501 131.471L156.276 134.325L157.804 135.154L156.967 136.352L145.195 133.341L146.501 131.471ZM150.051 133.77L148.661 132.799L152.155 127.797L153.545 128.768L150.051 133.77Z" fill="#00163A"/>
<path d="M142.303 152.376L135.008 143.648L136.147 142.696L143.442 151.424L142.303 152.376ZM139.498 154.721L138.706 153.774L145.45 148.137L146.242 149.084L139.498 154.721Z" fill="#00163A"/>
<path d="M131.031 155.465L127.293 149.399L128.523 148.641L132.959 155.837L131.761 156.575L131.031 155.465ZM129.505 158.021L128.806 156.873C128.922 156.832 129.028 156.785 129.124 156.732C129.218 156.686 129.323 156.628 129.438 156.557C129.722 156.382 129.945 156.183 130.107 155.961C130.27 155.738 130.377 155.501 130.43 155.248C130.482 154.995 130.484 154.731 130.436 154.455C130.387 154.185 130.295 153.912 130.16 153.634L130.383 153.221C130.651 153.656 130.86 154.09 131.011 154.523C131.157 154.959 131.23 155.379 131.228 155.784C131.229 156.193 131.141 156.566 130.963 156.902C130.783 157.245 130.498 157.537 130.108 157.778C130.019 157.832 129.91 157.884 129.781 157.933C129.655 157.986 129.563 158.015 129.505 158.021Z" fill="#00163A"/>
<path d="M117.028 156.5L118.759 160.492C118.892 160.798 119.069 161.036 119.291 161.207C119.51 161.384 119.768 161.482 120.066 161.501C120.363 161.519 120.691 161.451 121.05 161.295C121.384 161.15 121.653 160.965 121.857 160.741C122.055 160.518 122.186 160.283 122.248 160.034C122.306 159.788 122.288 159.557 122.195 159.342L123.521 158.767C123.641 159.044 123.689 159.35 123.664 159.684C123.638 160.019 123.54 160.354 123.367 160.69C123.192 161.033 122.944 161.351 122.623 161.643C122.299 161.943 121.902 162.194 121.434 162.397C120.87 162.642 120.332 162.762 119.819 162.757C119.301 162.755 118.837 162.613 118.425 162.332C118.011 162.057 117.678 161.631 117.427 161.053L115.86 157.44C115.748 157.182 115.608 156.917 115.438 156.644C115.264 156.374 115.086 156.153 114.904 155.982L114.854 155.867L116.237 155.267C116.371 155.391 116.511 155.571 116.659 155.808C116.81 156.049 116.932 156.28 117.028 156.5ZM118.263 159.975L117.844 159.049L119.184 158.468C119.562 158.304 119.885 158.127 120.155 157.937C120.426 157.751 120.636 157.554 120.785 157.348C120.934 157.141 121.021 156.925 121.048 156.697C121.076 156.475 121.039 156.244 120.935 156.006C120.829 155.762 120.678 155.563 120.481 155.41C120.284 155.257 120.05 155.169 119.778 155.145C119.504 155.128 119.204 155.189 118.879 155.33C118.473 155.507 118.152 155.748 117.916 156.055C117.68 156.361 117.525 156.678 117.452 157.006C117.373 157.335 117.377 157.62 117.465 157.86L116.622 157.468C116.568 157.253 116.562 156.991 116.605 156.683C116.647 156.375 116.744 156.055 116.895 155.723C117.043 155.397 117.255 155.087 117.53 154.792C117.802 154.503 118.149 154.268 118.569 154.085C119.095 153.857 119.6 153.76 120.086 153.793C120.567 153.829 120.992 153.971 121.361 154.22C121.727 154.475 122.004 154.818 122.19 155.248C122.371 155.664 122.448 156.064 122.422 156.45C122.399 156.841 122.28 157.208 122.065 157.551C121.853 157.898 121.555 158.22 121.173 158.517C120.79 158.813 120.334 159.076 119.804 159.307L118.263 159.975Z" fill="#00163A"/>
<path d="M109.71 164.729L108.133 158.27L109.537 157.927L111.543 166.139L110.214 166.464L109.71 164.729ZM109.546 162.606L110.136 162.486C110.268 163.049 110.311 163.588 110.265 164.103C110.221 164.623 110.095 165.096 109.888 165.522C109.681 165.948 109.399 166.306 109.041 166.597C108.679 166.895 108.25 167.104 107.754 167.225C107.35 167.324 106.972 167.357 106.621 167.325C106.271 167.298 105.953 167.193 105.668 167.011C105.377 166.83 105.124 166.565 104.91 166.215C104.697 165.87 104.525 165.427 104.393 164.886L103.078 159.505L104.49 159.16L105.808 164.556C105.913 164.986 106.06 165.315 106.25 165.542C106.44 165.774 106.671 165.919 106.943 165.976C107.215 166.038 107.529 166.026 107.883 165.939C108.232 165.854 108.533 165.703 108.785 165.486C109.033 165.27 109.229 165.007 109.373 164.699C109.513 164.391 109.6 164.056 109.634 163.694C109.665 163.338 109.636 162.975 109.546 162.606Z" fill="#00163A"/>
<path d="M92.5802 163.255C92.5956 163.463 92.6567 163.651 92.7633 163.821C92.8651 163.996 93.0617 164.146 93.353 164.271C93.6394 164.401 94.0646 164.5 94.6285 164.568C95.1033 164.632 95.5353 164.717 95.9245 164.824C96.3085 164.931 96.6401 165.071 96.9193 165.243C97.1933 165.416 97.41 165.627 97.5696 165.877C97.7291 166.126 97.8218 166.425 97.8477 166.773C97.8724 167.105 97.8231 167.425 97.6996 167.732C97.571 168.039 97.3802 168.317 97.1271 168.565C96.8688 168.814 96.5523 169.018 96.1776 169.176C95.8029 169.335 95.3792 169.432 94.9066 169.467C94.2313 169.517 93.6459 169.44 93.1503 169.237C92.6547 169.034 92.2648 168.741 91.9805 168.36C91.6967 167.985 91.5368 167.555 91.5009 167.072L92.9422 166.965C92.9596 167.199 93.0465 167.419 93.203 167.627C93.3546 167.84 93.5683 168.01 93.844 168.136C94.1145 168.262 94.4393 168.311 94.8185 168.283C95.2184 168.253 95.5384 168.166 95.7785 168.023C96.0137 167.886 96.1815 167.719 96.2819 167.524C96.3771 167.328 96.4169 167.127 96.4015 166.919C96.3899 166.763 96.3535 166.625 96.2923 166.504C96.2263 166.389 96.1193 166.285 95.9713 166.191C95.8237 166.103 95.6194 166.024 95.3583 165.955C95.0973 165.886 94.7661 165.821 94.3648 165.762C93.6624 165.658 93.0797 165.513 92.6168 165.328C92.1539 165.143 91.8016 164.901 91.5599 164.6C91.3182 164.299 91.1806 163.923 91.147 163.471C91.1196 163.102 91.1724 162.759 91.3054 162.441C91.4332 162.123 91.6343 161.842 91.9085 161.597C92.178 161.358 92.5081 161.161 92.8987 161.006C93.2846 160.858 93.7242 160.765 94.2177 160.728C94.9604 160.673 95.5987 160.759 96.1326 160.985C96.6665 161.212 97.0816 161.526 97.3777 161.927C97.6739 162.328 97.8394 162.762 97.8741 163.23L96.425 163.337C96.3749 162.944 96.2373 162.638 96.0121 162.42C95.7874 162.207 95.5207 162.062 95.2121 161.986C94.9039 161.915 94.6018 161.89 94.3057 161.912C93.911 161.942 93.585 162.018 93.3278 162.142C93.0655 162.266 92.8709 162.424 92.7442 162.616C92.6175 162.808 92.5628 163.021 92.5802 163.255Z" fill="#00163A"/>
<path d="M83.1637 161.106L84.6057 161.204L83.9704 170.526C83.9289 171.134 83.7849 171.638 83.5384 172.039C83.2862 172.445 82.9451 172.74 82.5148 172.925C82.0843 173.115 81.5832 173.19 81.0116 173.151C80.8453 173.14 80.6797 173.118 80.5149 173.086C80.3448 173.054 80.1807 173.011 80.0224 172.959L80.1806 171.787C80.2879 171.82 80.4114 171.847 80.551 171.867C80.6854 171.887 80.8201 171.901 80.9552 171.91C81.2618 171.931 81.5311 171.887 81.763 171.777C81.9894 171.673 82.1677 171.507 82.298 171.281C82.4282 171.055 82.505 170.771 82.5284 170.428L83.1637 161.106ZM80.7962 169.417L80.8717 168.31L85.4392 168.622L85.3638 169.728L80.7962 169.417Z" fill="#00163A"/>
<path d="M75.6483 164.686L75.6098 164.862C75.4791 165.457 75.2715 165.99 74.9869 166.461C74.7011 166.937 74.3541 167.327 73.9459 167.632C73.5366 167.942 73.0776 168.151 72.5689 168.258C72.059 168.37 71.5167 168.363 70.9418 168.237C70.3619 168.109 69.8639 167.888 69.4478 167.573C69.0256 167.261 68.6936 166.879 68.4517 166.426C68.2037 165.977 68.0496 165.477 67.9894 164.925C67.9281 164.378 67.9628 163.807 68.0934 163.212L68.1319 163.037C68.2626 162.441 68.4702 161.908 68.7548 161.438C69.0395 160.967 69.389 160.577 69.8034 160.268C70.2116 159.963 70.6706 159.755 71.1805 159.643C71.6841 159.535 72.2259 159.544 72.8058 159.671C73.3858 159.799 73.8843 160.017 74.3015 160.328C74.7175 160.643 75.0496 161.025 75.2976 161.474C75.5394 161.927 75.691 162.427 75.7523 162.974C75.8136 163.52 75.7789 164.091 75.6483 164.686ZM74.1981 164.552L74.2366 164.377C74.327 163.965 74.3641 163.565 74.3479 163.177C74.3305 162.795 74.2559 162.443 74.124 162.12C73.987 161.797 73.7888 161.522 73.5295 161.294C73.269 161.072 72.943 160.917 72.5512 160.831C72.1646 160.746 71.809 160.751 71.4844 160.845C71.1536 160.943 70.8609 161.111 70.6061 161.348C70.3514 161.586 70.1361 161.874 69.9601 162.214C69.778 162.558 69.6417 162.936 69.5513 163.348L69.5127 163.524C69.4234 163.931 69.39 164.326 69.4124 164.709C69.4287 165.097 69.5053 165.452 69.6423 165.776C69.7731 166.103 69.9681 166.38 70.2275 166.608C70.4817 166.834 70.8047 166.991 71.1964 167.077C71.583 167.162 71.9417 167.155 72.2725 167.057C72.5982 166.958 72.8916 166.788 73.1525 166.546C73.4072 166.309 73.6231 166.018 73.8002 165.673C73.9761 165.333 74.1087 164.959 74.1981 164.552Z" fill="#00163A"/>
<path d="M59.8389 163.633L62.3825 156.978L63.7326 157.494L60.7149 165.39L59.4013 164.888L59.8389 163.633ZM56.8814 163.975L57.3684 162.723C57.471 162.79 57.5725 162.845 57.6728 162.889C57.7664 162.936 57.8764 162.984 58.0029 163.032C58.3143 163.151 58.6078 163.208 58.8833 163.201C59.1589 163.195 59.4129 163.136 59.6452 163.024C59.8776 162.912 60.0889 162.753 60.2792 162.547C60.4627 162.344 60.6239 162.105 60.7628 161.829L61.226 161.755C61.0438 162.232 60.8265 162.662 60.5741 163.045C60.3169 163.426 60.0272 163.739 59.705 163.984C59.381 164.233 59.0313 164.39 58.656 164.453C58.274 164.518 57.8689 164.47 57.4408 164.306C57.3435 164.269 57.2362 164.214 57.119 164.141C57 164.073 56.9208 164.018 56.8814 163.975Z" fill="#00163A"/>
<path d="M50.3126 159.36L53.8409 153.579L55.0813 154.335L50.6781 161.551L49.5044 160.835L50.3126 159.36ZM51.7259 157.614L52.2872 157.984C51.9816 158.475 51.639 158.892 51.2595 159.234C50.8773 159.58 50.469 159.834 50.0345 159.996C49.6001 160.158 49.149 160.212 48.6814 160.159C48.211 160.11 47.7357 159.939 47.2556 159.646C46.9177 159.44 46.6363 159.201 46.4115 158.929C46.1839 158.662 46.028 158.363 45.9439 158.031C45.8597 157.699 45.8575 157.337 45.9373 156.947C46.017 156.556 46.1952 156.134 46.472 155.681L49.4061 150.872L50.6398 151.625L47.7423 156.373C47.5117 156.751 47.3917 157.093 47.3823 157.398C47.3684 157.701 47.4458 157.974 47.6146 158.217C47.7807 158.465 48.0194 158.684 48.3306 158.874C48.6951 159.096 49.039 159.218 49.3622 159.238C49.6854 159.258 49.9896 159.2 50.2746 159.063C50.5597 158.926 50.8251 158.731 51.0709 158.478C51.3095 158.227 51.5278 157.939 51.7259 157.614ZM46.6359 155.442L47.6175 155.693C47.3716 156.086 47.0751 156.427 46.7282 156.716C46.3768 157.001 45.9942 157.213 45.5805 157.351C45.1623 157.487 44.7252 157.528 44.2692 157.476C43.8104 157.427 43.3521 157.264 42.8941 156.984C42.5073 156.748 42.1962 156.488 41.9607 156.204C41.7208 155.917 41.5637 155.605 41.4894 155.267C41.408 154.93 41.4143 154.565 41.5083 154.171C41.6024 153.777 41.7878 153.353 42.0645 152.899L44.958 148.158L46.1984 148.915L43.2968 153.67C43.0499 154.074 42.9231 154.427 42.9164 154.728C42.9025 155.031 42.984 155.297 43.161 155.527C43.3307 155.759 43.5734 155.971 43.8891 156.164C44.1603 156.329 44.4289 156.429 44.6948 156.463C44.9607 156.497 45.215 156.476 45.4577 156.398C45.6976 156.325 45.9191 156.207 46.1222 156.044C46.3209 155.878 46.4921 155.678 46.6359 155.442Z" fill="#00163A"/>
<path d="M35.5009 142.197L32.5268 145.374C32.299 145.617 32.1509 145.875 32.0824 146.146C32.0066 146.417 32.0194 146.693 32.1208 146.974C32.2221 147.254 32.4154 147.528 32.7005 147.795C32.9667 148.044 33.2432 148.217 33.5302 148.315C33.8133 148.409 34.0813 148.435 34.3342 148.393C34.5833 148.348 34.7879 148.24 34.9481 148.069L36.0032 149.057C35.7967 149.277 35.535 149.443 35.2181 149.552C34.9011 149.662 34.5543 149.705 34.1776 149.681C33.7936 149.656 33.4034 149.555 33.0069 149.377C32.603 149.198 32.2148 148.935 31.8422 148.586C31.3936 148.166 31.0693 147.72 30.8695 147.247C30.6659 146.771 30.6113 146.288 30.7058 145.799C30.7928 145.31 31.0517 144.835 31.4824 144.375L34.1735 141.5C34.3657 141.295 34.5533 141.061 34.7362 140.797C34.9153 140.529 35.0471 140.278 35.1314 140.043L35.2169 139.952L36.3176 140.982C36.2569 141.154 36.1474 141.354 35.9892 141.584C35.8274 141.818 35.6646 142.023 35.5009 142.197ZM32.8035 144.713L33.4862 143.961L34.5527 144.959C34.8531 145.24 35.1443 145.467 35.4263 145.638C35.7047 145.813 35.9683 145.928 36.217 145.982C36.4656 146.037 36.6994 146.031 36.9183 145.965C37.1337 145.902 37.3304 145.776 37.5083 145.586C37.6899 145.392 37.8117 145.174 37.8737 144.933C37.9358 144.691 37.9239 144.441 37.838 144.182C37.7447 143.924 37.5688 143.673 37.3102 143.431C36.9871 143.129 36.6378 142.93 36.2626 142.836C35.8873 142.741 35.5348 142.725 35.2053 142.788C34.8719 142.846 34.6123 142.964 34.4265 143.139L34.4511 142.21C34.6272 142.075 34.865 141.966 35.1644 141.882C35.4638 141.799 35.796 141.76 36.161 141.767C36.5187 141.773 36.8876 141.844 37.2679 141.979C37.6409 142.114 37.9946 142.338 38.3292 142.651C38.7474 143.043 39.0378 143.468 39.2003 143.927C39.359 144.383 39.3977 144.829 39.3163 145.266C39.2275 145.704 39.023 146.094 38.7026 146.436C38.3929 146.767 38.056 146.998 37.6918 147.127C37.324 147.261 36.9401 147.298 36.5402 147.237C36.1367 147.18 35.7229 147.036 35.2988 146.803C34.8748 146.57 34.4517 146.256 34.0297 145.861L32.8035 144.713Z" fill="#00163A"/>
<path d="M25.0403 138.767L30.3307 134.74L31.2061 135.89L24.4796 141.01L23.6516 139.922L25.0403 138.767ZM26.9208 137.767L27.2665 138.26C26.8033 138.606 26.3264 138.861 25.8359 139.025C25.3412 139.192 24.8574 139.266 24.3843 139.246C23.9112 139.227 23.4698 139.111 23.06 138.899C22.6428 138.687 22.2797 138.377 21.9705 137.971C21.7182 137.64 21.5367 137.307 21.426 136.972C21.3111 136.64 21.2801 136.307 21.333 135.973C21.3827 135.634 21.5251 135.296 21.7602 134.96C21.9912 134.627 22.3284 134.292 22.7719 133.955L27.1795 130.6L28.0596 131.756L23.6395 135.12C23.2872 135.388 23.0448 135.655 22.9123 135.919C22.7757 136.187 22.7354 136.456 22.7915 136.728C22.8434 137.003 22.9798 137.285 23.2006 137.575C23.4182 137.861 23.6771 138.076 23.9771 138.221C24.2739 138.362 24.5927 138.437 24.9334 138.446C25.2709 138.451 25.6127 138.397 25.9588 138.284C26.2976 138.17 26.6182 137.998 26.9208 137.767Z" fill="#00163A"/>
<path d="M19.8639 121.792L10.6743 126.575L10.0035 125.285L20.6484 119.746L21.2615 120.924L19.8639 121.792ZM20.2786 127.988L20.1331 128.064C19.5602 128.362 19.0043 128.563 18.4656 128.667C17.9198 128.769 17.4109 128.779 16.939 128.696C16.4647 128.608 16.0437 128.43 15.6759 128.164C15.3012 127.895 14.9972 127.537 14.764 127.088C14.5188 126.617 14.3879 126.163 14.3715 125.725C14.3481 125.285 14.4298 124.861 14.6165 124.453C14.7962 124.042 15.0683 123.651 15.4327 123.279C15.7971 122.908 16.242 122.55 16.7676 122.206L17.4052 121.874C17.9814 121.639 18.5275 121.481 19.0433 121.4C19.5568 121.315 20.0332 121.317 20.4726 121.405C20.9096 121.489 21.3038 121.665 21.6552 121.935C22.0021 122.206 22.2993 122.58 22.547 123.056C22.7754 123.495 22.8898 123.946 22.8904 124.41C22.8885 124.868 22.7851 125.319 22.5802 125.76C22.373 126.197 22.0756 126.607 21.6881 126.99C21.2936 127.372 20.8238 127.704 20.2786 127.988ZM19.4623 126.775L19.6078 126.699C19.982 126.504 20.3139 126.285 20.6035 126.04C20.8907 125.791 21.1169 125.52 21.2822 125.229C21.4476 124.937 21.537 124.629 21.5503 124.305C21.5591 123.984 21.4733 123.65 21.293 123.303C21.0718 122.878 20.8002 122.576 20.4782 122.397C20.1537 122.214 19.8004 122.116 19.4181 122.104C19.0359 122.091 18.6475 122.129 18.2529 122.217L16.5827 123.086C16.3574 123.274 16.1546 123.482 15.9743 123.711C15.7869 123.937 15.6441 124.182 15.5459 124.445C15.4406 124.705 15.395 124.984 15.4092 125.282C15.4209 125.575 15.5109 125.884 15.6792 126.207C15.862 126.558 16.0934 126.822 16.3734 126.999C16.6465 127.174 16.9522 127.277 17.2904 127.306C17.6241 127.338 17.9776 127.307 18.3512 127.212C18.7177 127.115 19.088 126.969 19.4623 126.775Z" fill="#00163A"/>
<path d="M14.2712 115.947L14.0998 116.001C13.5187 116.185 12.9532 116.271 12.4032 116.259C11.8483 116.248 11.3368 116.142 10.8689 115.94C10.3961 115.74 9.98644 115.446 9.64009 115.058C9.28877 114.672 9.0245 114.199 8.84728 113.637C8.66848 113.071 8.61203 112.529 8.6779 112.011C8.73724 111.49 8.90297 111.012 9.17509 110.576C9.44067 110.137 9.79761 109.754 10.2459 109.427C10.6892 109.101 11.2015 108.847 11.7826 108.663L11.9539 108.609C12.535 108.426 13.1005 108.34 13.6505 108.352C14.2005 108.364 14.7127 108.473 15.1871 108.678C15.655 108.88 16.0647 109.173 16.416 109.56C16.7608 109.942 17.0225 110.417 17.2013 110.983C17.3801 111.549 17.4391 112.09 17.3782 112.607C17.3123 113.124 17.1466 113.603 16.881 114.042C16.6089 114.477 16.2511 114.858 15.8078 115.183C15.3645 115.509 14.8522 115.764 14.2712 115.947ZM13.6646 114.623L13.8359 114.569C14.2382 114.442 14.6033 114.275 14.9311 114.067C15.2539 113.862 15.5221 113.621 15.7357 113.346C15.9477 113.066 16.0876 112.757 16.1556 112.419C16.2186 112.082 16.1897 111.723 16.069 111.34C15.9498 110.963 15.7685 110.657 15.5251 110.423C15.2752 110.185 14.9839 110.015 14.6511 109.912C14.3184 109.81 13.9608 109.767 13.5784 109.784C13.1894 109.797 12.7938 109.868 12.3915 109.995L12.2201 110.049C11.8228 110.174 11.4635 110.342 11.1422 110.553C10.8145 110.76 10.5446 111.004 10.3326 111.284C10.114 111.561 9.97078 111.868 9.90281 112.206C9.83328 112.539 9.8589 112.897 9.97966 113.28C10.0989 113.657 10.2834 113.965 10.5333 114.203C10.7816 114.436 11.0754 114.605 11.4147 114.711C11.7475 114.813 12.1076 114.855 12.495 114.837C12.8774 114.82 13.2673 114.749 13.6646 114.623Z" fill="#00163A"/>
<path d="M11.7433 89.6427L7.39423 89.7886C7.06108 89.7997 6.77445 89.8771 6.53434 90.0206C6.28884 90.1592 6.10288 90.3634 5.97644 90.6334C5.85 90.9035 5.79333 91.2337 5.80643 91.6241C5.81865 91.9884 5.89185 92.3065 6.02604 92.5782C6.16005 92.8447 6.33117 93.0526 6.53942 93.2019C6.7475 93.3461 6.96866 93.4142 7.2029 93.4064L7.25135 94.8509C6.94944 94.861 6.64751 94.793 6.34556 94.6468C6.04362 94.5005 5.76803 94.2857 5.5188 94.0022C5.2642 93.7137 5.05972 93.3662 4.90538 92.9597C4.74567 92.5482 4.65725 92.0873 4.64014 91.5772C4.61954 90.963 4.70549 90.4181 4.89799 89.9426C5.09032 89.462 5.39285 89.0818 5.80558 88.8022C6.21293 88.5176 6.73154 88.3647 7.36139 88.3435L11.2967 88.2115C11.5778 88.2021 11.8763 88.1686 12.1923 88.1111C12.508 88.0484 12.7788 87.9638 13.0045 87.8572L13.1294 87.853L13.18 89.36C13.0159 89.4385 12.7965 89.5031 12.5221 89.554C12.2424 89.6051 11.9828 89.6347 11.7433 89.6427ZM8.05734 89.5162L9.07187 89.4665L9.12085 90.9266C9.13464 91.3379 9.18079 91.7037 9.25928 92.0242C9.33257 92.3448 9.43795 92.6123 9.57542 92.8265C9.71289 93.0408 9.88245 93.2019 10.0841 93.3097C10.2805 93.4178 10.5089 93.4675 10.7692 93.4587C11.0346 93.4498 11.2747 93.3818 11.4893 93.2548C11.7039 93.1277 11.8723 92.9423 11.9944 92.6985C12.1111 92.4496 12.1635 92.1482 12.1516 91.7943C12.1368 91.3518 12.03 90.9645 11.8313 90.6325C11.6325 90.3004 11.3945 90.04 11.1172 89.8513C10.8397 89.6574 10.5731 89.5569 10.3176 89.5498L10.9918 88.9097C11.2116 88.9388 11.457 89.0295 11.7279 89.182C11.9988 89.3345 12.2611 89.5419 12.5148 89.8044C12.7632 90.0619 12.9742 90.3727 13.148 90.7368C13.3164 91.096 13.4083 91.5046 13.4236 91.9627C13.4428 92.5353 13.3478 93.0413 13.1384 93.4809C12.9289 93.9152 12.6408 94.2584 12.274 94.5104C11.9019 94.7574 11.4816 94.8888 11.0131 94.9045C10.5602 94.9197 10.159 94.8446 9.80953 94.6791C9.45483 94.5138 9.15738 94.2684 8.91716 93.943C8.67175 93.6177 8.48132 93.2228 8.34588 92.7583C8.21044 92.2939 8.13303 91.7727 8.11365 91.1949L8.05734 89.5162Z" fill="#00163A"/>
<path d="M15.0214 71.2621C14.8853 71.8347 14.6655 72.3312 14.3622 72.7516C14.055 73.1658 13.6843 73.4979 13.2501 73.748C12.8171 73.9931 12.3363 74.1465 11.8077 74.2082C11.2791 74.27 10.726 74.2322 10.1483 74.0949L9.82908 74.019C9.16021 73.86 8.58831 73.6197 8.11336 73.298C7.63334 72.9752 7.25126 72.6006 6.96712 72.1744C6.68297 71.7482 6.49835 71.2974 6.41323 70.8222C6.32812 70.3469 6.34036 69.8787 6.44996 69.4176C6.58966 68.8298 6.81144 68.3472 7.1153 67.9697C7.42035 67.5872 7.78782 67.3024 8.21769 67.1155C8.6425 66.9274 9.11631 66.8259 9.63914 66.811C10.1569 66.7948 10.7046 66.8554 11.2823 66.9927L11.9131 67.1427L10.4534 73.2841L9.30573 73.0113L10.4312 68.276L10.3248 68.2507C9.95514 68.1843 9.58238 68.176 9.2065 68.2258C8.83182 68.2706 8.49988 68.4059 8.21069 68.6316C7.92149 68.8573 7.71969 69.2108 7.60527 69.6922C7.5294 70.0114 7.52795 70.3216 7.60093 70.6227C7.66885 70.9225 7.81167 71.2001 8.0294 71.4552C8.24712 71.7104 8.53336 71.9364 8.88811 72.1331C9.24285 72.3299 9.66852 72.4872 10.1651 72.6053L10.4843 72.6811C10.8745 72.7739 11.2545 72.808 11.6244 72.7835C11.9904 72.7527 12.3273 72.6641 12.6351 72.5178C12.9441 72.3664 13.2076 72.1587 13.4256 71.8946C13.6448 71.6255 13.8002 71.2984 13.8917 70.9133C14.0097 70.4167 14.0084 69.9721 13.8876 69.5793C13.7668 69.1866 13.5673 68.8207 13.2893 68.4815L14.1681 67.791C14.3945 68.0322 14.5968 68.3185 14.775 68.65C14.9532 68.9814 15.0707 69.3653 15.1276 69.8018C15.1856 70.2332 15.1502 70.7199 15.0214 71.2621Z" fill="#00163A"/>
<path d="M17.6611 57.2755L8.13121 53.2138L8.70096 51.877L19.7401 56.582L19.2194 57.8038L17.6611 57.2755ZM13.1385 61.5305L12.9876 61.4662C12.3934 61.2129 11.8851 60.9113 11.4624 60.5613C11.037 60.2045 10.7066 59.8174 10.4712 59.4C10.2378 58.9779 10.1073 58.5401 10.0798 58.0867C10.0494 57.6265 10.1333 57.164 10.3314 56.6993C10.5397 56.2106 10.8077 55.8209 11.1354 55.5303C11.4603 55.2328 11.8398 55.0266 12.2738 54.9115C12.7051 54.7896 13.18 54.7514 13.6985 54.7968C14.217 54.8423 14.7759 54.9588 15.3754 55.1464L16.0366 55.4282C16.5843 55.7239 17.0531 56.0454 17.4429 56.3927C17.8348 56.7353 18.1361 57.1043 18.3468 57.4999C18.5596 57.8906 18.6736 58.3072 18.6889 58.7497C18.6993 59.1901 18.5994 59.657 18.389 60.1505C18.195 60.6057 17.9191 60.9807 17.5614 61.2755C17.2057 61.5655 16.7923 61.7715 16.3214 61.8934C15.8524 62.0106 15.3468 62.0414 14.8043 61.9857C14.2591 61.9232 13.7039 61.7715 13.1385 61.5305ZM13.5573 60.1294L13.7082 60.1937C14.0963 60.3591 14.4768 60.476 14.8497 60.5443C15.2246 60.6079 15.5771 60.6109 15.9073 60.5535C16.2375 60.4961 16.532 60.3697 16.7908 60.1742C17.0448 59.9768 17.2484 59.6984 17.4016 59.339C17.5895 58.8982 17.6502 58.4966 17.5838 58.1343C17.5195 57.7672 17.3708 57.432 17.1376 57.1289C16.9045 56.8257 16.6287 56.5496 16.3102 56.3006L14.5781 55.5624C14.2901 55.5076 14.0004 55.4832 13.7091 55.4892C13.415 55.4885 13.1354 55.5335 12.8702 55.6243C12.6023 55.7082 12.3578 55.8503 12.1366 56.0504C11.9175 56.2458 11.7364 56.5112 11.5935 56.8465C11.4383 57.2107 11.3812 57.5572 11.4222 57.8861C11.4604 58.2081 11.5756 58.5091 11.7676 58.7891C11.9549 59.0671 12.2037 59.3203 12.5139 59.5488C12.8214 59.7705 13.1692 59.964 13.5573 60.1294Z" fill="#00163A"/>
<path d="M23.4861 45.7649L18.0294 42.2331L18.8189 41.0132L25.9153 45.6062L25.164 46.7671L23.4861 45.7649ZM22.1393 44.5675L22.4531 44.054C22.9253 44.3596 23.33 44.6929 23.6672 45.0538C24.0028 45.4076 24.2463 45.7885 24.3978 46.1968C24.5492 46.605 24.5934 47.04 24.5303 47.5017C24.4629 47.9605 24.265 48.4436 23.9367 48.9508C23.7132 49.2962 23.4577 49.5806 23.1704 49.8041C22.8859 50.0233 22.5722 50.1676 22.2293 50.2373C21.8864 50.307 21.5098 50.2897 21.0996 50.1855C20.6921 50.0769 20.2523 49.8697 19.7801 49.5641L15.2022 46.6011L15.9875 45.3878L20.5785 48.3593C20.8977 48.5658 21.1849 48.7021 21.4401 48.768C21.6937 48.8266 21.9213 48.8344 22.123 48.7912C22.3231 48.7408 22.4967 48.6547 22.6439 48.5328C22.7939 48.4065 22.9226 48.2603 23.0302 48.0941C23.3641 47.5782 23.5303 47.1057 23.5288 46.6766C23.523 46.2448 23.3941 45.8543 23.1424 45.5052C22.8891 45.1489 22.5547 44.8363 22.1393 44.5675Z" fill="#00163A"/>
<path d="M30.8575 37.5777C31.0893 37.3239 31.2516 37.0419 31.3445 36.7317C31.4374 36.4215 31.4567 36.1146 31.4024 35.8111C31.3443 35.504 31.2067 35.2338 30.9897 35.0003L31.917 33.985C32.2686 34.3415 32.4986 34.7808 32.6071 35.3031C32.7152 35.8181 32.6987 36.3497 32.5576 36.898C32.4126 37.4428 32.1382 37.9363 31.7342 38.3785C31.3057 38.8477 30.8489 39.1817 30.3639 39.3806C29.8824 39.5757 29.3921 39.6569 28.8929 39.6241C28.3973 39.5876 27.9102 39.4566 27.4318 39.2313C26.9531 38.9985 26.5042 38.6907 26.085 38.3079L25.8427 38.0866C25.4236 37.7037 25.0784 37.2861 24.8072 36.8339C24.5358 36.3743 24.3594 35.8993 24.2783 35.409C24.2006 34.9148 24.2372 34.4191 24.3879 33.922C24.5422 33.421 24.8337 32.9359 25.2622 32.4668C25.7083 31.9784 26.1982 31.6429 26.7319 31.4602C27.2617 31.274 27.7926 31.2334 28.3245 31.3384C28.8561 31.436 29.346 31.6719 29.7943 32.0461L28.867 33.0613C28.5917 32.8452 28.2923 32.7057 27.9688 32.643C27.6487 32.5763 27.3288 32.5945 27.009 32.6974C26.6889 32.793 26.3989 32.9831 26.139 33.2677C25.8404 33.5945 25.6546 33.9292 25.5816 34.2717C25.5083 34.6068 25.5215 34.9398 25.6213 35.2708C25.7207 35.5944 25.8768 35.9062 26.0894 36.2063C26.3018 36.499 26.5444 36.77 26.8175 37.0194L27.0597 37.2407C27.3328 37.4901 27.6266 37.7091 27.9411 37.8976C28.2556 38.0862 28.5785 38.2153 28.9098 38.2851C29.2445 38.3511 29.5774 38.3342 29.9084 38.2344C30.239 38.1273 30.5554 37.9084 30.8575 37.5777Z" fill="#00163A"/>
<path d="M40.6728 27.7693L37.984 24.3478C37.778 24.0858 37.5462 23.9003 37.2884 23.7915C37.0316 23.6754 36.7569 23.6462 36.4644 23.7038C36.1718 23.7615 35.872 23.911 35.5649 24.1524C35.2782 24.3777 35.065 24.6247 34.9252 24.8936C34.7895 25.1592 34.723 25.4201 34.7256 25.6764C34.7324 25.9294 34.8082 26.1481 34.953 26.3324L33.8166 27.2254C33.6299 26.9879 33.5063 26.7042 33.4457 26.3742C33.3851 26.0442 33.3955 25.695 33.4768 25.3264C33.5589 24.9505 33.7183 24.5801 33.9549 24.2153C34.1924 23.8432 34.5119 23.4994 34.9132 23.184C35.3964 22.8043 35.8866 22.5515 36.3839 22.4256C36.8853 22.2966 37.3708 22.3159 37.8403 22.4834C38.3107 22.6437 38.7406 22.9716 39.13 23.4671L41.563 26.563C41.7368 26.7841 41.9402 27.0051 42.1734 27.2259C42.4107 27.4435 42.639 27.6119 42.8584 27.7309L42.9357 27.8292L41.7501 28.7609C41.5898 28.6749 41.408 28.5362 41.2047 28.3449C40.9981 28.1496 40.8208 27.9577 40.6728 27.7693ZM38.5957 24.7216L39.2355 25.5105L38.0868 26.4132C37.7633 26.6675 37.4955 26.921 37.2835 27.1737C37.0682 27.4224 36.9148 27.6655 36.8233 27.9031C36.7317 28.1406 36.7021 28.3726 36.7343 28.599C36.7632 28.8213 36.8582 29.0349 37.0191 29.2396C37.1832 29.4485 37.38 29.6019 37.6093 29.6998C37.8387 29.7978 38.0878 29.824 38.3566 29.7783C38.6263 29.7253 38.9004 29.5894 39.1789 29.3706C39.5269 29.0971 39.7761 28.782 39.9265 28.4254C40.0768 28.0688 40.1461 27.7228 40.1344 27.3876C40.1267 27.0491 40.0502 26.7748 39.9048 26.5644L40.8197 26.7298C40.9262 26.9243 40.998 27.1759 41.0352 27.4845C41.0724 27.7931 41.0601 28.1273 40.9984 28.4871C40.9376 28.8396 40.8117 29.1936 40.6207 29.549C40.4306 29.8972 40.1554 30.2128 39.795 30.496C39.3446 30.8501 38.8802 31.0726 38.4019 31.1636C37.9277 31.2514 37.4806 31.2219 37.0605 31.0751C36.6413 30.921 36.2869 30.6596 35.9972 30.2911C35.7173 29.9348 35.5407 29.5668 35.4675 29.1871C35.3911 28.8033 35.4132 28.4183 35.5337 28.0322C35.6509 27.642 35.8568 27.2549 36.1514 26.8711C36.4459 26.4873 36.8205 26.1167 37.275 25.7595L38.5957 24.7216Z" fill="#00163A"/>
<path d="M50.0267 21.9718C50.3283 21.8068 50.5732 21.5925 50.7615 21.3291C50.9498 21.0657 51.0674 20.7817 51.1144 20.4769C51.1588 20.1676 51.1162 19.8673 50.9864 19.5761L52.1926 18.9159C52.4098 19.367 52.4852 19.8571 52.4186 20.3864C52.3541 20.9086 52.1664 21.4062 51.8553 21.8793C51.5418 22.3478 51.1223 22.7259 50.5969 23.0135C50.0396 23.3186 49.4992 23.4867 48.976 23.5178C48.4573 23.5465 47.9671 23.4645 47.5054 23.2719C47.0483 23.0768 46.6299 22.7952 46.2502 22.4271C45.8726 22.0519 45.5476 21.6153 45.275 21.1173L45.1174 20.8295C44.8448 20.3315 44.6534 19.8247 44.5434 19.309C44.4353 18.7863 44.4223 18.2798 44.5043 17.7896C44.5908 17.2969 44.7859 16.8398 45.0895 16.4182C45.3978 15.9942 45.8305 15.6296 46.3879 15.3245C46.9681 15.0069 47.5403 14.8481 48.1043 14.8481C48.6659 14.8435 49.1813 14.977 49.6506 15.2485C50.122 15.513 50.5091 15.8948 50.8121 16.394L49.6059 17.0543C49.4155 16.7607 49.1774 16.5318 48.8916 16.3676C48.6104 16.2009 48.3018 16.1145 47.9659 16.1084C47.6321 16.0952 47.2962 16.1811 46.9581 16.3662C46.5698 16.5787 46.2856 16.8352 46.1057 17.1356C45.9278 17.4289 45.8325 17.7483 45.8197 18.0937C45.809 18.4321 45.8557 18.7777 45.9597 19.1304C46.0658 19.4761 46.2076 19.8111 46.3852 20.1355L46.5427 20.4233C46.7203 20.7477 46.9274 21.05 47.1639 21.3302C47.4004 21.6104 47.6641 21.8372 47.9549 22.0105C48.2503 22.1813 48.5707 22.2731 48.9161 22.2859C49.2636 22.2916 49.6338 22.1869 50.0267 21.9718ZM49.8604 23.3276L50.7719 22.8287L50.8885 23.2369C51.1784 23.1375 51.4783 23.1159 51.7881 23.1719C52.1024 23.2255 52.3684 23.451 52.5859 23.8485C52.7035 24.0632 52.7641 24.2824 52.7677 24.506C52.7785 24.7317 52.7308 24.9537 52.6247 25.1721C52.5211 25.3951 52.3579 25.6121 52.135 25.8232C51.9167 26.0318 51.6362 26.2298 51.2935 26.4174L50.8442 25.7104C51.0543 25.5954 51.2314 25.4687 51.3755 25.3305C51.5241 25.1898 51.6211 25.0417 51.6666 24.8861C51.7166 24.7281 51.6979 24.5691 51.6104 24.4092C51.5278 24.2585 51.424 24.1609 51.2988 24.1167C51.1736 24.0724 51.0163 24.0724 50.8268 24.1167C50.6444 24.1632 50.4203 24.2473 50.1544 24.369L49.8604 23.3276Z" fill="#00163A"/>
<path d="M62.4969 15.8787L61.0682 11.7684C60.9587 11.4535 60.7999 11.2027 60.5916 11.016C60.3865 10.8226 60.1363 10.7055 59.841 10.6648C59.5456 10.6241 59.2134 10.6679 58.8445 10.7961C58.5001 10.9158 58.2181 11.08 57.9984 11.2887C57.7836 11.4957 57.6357 11.7208 57.5548 11.964C57.4789 12.2054 57.4793 12.4368 57.5563 12.6582L56.1911 13.1327C56.0919 12.8474 56.0674 12.5389 56.1175 12.2072C56.1676 11.8754 56.2911 11.5485 56.4879 11.2265C56.688 10.8978 56.9593 10.5995 57.3017 10.3316C57.6474 10.057 58.0613 9.83597 58.5435 9.66839C59.124 9.46661 59.6698 9.38717 60.181 9.43006C60.6971 9.47123 61.1498 9.64746 61.5392 9.95874C61.9318 10.2634 62.2316 10.7134 62.4385 11.3086L63.7312 15.0279C63.8236 15.2935 63.944 15.5687 64.0926 15.8534C64.2461 16.1364 64.4072 16.3699 64.576 16.5539L64.617 16.672L63.1928 17.167C63.0692 17.0335 62.9424 16.8432 62.8124 16.5962C62.6807 16.3442 62.5755 16.105 62.4969 15.8787ZM61.5249 12.3209L61.8731 13.2751L60.4932 13.7548C60.1045 13.8899 59.7688 14.0424 59.486 14.2124C59.2015 14.3774 58.9773 14.5574 58.8134 14.7522C58.6496 14.947 58.546 15.1567 58.5028 15.3812C58.4578 15.6009 58.4781 15.8337 58.5636 16.0797C58.6508 16.3306 58.7869 16.5397 58.9718 16.707C59.1568 16.8743 59.3838 16.9801 59.6529 17.0244C59.9251 17.0621 60.2285 17.0228 60.5631 16.9065C60.9812 16.7612 61.3194 16.5444 61.5776 16.2561C61.8358 15.9679 62.014 15.6634 62.112 15.3426C62.2149 15.0201 62.2319 14.7357 62.1629 14.4895L62.9741 14.9437C63.0115 15.1622 62.9976 15.4235 62.9323 15.7274C62.867 16.0313 62.7466 16.3433 62.5711 16.6635C62.3989 16.977 62.1646 17.2707 61.8683 17.5446C61.5753 17.8119 61.2123 18.0208 60.7793 18.1713C60.2382 18.3594 59.7267 18.4186 59.2448 18.349C58.7679 18.2777 58.3547 18.1042 58.0053 17.8287C57.6591 17.5465 57.409 17.184 57.2551 16.7412C57.1063 16.3132 57.0592 15.9078 57.1136 15.525C57.1663 15.1372 57.3124 14.7804 57.552 14.4545C57.79 14.1237 58.1106 13.8247 58.5141 13.5577C58.9175 13.2906 59.3923 13.0622 59.9383 12.8724L61.5249 12.3209ZM59.3264 5.97206L60.2771 5.73262C60.4019 6.09175 60.44 6.4314 60.3914 6.75157C60.3428 7.07174 60.2236 7.34751 60.0338 7.57889C59.849 7.80855 59.6065 7.97554 59.3064 8.07985C59.0555 8.16706 58.8369 8.20444 58.6506 8.19199C58.4626 8.17463 58.2893 8.1439 58.1306 8.0998C57.9702 8.05079 57.8067 8.01664 57.6401 7.99736C57.4767 7.97144 57.2917 7.99439 57.085 8.06621C56.8784 8.13803 56.7311 8.27745 56.6432 8.48446C56.5601 8.68977 56.5588 8.90804 56.6392 9.13926L55.7014 9.4156C55.5765 9.05647 55.536 8.71767 55.5797 8.39921C55.6266 8.07413 55.7441 7.79343 55.9321 7.55714C56.1185 7.31592 56.3592 7.14401 56.6544 7.04141C56.8659 6.96789 57.0633 6.94066 57.2463 6.95973C57.4326 6.97218 57.6133 7.00035 57.7885 7.04423C57.962 7.08319 58.1378 7.11307 58.3159 7.13385C58.4924 7.14972 58.679 7.12345 58.8758 7.05505C59.0824 6.98323 59.2297 6.84382 59.3176 6.6368C59.4039 6.42486 59.4068 6.20328 59.3264 5.97206Z" fill="#00163A"/>
<path d="M69.0464 10.9841L69.0173 10.8068C68.9187 10.2054 68.9146 9.63347 69.0051 9.09084C69.0947 8.54308 69.2728 8.05206 69.5394 7.61778C69.8051 7.17836 70.1546 6.81494 70.5877 6.52752C71.02 6.23496 71.5266 6.04106 72.1074 5.94582C72.6933 5.84974 73.2378 5.87129 73.7409 6.01046C74.2483 6.14365 74.6981 6.37601 75.0903 6.70755C75.4867 7.0331 75.8149 7.44111 76.0747 7.93156C76.3338 8.41687 76.5126 8.9602 76.6112 9.56155L76.6403 9.73887C76.7389 10.3402 76.7429 10.9122 76.6525 11.4548C76.562 11.9974 76.3813 12.4889 76.1105 12.9291C75.8439 13.3634 75.4945 13.7268 75.0621 14.0194C74.6341 14.306 74.1272 14.4973 73.5412 14.5934C72.9553 14.6895 72.4112 14.6705 71.9089 14.5365C71.4058 14.3973 70.9561 14.1649 70.5596 13.8394C70.1675 13.5078 69.8419 13.0994 69.5828 12.6141C69.3238 12.1288 69.145 11.5855 69.0464 10.9841ZM70.4436 10.5729L70.4726 10.7502C70.5409 11.1665 70.6542 11.5517 70.8125 11.9058C70.97 12.2547 71.1696 12.5545 71.4113 12.8051C71.6581 13.0549 71.944 13.2376 72.2691 13.3532C72.5933 13.4637 72.9533 13.4864 73.3491 13.4215C73.7397 13.3575 74.0684 13.2218 74.3352 13.0144C74.6064 12.8011 74.8164 12.537 74.9654 12.2223C75.1143 11.9076 75.2077 11.5598 75.2455 11.1789C75.2876 10.7919 75.2746 10.3903 75.2063 9.97401L75.1772 9.79669C75.1098 9.38551 74.9948 9.0059 74.8321 8.65783C74.6738 8.30379 74.4712 8.00186 74.2244 7.75205C73.9819 7.49625 73.6981 7.31056 73.3731 7.19497C73.0531 7.07854 72.6953 7.05278 72.2995 7.11767C71.9089 7.18172 71.578 7.32043 71.3069 7.53378C71.0409 7.74629 70.8313 8.01289 70.678 8.33358C70.5291 8.64829 70.4361 8.99868 70.3991 9.38475C70.3613 9.76569 70.3761 10.1617 70.4436 10.5729Z" fill="#00163A"/>
</svg>
