<svg width="507" height="214" viewBox="0 0 507 214" fill="none" xmlns="http://www.w3.org/2000/svg">
<path d="M14.6929 212.677C11.09 213.598 8.41406 213.517 6.66521 212.432C4.99174 211.392 3.84092 209.644 3.21275 207.188C0.546866 196.764 -0.28232 185.392 0.725191 173.072C1.77743 160.676 4.41332 147.843 8.63285 134.573C9.32824 132.289 10.0203 130.868 10.709 130.309C11.3977 129.75 12.2225 129.347 13.1833 129.101C14.5644 128.748 15.888 128.92 17.1539 129.618C18.48 130.3 19.3422 131.42 19.7405 132.977C19.8631 133.456 19.6897 134.905 19.2205 137.323C18.7512 139.74 18.1048 142.842 17.2814 146.626C16.5181 150.396 15.7195 154.653 14.8857 159.398C14.0366 164.083 13.2789 168.999 12.6124 174.148C12.0059 179.282 11.6474 184.384 11.5367 189.454C12.9195 186.356 14.5573 183.129 16.45 179.773C18.3874 176.341 20.4761 173.126 22.7162 170.128C24.941 167.07 27.1983 164.514 29.4881 162.46C31.7626 160.347 33.9507 159.021 36.0524 158.484C38.034 157.977 39.9881 157.988 41.9147 158.516C43.9012 159.03 45.6954 160.166 47.2972 161.927C48.899 163.687 50.1136 166.185 50.941 169.42C51.8449 172.954 51.751 176.84 50.6592 181.076C49.6275 185.297 47.5961 189.486 44.5649 193.644C41.5938 197.787 37.5988 201.553 32.5799 204.943C27.621 208.317 21.6587 210.895 14.6929 212.677ZM15.8561 201.465C20.388 199.923 24.3086 197.868 27.618 195.298C30.9875 192.713 33.7169 189.877 35.8063 186.789C37.8956 183.702 39.3239 180.656 40.0909 177.652C40.8426 174.587 40.9121 171.857 40.2992 169.461C40.1613 168.922 39.9423 168.69 39.642 168.767C38.381 169.09 36.9352 170.066 35.3048 171.695C33.659 173.265 31.9326 175.27 30.1257 177.711C28.3187 180.152 26.5278 182.78 24.7527 185.595C22.9777 188.411 21.3227 191.196 19.7879 193.95C18.253 196.704 16.9425 199.209 15.8561 201.465Z" fill="#B0D9EC"/>
<path d="M79.8463 196.205C75.5828 197.296 71.777 196.673 68.4288 194.339C65.0653 191.944 62.7324 188.2 61.4301 183.108C61.0164 181.491 60.8052 179.79 60.7966 178.005C60.848 176.204 61.0201 174.501 61.3129 172.894C60.8148 172.447 60.3383 171.835 59.8836 171.058C59.4736 170.205 59.1154 169.18 58.809 167.982C57.8131 164.088 57.5921 160.347 58.1459 156.759C58.6844 153.111 59.8182 149.789 61.5472 146.794C63.2763 143.799 65.3835 141.281 67.8687 139.241C70.354 137.202 73.0378 135.813 75.9202 135.076C80.8442 133.817 85.2889 134.435 89.2541 136.931C93.2794 139.412 96.1807 144.127 97.9579 151.076C98.8466 154.551 99.2101 158.224 99.0484 162.095C98.8868 165.965 98.2966 169.786 97.2777 173.557C96.3036 177.253 94.9449 180.696 93.2018 183.886C91.5186 187.061 89.5175 189.743 87.1983 191.932C84.9391 194.105 82.4885 195.53 79.8463 196.205ZM70.6373 166.201C71.1061 166.784 71.4554 167.524 71.6852 168.423C71.915 169.321 71.9723 170.296 71.8572 171.346C71.742 172.397 71.7111 173.777 71.7645 175.487C71.8025 177.137 72.1969 179.429 72.9477 182.365C73.1469 183.143 73.4055 183.779 73.7235 184.272C74.0863 184.69 74.658 184.799 75.4386 184.6C77.4803 184.077 79.2333 182.927 80.6978 181.148C82.2222 179.354 83.4293 177.195 84.3189 174.669C85.2686 172.129 85.9168 169.41 86.2635 166.513C86.6549 163.541 86.7685 160.608 86.6041 157.714C86.4845 154.745 86.1183 152.062 85.5055 149.666C85.1071 148.108 84.5311 147.107 83.7774 146.661C83.0237 146.216 81.8962 146.185 80.395 146.569C78.3533 147.091 76.4201 148.287 74.5954 150.158C72.8154 151.954 71.4882 154.144 70.6139 156.729C69.7243 159.255 69.6319 161.895 70.3367 164.651C70.4746 165.19 70.5748 165.707 70.6373 166.201Z" fill="#B0D9EC"/>
<path d="M124.258 185.326C122.336 185.817 120.457 185.723 118.62 185.044C116.798 184.425 115.223 183.392 113.893 181.945C112.548 180.438 111.622 178.696 111.117 176.719C110.167 173.005 110.051 169.174 110.768 165.224C111.545 161.26 112.879 157.345 114.769 153.478C116.66 149.612 118.859 145.954 121.367 142.504C123.921 138.979 126.544 135.851 129.236 133.12C131.988 130.374 134.548 128.124 136.914 126.37C139.34 124.6 141.304 123.524 142.806 123.14C144.547 122.694 146.058 122.723 147.338 123.225C148.663 123.652 149.524 124.645 149.922 126.202C150.045 126.681 150.025 127.102 149.861 127.462C150.688 127.443 151.433 127.731 152.097 128.327C152.761 128.923 153.277 129.94 153.645 131.377C153.798 131.976 154.047 133.572 154.39 136.165C154.733 138.758 155.184 141.898 155.743 145.584C156.362 149.255 157.17 153.038 158.166 156.932C158.319 157.531 158.547 158.047 158.849 158.48C159.137 158.854 159.581 158.963 160.181 158.81C162.583 158.195 164.893 157.094 167.11 155.506C169.371 153.843 171.489 151.993 173.463 149.956C175.482 147.844 177.269 145.823 178.823 143.894C180.421 141.89 181.758 140.239 182.834 138.943C183.955 137.571 184.726 136.832 185.146 136.724C187.188 136.202 188.469 136.959 188.99 138.996C189.128 139.535 188.758 140.842 187.881 142.918C187.049 144.917 185.806 147.31 184.151 150.095C182.481 152.819 180.54 155.613 178.33 158.477C176.164 161.264 173.786 163.723 171.196 165.854C168.666 167.969 166.049 169.372 163.347 170.063C160.044 170.908 157.323 170.774 155.183 169.662C153.104 168.534 151.366 166.745 149.972 164.293C148.622 161.766 147.488 158.833 146.57 155.494C144.626 160.65 142.439 165.358 140.009 169.617C137.625 173.801 135.094 177.289 132.417 180.08C129.74 182.871 127.02 184.619 124.258 185.326ZM144.63 132.151C139.466 136.472 135.009 141.058 131.259 145.91C127.495 150.703 124.737 155.429 122.986 160.089C121.295 164.734 120.917 168.884 121.851 172.538C122.112 173.556 122.722 173.943 123.683 173.697C124.824 173.405 126.157 172.362 127.681 170.568C129.266 168.759 130.893 166.492 132.563 163.767C134.218 160.982 135.812 157.958 137.344 154.694C138.861 151.37 140.213 148.024 141.399 144.657C142.585 141.29 143.412 138.143 143.879 135.215C144.054 134.149 144.304 133.128 144.63 132.151Z" fill="#B0D9EC"/>
<path d="M240.828 156.757C238.246 157.418 236.322 157.527 235.057 157.084C233.853 156.627 233.074 155.709 232.722 154.331C232.415 153.133 232.575 152.007 233.201 150.953C233.812 149.84 235.444 148.465 238.097 146.829C241.199 144.951 244.083 142.968 246.748 140.883C249.458 138.722 251.567 136.587 253.075 134.478C254.643 132.353 255.197 130.393 254.738 128.595C254.431 127.397 253.789 126.636 252.81 126.312C251.892 125.972 250.892 125.941 249.811 126.217C248.91 126.448 247.627 126.935 245.963 127.68C244.343 128.35 242.565 129.156 240.631 130.097C238.681 130.979 236.784 131.815 234.939 132.606C233.139 133.322 231.578 133.848 230.257 134.186C227.134 134.985 224.646 134.887 222.792 133.893C220.924 132.84 219.706 131.204 219.139 128.988C218.832 127.79 219.042 125.981 219.766 123.562C220.491 121.143 221.583 118.406 223.041 115.352C224.499 112.299 226.198 109.184 228.136 106.007C230.075 102.831 232.097 99.8565 234.203 97.084C236.354 94.2363 238.469 91.8763 240.549 90.0039C242.614 88.0717 244.487 86.8905 246.169 86.4605C248.09 85.9691 249.775 86.1765 251.222 87.0829C252.73 87.9738 253.744 89.4377 254.265 91.4745C254.51 92.433 254.688 93.5044 254.799 94.6887C254.894 95.8131 254.697 96.9168 254.206 97.9997C253.7 99.0226 252.742 99.9058 251.333 100.649C249.924 101.393 247.867 101.855 245.162 102.036C243.503 104.056 241.793 106.248 240.031 108.614C238.313 110.904 236.739 113.253 235.308 115.662C233.861 118.01 232.737 120.244 231.936 122.364C233.974 121.077 236.35 119.863 239.065 118.722C241.765 117.521 244.556 116.552 247.438 115.814C250.921 114.924 253.904 114.831 256.388 115.536C258.916 116.166 260.951 117.369 262.493 119.144C264.095 120.905 265.21 123.013 265.838 125.469C266.543 128.225 266.347 131.211 265.25 134.427C264.153 137.644 262.395 140.774 259.975 143.819C257.554 146.863 254.689 149.542 251.378 151.857C248.068 154.172 244.551 155.805 240.828 156.757Z" fill="#B0D9EC"/>
<path d="M294.916 141.201C290.652 142.291 286.846 141.669 283.498 139.334C280.135 136.939 277.802 133.196 276.5 128.104C276.086 126.486 275.875 124.785 275.866 123C275.918 121.2 276.09 119.497 276.382 117.89C275.884 117.443 275.408 116.831 274.953 116.053C274.543 115.201 274.185 114.176 273.879 112.978C272.883 109.084 272.662 105.343 273.215 101.754C273.754 98.1063 274.888 94.7846 276.617 91.7894C278.346 88.7942 280.453 86.2767 282.938 84.237C285.424 82.1972 288.107 80.8088 290.99 80.0716C295.914 78.8122 300.358 79.4307 304.324 81.927C308.349 84.4078 311.25 89.1229 313.027 96.072C313.916 99.5466 314.28 103.219 314.118 107.09C313.956 110.961 313.366 114.782 312.347 118.553C311.373 122.248 310.014 125.691 308.271 128.882C306.588 132.057 304.587 134.739 302.268 136.927C300.009 139.101 297.558 140.525 294.916 141.201ZM285.707 111.197C286.176 111.779 286.525 112.52 286.755 113.418C286.985 114.317 287.042 115.291 286.927 116.342C286.812 117.393 286.781 118.773 286.834 120.482C286.872 122.132 287.267 124.425 288.017 127.36C288.216 128.139 288.475 128.775 288.793 129.268C289.156 129.686 289.728 129.795 290.508 129.595C292.55 129.073 294.303 127.923 295.767 126.144C297.292 124.35 298.499 122.19 299.388 119.665C300.338 117.124 300.986 114.406 301.333 111.509C301.724 108.537 301.838 105.603 301.674 102.71C301.554 99.7403 301.188 97.0576 300.575 94.6614C300.177 93.1038 299.601 92.1023 298.847 91.6568C298.093 91.2113 296.966 91.1805 295.465 91.5645C293.423 92.0866 291.49 93.2831 289.665 95.1539C287.885 96.9495 286.558 99.1398 285.684 101.725C284.794 104.25 284.701 106.891 285.406 109.646C285.544 110.186 285.644 110.702 285.707 111.197Z" fill="#B0D9EC"/>
<path d="M336.968 131.499C335.467 131.883 334.038 131.674 332.681 130.872C331.384 130.055 330.476 128.628 329.955 126.591C329.725 125.693 329.47 124.194 329.189 122.096C328.953 119.922 328.7 117.434 328.431 114.631C328.222 111.812 327.953 108.881 327.622 105.838C327.352 102.78 327.03 99.8946 326.656 97.1819C326.342 94.4539 326.008 92.146 325.653 90.2582C325.191 87.951 325.378 86.18 326.213 84.945C327.034 83.6502 328.195 82.8108 329.696 82.4268C330.897 82.1197 332.054 82.1428 333.168 82.4961C334.327 82.7742 335.256 83.7811 335.956 85.5169C336.701 87.1774 337.374 89.6858 337.977 93.0421C339.393 87.5738 340.97 82.6071 342.707 78.1419C344.504 73.6613 346.62 69.9288 349.056 66.9444C353.075 61.8956 357.096 58.8567 361.119 57.8277C363.401 57.2441 365.032 57.3694 366.013 58.2035C366.995 59.0376 367.623 59.9938 367.899 61.0722C368.083 61.791 368.071 62.4961 367.864 63.1873C367.717 63.8631 367.217 64.6611 366.365 65.5811C365.513 66.5012 364.173 67.7691 362.347 69.385C359.893 71.5446 357.583 74.1457 355.418 77.1885C353.314 80.216 351.378 83.9024 349.61 88.2478C347.842 92.5932 346.259 97.785 344.86 103.823C343.462 109.861 342.233 116.941 341.176 125.062C341.156 127.237 340.72 128.784 339.868 129.704C339.076 130.609 338.109 131.207 336.968 131.499Z" fill="#B0D9EC"/>
<path d="M429.291 55.4233C429.475 56.1422 429.396 56.8326 429.053 57.4947C428.711 58.1567 428.218 58.7296 427.574 59.2134C426.66 59.8939 425.026 60.8861 422.673 62.1901C420.319 63.4941 417.448 65.0261 414.06 66.7863C410.732 68.5311 407.141 70.3749 403.287 72.3179C399.418 74.2009 395.542 76.0539 391.657 77.8771C391.567 84.0274 391.492 90.3651 391.434 96.8902C391.36 103.355 391.263 109.731 391.143 116.016C391.079 118.267 390.764 120.038 390.199 121.332C389.65 122.685 388.354 123.623 386.313 124.145C384.091 124.713 382.406 124.378 381.257 123.14C380.184 121.946 379.612 120.082 379.539 117.548C379.431 110.619 379.317 104.17 379.197 98.2007C379.138 92.2162 379.085 87.3792 379.037 83.6897C375.587 85.2102 372.557 86.4957 369.947 87.5462C367.321 88.5369 365.43 89.1481 364.274 89.38C362.982 89.5827 361.801 89.3423 360.731 88.6587C359.66 87.9751 358.987 86.9667 358.71 85.6334C358.523 84.4045 358.803 83.2479 359.549 82.1635C360.28 81.0192 361.284 80.1882 362.559 79.6706C364.374 79.0148 366.707 78.1309 369.558 77.0189C372.408 75.907 375.544 74.6583 378.964 73.273C378.963 70.0181 379.06 66.6426 379.253 63.1466C379.431 59.5906 379.678 56.1768 379.993 52.905C380.352 49.558 380.751 46.6157 381.19 44.0782C381.629 41.5407 382.138 39.6552 382.718 38.4218C383.18 37.4741 383.837 36.6677 384.691 36.0026C385.604 35.3222 386.541 34.8591 387.502 34.6134C388.763 34.2909 389.899 34.4791 390.909 35.178C391.92 35.877 392.578 36.8255 392.885 38.0236C393.007 38.5029 393.107 39.0198 393.185 39.5743C393.248 40.0689 393.25 40.5789 393.193 41.1042C392.818 44.3913 392.514 48.3305 392.281 52.9217C392.107 57.4976 391.981 62.5082 391.902 67.9534C396.238 66.1426 400.483 64.3549 404.638 62.5902C408.837 60.7502 412.632 59.0776 416.022 57.5724C419.456 55.992 422.193 54.6857 424.232 53.6536C425.326 52.9271 426.37 52.7558 427.364 53.1399C428.342 53.464 428.985 54.2252 429.291 55.4233Z" fill="#B0D9EC"/>
<path d="M443.63 103.263C439.907 104.215 436.575 103.695 433.634 101.703C430.678 99.6502 428.457 95.7186 426.971 89.9077C426.021 86.1935 425.492 82.3718 425.383 78.4426C425.318 74.4381 425.637 70.5588 426.341 66.8048C427.089 62.9755 428.177 59.4741 429.604 56.3007C431.092 53.1119 432.935 50.4385 435.134 48.2805C437.318 46.0625 439.791 44.6003 442.553 43.8939C447.237 42.696 451.222 43.0172 454.508 44.8575C457.793 46.6978 459.934 49.565 460.93 53.4589C461.696 56.4542 461.552 59.395 460.499 62.2811C459.491 65.0921 457.82 67.8169 455.488 70.4557C453.156 73.0946 450.448 75.6381 447.364 78.0865C444.279 80.5348 441.066 82.8564 437.725 85.0512C437.976 87.2846 438.316 89.24 438.745 90.9174C439.006 91.9358 439.707 92.2991 440.847 92.0073C443.55 91.3162 446.325 90.1597 449.173 88.5378C452.066 86.8406 454.927 84.8961 457.757 82.7043C460.572 80.4526 463.259 78.2016 465.819 75.9514C468.363 73.6413 470.66 71.4902 472.709 69.498C474.804 67.4306 476.524 65.7779 477.871 64.5399C479.262 63.2267 480.198 62.5086 480.679 62.3857C482 62.0479 483.06 62.1915 483.86 62.8167C484.66 63.442 485.174 64.2038 485.404 65.1024C485.511 65.5218 484.938 66.6577 483.685 68.5101C482.491 70.3471 480.766 72.6073 478.509 75.2907C476.297 77.8988 473.748 80.6889 470.861 83.6611C468.02 86.5579 465.005 89.4033 461.817 92.1972C458.673 94.9159 455.528 97.2521 452.381 99.2058C449.309 101.204 446.392 102.556 443.63 103.263ZM437.211 76.6621C439.305 74.5947 441.354 72.475 443.358 70.3031C445.406 68.056 446.988 65.7366 448.104 63.3451C449.204 60.8936 449.41 58.32 448.72 55.6242C448.521 54.8454 448.181 54.3899 447.699 54.2578C447.202 54.0658 446.563 54.0696 445.783 54.2692C443.681 54.8067 441.997 56.2267 440.73 58.5292C439.524 60.8163 438.636 63.5965 438.065 66.8698C437.54 70.0678 437.255 73.3319 437.211 76.6621Z" fill="#B0D9EC"/>
<path d="M496.515 64.6542C495.675 64.8692 494.84 64.7317 494.011 64.2416C493.226 63.6763 492.597 62.4652 492.122 60.6081C491.785 59.2901 491.496 57.1619 491.257 54.2234C491.017 51.285 490.85 47.8811 490.756 44.0118C490.707 40.0672 490.74 35.9422 490.854 31.6367C490.953 27.2712 491.165 22.9726 491.49 18.7408C491.8 14.4491 492.24 10.5391 492.809 7.01085C493.071 5.28434 493.793 3.85508 494.975 2.72306C496.202 1.51579 497.656 0.697151 499.337 0.267141C501.079 -0.178233 502.547 0.307974 503.741 1.72579C504.935 3.14362 505.778 4.81104 506.268 6.72805C506.452 7.44693 506.436 8.88699 506.221 11.0482C506.066 13.194 505.778 15.8207 505.357 18.9281C504.937 22.0355 504.457 25.4132 503.918 29.0613C503.425 32.6341 502.916 36.2745 502.393 39.9825C501.915 43.6152 501.488 47.0751 501.113 50.3623C500.738 53.6494 500.482 56.5233 500.343 58.984C500.277 60.7244 499.907 62.0316 499.235 62.9055C498.623 63.7642 497.716 64.3471 496.515 64.6542ZM498.243 90.923C497.523 91.1073 496.636 91.1425 495.583 91.0288C494.531 90.9151 493.468 90.2615 492.395 89.0679C491.397 87.9189 490.523 85.8767 489.772 82.9413C489.19 80.6648 489.466 78.7433 490.601 77.1765C491.736 75.6098 493.504 74.5193 495.906 73.905C497.948 73.3828 499.655 73.5527 501.027 74.4144C502.459 75.2609 503.443 76.7324 503.979 78.8292C504.469 80.7462 504.426 82.5764 503.848 84.3198C503.33 86.0478 502.518 87.5001 501.412 88.6766C500.38 89.8977 499.324 90.6465 498.243 90.923Z" fill="#B0D9EC"/>
</svg>
