<svg width="125" height="98" viewBox="0 0 125 98" fill="none" xmlns="http://www.w3.org/2000/svg">
<path d="M122.549 49.7897V96.2271H22.7638C11.3947 96.2271 2.14459 85.8109 2.14459 73.0084C2.14459 60.2059 11.3947 49.7897 22.7638 49.7897H122.549Z" fill="#F2F2F2"/>
<path d="M125 95.8706C125 96.3443 124.838 96.7985 124.551 97.1334C124.264 97.4683 123.874 97.6565 123.468 97.6567H20.9865C15.4205 97.6567 10.0826 95.0787 6.14681 90.4899C2.21108 85.9011 0 79.6773 0 73.1877C0 66.6981 2.21108 60.4744 6.14681 55.8855C10.0826 51.2967 15.4205 48.7188 20.9865 48.7188H123.468C123.874 48.7188 124.264 48.9069 124.551 49.2419C124.839 49.5768 125 50.0311 125 50.5048C125 50.9785 124.839 51.4328 124.551 51.7677C124.264 52.1027 123.874 52.2909 123.468 52.2909H20.9865C16.2331 52.2909 11.6744 54.4925 8.31319 58.4114C4.95201 62.3303 3.06373 67.6455 3.06373 73.1877C3.06373 78.7299 4.95201 84.0451 8.31319 87.964C11.6744 91.8829 16.2331 94.0846 20.9865 94.0846H123.468C123.874 94.0848 124.264 94.273 124.551 94.6079C124.838 94.9428 125 95.397 125 95.8706Z" fill="#0085C1"/>
<path d="M122.549 60.5062H15.3186C15.2373 60.5062 15.1594 60.4685 15.1019 60.4015C15.0445 60.3346 15.0122 60.2437 15.0122 60.149C15.0122 60.0542 15.0445 59.9634 15.1019 59.8964C15.1594 59.8294 15.2373 59.7917 15.3186 59.7917H122.549C122.63 59.7917 122.708 59.8294 122.766 59.8964C122.823 59.9634 122.855 60.0542 122.855 60.149C122.855 60.2437 122.823 60.3346 122.766 60.4015C122.708 60.4685 122.63 60.5062 122.549 60.5062Z" fill="#CCCCCC"/>
<path d="M122.549 69.0795H15.3186C15.2373 69.0795 15.1594 69.0419 15.1019 68.9749C15.0445 68.9079 15.0122 68.8171 15.0122 68.7223C15.0122 68.6276 15.0445 68.5367 15.1019 68.4697C15.1594 68.4028 15.2373 68.3651 15.3186 68.3651H122.549C122.63 68.3651 122.708 68.4028 122.766 68.4697C122.823 68.5367 122.855 68.6276 122.855 68.7223C122.855 68.8171 122.823 68.9079 122.766 68.9749C122.708 69.0419 122.63 69.0795 122.549 69.0795Z" fill="#CCCCCC"/>
<path d="M122.549 77.6525H15.3186C15.2373 77.6525 15.1594 77.6149 15.1019 77.5479C15.0445 77.4809 15.0122 77.3901 15.0122 77.2953C15.0122 77.2006 15.0445 77.1097 15.1019 77.0427C15.1594 76.9758 15.2373 76.9381 15.3186 76.9381H122.549C122.63 76.9381 122.708 76.9758 122.766 77.0427C122.823 77.1097 122.855 77.2006 122.855 77.2953C122.855 77.3901 122.823 77.4809 122.766 77.5479C122.708 77.6149 122.63 77.6525 122.549 77.6525Z" fill="#CCCCCC"/>
<path d="M122.549 86.2255H15.3186C15.2373 86.2255 15.1594 86.1879 15.1019 86.1209C15.0445 86.0539 15.0122 85.9631 15.0122 85.8683C15.0122 85.7736 15.0445 85.6827 15.1019 85.6157C15.1594 85.5487 15.2373 85.5111 15.3186 85.5111H122.549C122.63 85.5111 122.708 85.5487 122.766 85.6157C122.823 85.6827 122.855 85.7736 122.855 85.8683C122.855 85.9631 122.823 86.0539 122.766 86.1209C122.708 86.1879 122.63 86.2255 122.549 86.2255Z" fill="#CCCCCC"/>
<path d="M122.549 1.41467V47.8521H22.7638C11.3947 47.8521 2.14459 37.4359 2.14459 24.6334C2.14459 11.8309 11.3947 1.41467 22.7638 1.41467H122.549Z" fill="#F2F2F2"/>
<path d="M125 47.4949C125 47.9685 124.838 48.4227 124.551 48.7576C124.264 49.0925 123.874 49.2808 123.468 49.281H20.9865C15.4205 49.281 10.0826 46.703 6.14681 42.1142C2.21108 37.5253 0 31.3016 0 24.812C0 18.3224 2.21108 12.0986 6.14681 7.50981C10.0826 2.92099 15.4205 0.343018 20.9865 0.343018H123.468C123.874 0.343018 124.264 0.531195 124.551 0.866145C124.839 1.2011 125 1.65538 125 2.12907C125 2.60277 124.839 3.05705 124.551 3.392C124.264 3.72695 123.874 3.91513 123.468 3.91513H20.9865C16.2331 3.91513 11.6744 6.11677 8.31319 10.0357C4.95201 13.9546 3.06373 19.2698 3.06373 24.812C3.06373 30.3542 4.95201 35.6694 8.31319 39.5883C11.6744 43.5072 16.2331 45.7088 20.9865 45.7088H123.468C123.874 45.709 124.264 45.8973 124.551 46.2322C124.838 46.5671 125 47.0213 125 47.4949Z" fill="#3F3D56"/>
<path d="M122.549 12.131H15.3186C15.2373 12.131 15.1594 12.0934 15.1019 12.0264C15.0445 11.9594 15.0122 11.8686 15.0122 11.7738C15.0122 11.6791 15.0445 11.5882 15.1019 11.5213C15.1594 11.4543 15.2373 11.4166 15.3186 11.4166H122.549C122.63 11.4166 122.708 11.4543 122.766 11.5213C122.823 11.5882 122.855 11.6791 122.855 11.7738C122.855 11.8686 122.823 11.9594 122.766 12.0264C122.708 12.0934 122.63 12.131 122.549 12.131Z" fill="#CCCCCC"/>
<path d="M122.549 20.7039H15.3186C15.2373 20.7039 15.1594 20.6663 15.1019 20.5993C15.0445 20.5323 15.0122 20.4415 15.0122 20.3467C15.0122 20.252 15.0445 20.1611 15.1019 20.0941C15.1594 20.0271 15.2373 19.9895 15.3186 19.9895H122.549C122.63 19.9895 122.708 20.0271 122.766 20.0941C122.823 20.1611 122.855 20.252 122.855 20.3467C122.855 20.4415 122.823 20.5323 122.766 20.5993C122.708 20.6663 122.63 20.7039 122.549 20.7039Z" fill="#CCCCCC"/>
<path d="M122.549 29.2769H15.3186C15.2373 29.2769 15.1594 29.2393 15.1019 29.1723C15.0445 29.1053 15.0122 29.0144 15.0122 28.9197C15.0122 28.825 15.0445 28.7341 15.1019 28.6671C15.1594 28.6001 15.2373 28.5625 15.3186 28.5625H122.549C122.63 28.5625 122.708 28.6001 122.766 28.6671C122.823 28.7341 122.855 28.825 122.855 28.9197C122.855 29.0144 122.823 29.1053 122.766 29.1723C122.708 29.2393 122.63 29.2769 122.549 29.2769Z" fill="#CCCCCC"/>
<path d="M122.549 37.8503H15.3186C15.2373 37.8503 15.1594 37.8126 15.1019 37.7457C15.0445 37.6787 15.0122 37.5878 15.0122 37.4931C15.0122 37.3983 15.0445 37.3075 15.1019 37.2405C15.1594 37.1735 15.2373 37.1359 15.3186 37.1359H122.549C122.63 37.1359 122.708 37.1735 122.766 37.2405C122.823 37.3075 122.855 37.3983 122.855 37.4931C122.855 37.5878 122.823 37.6787 122.766 37.7457C122.708 37.8126 122.63 37.8503 122.549 37.8503Z" fill="#CCCCCC"/>
</svg>
