<svg width="125" height="98" viewBox="0 0 125 98" fill="none" xmlns="http://www.w3.org/2000/svg">
<path d="M118.29 98.0002H6.71012C4.93111 97.998 3.22554 97.2251 1.96759 95.8511C0.709636 94.4771 0.00202968 92.6143 0 90.6712V17.7994C0.00202968 15.8563 0.709636 13.9934 1.96759 12.6194C3.22554 11.2454 4.93111 10.4726 6.71012 10.4703H118.29C120.069 10.4726 121.774 11.2454 123.032 12.6194C124.29 13.9934 124.998 15.8563 125 17.7994V90.6712C124.998 92.6143 124.29 94.4771 123.032 95.8511C121.774 97.2251 120.069 97.998 118.29 98.0002ZM6.71012 11.7267C5.23609 11.7286 3.82291 12.369 2.78061 13.5074C1.73831 14.6459 1.152 16.1894 1.15031 17.7994V90.6712C1.152 92.2812 1.73831 93.8247 2.78061 94.9631C3.82291 96.1016 5.23609 96.742 6.71012 96.7438H118.29C119.764 96.742 121.177 96.1016 122.219 94.9631C123.262 93.8247 123.848 92.2812 123.85 90.6712V17.7994C123.848 16.1894 123.262 14.6459 122.219 13.5074C121.177 12.369 119.764 11.7286 118.29 11.7267H6.71012Z" fill="#3F3D56"/>
<path d="M21.5 27.7362C20.4122 27.7362 19.3488 27.438 18.4444 26.8793C17.5399 26.3205 16.835 25.5264 16.4187 24.5972C16.0024 23.6681 15.8935 22.6457 16.1057 21.6593C16.3179 20.6729 16.8417 19.7669 17.6109 19.0557C18.3801 18.3446 19.3601 17.8603 20.427 17.6641C21.4939 17.4679 22.5998 17.5686 23.6048 17.9535C24.6098 18.3383 25.4687 18.9901 26.0731 19.8263C26.6774 20.6625 27 21.6456 27 22.6513C26.9984 23.9994 26.4184 25.2919 25.3873 26.2452C24.3562 27.1985 22.9582 27.7347 21.5 27.7362ZM21.5 18.7868C20.6733 18.7868 19.8651 19.0134 19.1777 19.4381C18.4903 19.8627 17.9546 20.4663 17.6382 21.1724C17.3218 21.8786 17.239 22.6556 17.4003 23.4052C17.5616 24.1549 17.9597 24.8435 18.5443 25.384C19.1289 25.9244 19.8737 26.2925 20.6845 26.4416C21.4954 26.5907 22.3358 26.5142 23.0996 26.2217C23.8634 25.9292 24.5162 25.4338 24.9755 24.7983C25.4348 24.1628 25.68 23.4156 25.68 22.6513C25.6787 21.6267 25.2379 20.6444 24.4543 19.92C23.6707 19.1955 22.6082 18.7879 21.5 18.7868Z" fill="#3F3D56"/>
<path d="M102.5 27.7362C101.412 27.7362 100.349 27.438 99.4444 26.8793C98.5399 26.3205 97.8349 25.5264 97.4187 24.5972C97.0024 23.6681 96.8935 22.6457 97.1057 21.6593C97.3179 20.6729 97.8417 19.7669 98.6109 19.0557C99.3801 18.3446 100.36 17.8603 101.427 17.6641C102.494 17.4679 103.6 17.5686 104.605 17.9535C105.61 18.3383 106.469 18.9901 107.073 19.8263C107.677 20.6625 108 21.6456 108 22.6513C107.998 23.9994 107.418 25.2919 106.387 26.2452C105.356 27.1985 103.958 27.7347 102.5 27.7362ZM102.5 18.7868C101.673 18.7868 100.865 19.0134 100.178 19.4381C99.4903 19.8627 98.9546 20.4663 98.6382 21.1724C98.3218 21.8786 98.239 22.6556 98.4003 23.4052C98.5616 24.1549 98.9597 24.8435 99.5443 25.384C100.129 25.9244 100.874 26.2925 101.685 26.4416C102.495 26.5907 103.336 26.5142 104.1 26.2217C104.863 25.9292 105.516 25.4338 105.976 24.7983C106.435 24.1628 106.68 23.4156 106.68 22.6513C106.679 21.6267 106.238 20.6444 105.454 19.92C104.671 19.1955 103.608 18.7879 102.5 18.7868Z" fill="#3F3D56"/>
<path d="M32.9755 59.4698H12.2699C11.4059 59.4687 10.5775 59.0933 9.96648 58.426C9.35548 57.7586 9.01177 56.8538 9.01074 55.91V42.5083C9.01177 41.5645 9.35548 40.6597 9.96648 39.9924C10.5775 39.325 11.4059 38.9496 12.2699 38.9485H32.9755C33.8395 38.9496 34.6679 39.325 35.2789 39.9924C35.8899 40.6597 36.2336 41.5645 36.2347 42.5083V55.91C36.2336 56.8538 35.8899 57.7586 35.2789 58.426C34.6679 59.0933 33.8395 59.4687 32.9755 59.4698Z" fill="#E6E6E6"/>
<path d="M72.8528 59.4698H52.1473C51.2832 59.4687 50.4548 59.0933 49.8438 58.426C49.2328 57.7586 48.8891 56.8538 48.8881 55.91V42.5083C48.8891 41.5645 49.2328 40.6597 49.8438 39.9924C50.4548 39.325 51.2832 38.9496 52.1473 38.9485H72.8528C73.7169 38.9496 74.5453 39.325 75.1563 39.9924C75.7672 40.6597 76.111 41.5645 76.112 42.5083V55.91C76.111 56.8538 75.7672 57.7586 75.1563 58.426C74.5453 59.0933 73.7169 59.4687 72.8528 59.4698Z" fill="#E6E6E6"/>
<path d="M92.0245 39.3673C91.2621 39.3682 90.5311 39.6994 89.992 40.2883C89.4528 40.8772 89.1496 41.6756 89.1487 42.5083V55.91C89.1496 56.7428 89.4528 57.5412 89.992 58.1301C90.5311 58.7189 91.2621 59.0502 92.0245 59.0511H112.73C113.492 59.0502 114.223 58.7189 114.763 58.1301C115.302 57.5412 115.605 56.7428 115.606 55.91V42.5083C115.605 41.6756 115.302 40.8772 114.763 40.2883C114.223 39.6994 113.492 39.3682 112.73 39.3673H92.0245Z" fill="#E6E6E6"/>
<path d="M33.1671 86.2738H12.4616C11.5975 86.2727 10.7691 85.8973 10.1581 85.2299C9.54713 84.5626 9.20342 83.6578 9.20239 82.714V69.3123C9.20342 68.3685 9.54713 67.4637 10.1581 66.7963C10.7691 66.129 11.5975 65.7536 12.4616 65.7524H33.1671C34.0312 65.7536 34.8596 66.129 35.4706 66.7963C36.0816 67.4637 36.4253 68.3685 36.4263 69.3123V82.714C36.4253 83.6578 36.0816 84.5626 35.4706 85.2299C34.8596 85.8973 34.0312 86.2727 33.1671 86.2738Z" fill="#E6E6E6"/>
<path d="M73.0445 86.2738H52.339C51.4749 86.2727 50.6465 85.8973 50.0355 85.2299C49.4245 84.5626 49.0808 83.6578 49.0798 82.714V69.3123C49.0808 68.3685 49.4245 67.4637 50.0355 66.7963C50.6465 66.129 51.4749 65.7536 52.339 65.7524H73.0445C73.9086 65.7536 74.737 66.129 75.348 66.7963C75.959 67.4637 76.3027 68.3685 76.3037 69.3123V82.714C76.3027 83.6578 75.959 84.5626 75.348 85.2299C74.737 85.8973 73.9086 86.2727 73.0445 86.2738Z" fill="#E6E6E6"/>
<path d="M112.922 86.2738H92.2162C91.3522 86.2727 90.5238 85.8973 89.9128 85.2299C89.3018 84.5626 88.9581 83.6578 88.957 82.714V69.3123C88.9581 68.3685 89.3018 67.4637 89.9128 66.7963C90.5238 66.129 91.3522 65.7536 92.2162 65.7524H112.922C113.786 65.7536 114.614 66.129 115.225 66.7963C115.836 67.4637 116.18 68.3685 116.181 69.3123V82.714C116.18 83.6578 115.836 84.5626 115.225 85.2299C114.614 85.8973 113.786 86.2727 112.922 86.2738Z" fill="#E6E6E6"/>
<path d="M21.6641 23.8718C21.3083 23.8713 20.9672 23.7167 20.7156 23.4419C20.464 23.1672 20.3225 22.7946 20.3221 22.406V1.46581C20.3221 1.07705 20.4635 0.704215 20.7151 0.429322C20.9668 0.154429 21.3082 0 21.6641 0C22.02 0 22.3614 0.154429 22.6131 0.429322C22.8647 0.704215 23.0061 1.07705 23.0061 1.46581V22.406C23.0057 22.7946 22.8642 23.1672 22.6126 23.4419C22.361 23.7167 22.0199 23.8713 21.6641 23.8718Z" fill="#3F3D56"/>
<path d="M102.569 23.8718C102.213 23.8713 101.872 23.7167 101.621 23.4419C101.369 23.1672 101.227 22.7946 101.227 22.406V1.46581C101.227 1.07705 101.368 0.704215 101.62 0.429322C101.872 0.154429 102.213 0 102.569 0C102.925 0 103.266 0.154429 103.518 0.429322C103.77 0.704215 103.911 1.07705 103.911 1.46581V22.406C103.911 22.7946 103.769 23.1672 103.517 23.4419C103.266 23.7167 102.925 23.8713 102.569 23.8718Z" fill="#3F3D56"/>
<path d="M21.84 54.6419C21.2754 54.643 20.7259 54.4435 20.2742 54.0736L20.2462 54.0506L14.3487 49.1231C13.7971 48.6612 13.4361 47.9788 13.345 47.2262C13.254 46.4735 13.4405 45.7122 13.8634 45.1097C14.2863 44.5072 14.911 44.1128 15.6001 44.0134C16.2892 43.914 16.9862 44.1176 17.5378 44.5796L21.3578 47.7791L30.3844 34.9165C30.5938 34.6183 30.8548 34.368 31.1527 34.18C31.4505 33.992 31.7794 33.8699 32.1204 33.8207C32.4615 33.7715 32.8081 33.7961 33.1404 33.8932C33.4728 33.9903 33.7843 34.158 34.0574 34.3866L34.0581 34.3872L34.0021 34.4722L34.0597 34.3872C34.6105 34.8496 34.9708 35.5318 35.0617 36.284C35.1525 37.0363 34.9664 37.7972 34.5442 38.3997L23.9269 53.5222C23.6812 53.8706 23.3654 54.1526 23.0039 54.3462C22.6424 54.5398 22.2449 54.6398 21.8423 54.6385L21.84 54.6419Z" fill="#0085C1"/>
<path d="M62.8676 81.0261C62.303 81.0271 61.7535 80.8276 61.3018 80.4577L61.2738 80.4348L55.3763 75.5072C54.8247 75.0453 54.4636 74.363 54.3726 73.6103C54.2816 72.8577 54.468 72.0963 54.8909 71.4938C55.3138 70.8913 55.9386 70.497 56.6277 70.3976C57.3167 70.2981 58.0138 70.5018 58.5654 70.9637L62.3853 74.1632L71.412 61.3006C71.6213 61.0024 71.8824 60.7522 72.1802 60.5641C72.4781 60.3761 72.807 60.254 73.148 60.2048C73.4891 60.1556 73.8357 60.1803 74.168 60.2774C74.5004 60.3745 74.8119 60.5421 75.0849 60.7707L75.0857 60.7714L75.0297 60.8563L75.0872 60.7714C75.6381 61.2337 75.9984 61.9159 76.0893 62.6682C76.1801 63.4204 75.994 64.1813 75.5718 64.7839L64.9544 79.9064C64.7088 80.2548 64.393 80.5367 64.0315 80.7303C63.67 80.9239 63.2725 81.024 62.8699 81.0227L62.8676 81.0261Z" fill="#0085C1"/>
<path d="M101.595 54.6419C101.03 54.643 100.48 54.4435 100.029 54.0736L100.001 54.0506L94.1033 49.1231C93.5517 48.6612 93.1906 47.9788 93.0996 47.2262C93.0086 46.4735 93.195 45.7122 93.6179 45.1097C94.0408 44.5072 94.6656 44.1128 95.3547 44.0134C96.0437 43.914 96.7408 44.1176 97.2924 44.5796L101.112 47.7791L110.139 34.9165C110.348 34.6183 110.609 34.368 110.907 34.18C111.205 33.992 111.534 33.8699 111.875 33.8207C112.216 33.7715 112.563 33.7961 112.895 33.8932C113.227 33.9903 113.539 34.158 113.812 34.3866L113.813 34.3872L113.757 34.4722L113.814 34.3872C114.365 34.8496 114.725 35.5318 114.816 36.284C114.907 37.0363 114.721 37.7972 114.299 38.3997L103.681 53.5222C103.436 53.8706 103.12 54.1526 102.758 54.3462C102.397 54.5398 101.999 54.6398 101.597 54.6385L101.595 54.6419Z" fill="#0085C1"/>
</svg>
