<svg width="73" height="59" viewBox="0 0 73 59" fill="none" xmlns="http://www.w3.org/2000/svg">
<path d="M68.4108 14.1742C69.607 16.0025 70.6613 18.1892 71.5742 20.7325C71.8924 21.6631 72.1764 22.646 72.4258 23.6811C72.5452 24.149 72.641 24.6413 72.7129 25.1571C72.7851 25.6729 72.8319 26.2008 72.8532 26.741C72.8745 27.2803 72.8699 27.8187 72.8395 28.3562C72.8091 28.8937 72.7536 29.4165 72.673 29.9262C72.5087 30.9838 72.4501 32.0711 72.4981 33.1879C72.5186 33.728 72.5133 34.2664 72.4817 34.8031C72.4501 35.3406 72.3931 35.8634 72.311 36.3713C72.2289 36.8801 72.1232 37.3611 71.9947 37.816C71.8658 38.2709 71.7167 38.6884 71.5475 39.0677C71.0229 40.3323 70.4411 41.4396 69.8024 42.3903C68.4891 44.296 67.1067 45.8851 65.6543 47.1567C63.2407 49.2982 60.7732 51.0377 58.2517 52.3755C55.5332 53.8715 52.7995 55.211 50.0278 56.1591C45.1763 57.8534 40.2982 58.4971 35.3935 58.09C31.9298 57.7856 28.4889 56.9245 25.0481 56.0286C24.0823 55.7677 23.1166 55.4893 22.1585 55.1588C19.8772 54.289 17.596 53.6454 15.3147 53.0365C12.7632 52.3964 10.2675 51.1613 7.82843 49.3312C6.13916 48.1526 4.53582 46.5296 3.01879 44.4604C2.50855 43.7106 2.0409 42.8408 1.61583 41.851C1.43903 41.4144 1.29037 40.9316 1.17022 40.4037C1.05046 39.8748 0.963007 39.319 0.908638 38.7371C0.717773 37.015 0.680893 35.2754 0.798377 33.5184C0.843242 33.0391 0.853507 32.5564 0.829554 32.0702C0.805221 31.5831 0.74819 31.1178 0.6577 30.6742C0.618158 30.4863 0.586221 30.2923 0.562648 30.0914C0.491929 29.6304 0.435278 29.1599 0.392315 28.6806C0.349731 28.2022 0.321216 27.7186 0.307148 27.2307C0.29308 26.7427 0.293461 26.2548 0.308289 25.7677C0.323117 25.2797 0.352013 24.797 0.395737 24.3177C0.43908 23.8394 0.496492 23.3697 0.567971 22.9087C0.63945 22.4477 0.724237 22.0006 0.82195 21.5657C0.920044 21.1317 1.0303 20.7142 1.15311 20.3141C1.27592 19.914 1.40975 19.5339 1.55499 19.1755C2.26104 17.3403 3.05567 15.7338 3.9389 14.3569C5.01793 12.6556 6.15779 11.2065 7.35887 10.0079C8.55995 8.80935 9.80019 7.88477 11.0792 7.23329C14.787 5.19015 18.5461 3.97244 22.3562 3.58017C22.6284 3.54537 22.8984 3.46709 23.166 3.34532C25.68 2.29374 28.2125 1.59008 30.7634 1.23434C33.3142 0.877724 35.865 0.870765 38.4162 1.21433C38.8382 1.26652 39.2641 1.28392 39.6899 1.21433C43.4604 1.0021 47.2245 1.26913 50.9821 2.01454C54.9971 2.77909 58.9094 4.66132 62.7191 7.65949C63.9905 8.62409 65.2057 9.87398 66.3653 11.4083C67.0459 12.3738 67.7264 13.2696 68.4108 14.1742ZM27.2609 54.8979C27.3901 55.037 27.5118 55.2371 27.6639 55.0544C27.7107 55.1345 27.7616 55.1971 27.8164 55.2441C27.8707 55.291 27.9274 55.3197 27.9856 55.3293C28.0437 55.3397 28.1015 55.331 28.1585 55.3032C28.216 55.2754 28.2699 55.2301 28.3217 55.1675C28.5209 55.3119 28.7235 55.4215 28.93 55.498C30.2303 55.7329 31.5344 55.9329 32.8385 56.1591C38.2865 57.0367 43.7132 56.5844 49.1191 54.8022C51.4992 54.0542 53.8526 52.9582 56.2061 51.8536C58.5326 50.782 60.8241 49.4043 63.0803 47.7221C64.7361 46.5209 66.3417 45.0362 67.8975 43.2688C68.972 42.078 69.9415 40.542 70.8061 38.6589C71.081 38.0091 71.3217 37.2985 71.5285 36.5279C71.6278 36.0999 71.6962 35.6476 71.7338 35.171C71.7338 35.0666 71.7034 34.9275 71.6844 34.8057C71.6266 34.837 71.5723 34.8866 71.5209 34.9536C71.4491 35.0814 71.3821 35.2206 71.3194 35.3711C70.3522 37.5168 69.2659 39.2799 68.061 40.6594C66.055 43.0157 63.9726 44.9414 61.8142 46.4348C58.7478 48.5119 55.6324 50.0836 52.4687 51.1491C49.2293 52.3668 45.9633 53.1409 42.6859 53.628C38.074 54.3151 33.4659 55.0892 28.8387 54.8979C28.6619 54.9188 28.487 54.9736 28.3141 55.0631C28.2646 54.9962 28.2118 54.9466 28.1563 54.9153C28.1004 54.8831 28.0437 54.8709 27.9863 54.877C27.9289 54.8831 27.873 54.9083 27.819 54.9518C27.7647 54.9953 27.7141 55.0553 27.6677 55.1327L27.2647 54.8979H27.2H27.2609ZM32.7283 2.81475C32.6838 2.72342 32.634 2.65123 32.5792 2.59817C32.5241 2.54511 32.4667 2.51293 32.4074 2.50423C32.3477 2.49467 32.2891 2.50771 32.2313 2.54251C32.1735 2.57817 32.1199 2.63383 32.0705 2.71037L31.8044 2.65819C30.682 2.61122 29.5668 2.79127 28.4585 3.19746C28.4091 3.19746 28.3711 3.36272 28.3255 3.4497C28.1886 3.4497 28.0517 3.35402 27.9148 3.32793C27.9148 3.32793 27.8654 3.40621 27.8692 3.4236C27.873 3.441 27.8996 3.54538 27.9186 3.55407C28.0593 3.55407 28.2038 3.69324 28.3255 3.40621C28.43 3.52276 28.5388 3.60974 28.6524 3.66715C29.187 3.79066 29.7216 3.79501 30.2565 3.67932C30.7911 3.56364 31.3162 3.33054 31.831 2.98001L32.0781 2.77996C32.1804 2.88955 32.2884 2.94522 32.4013 2.94522C32.5142 2.94522 32.6222 2.88955 32.7245 2.77996H32.7815L32.7283 2.81475ZM17.0105 6.43308C16.8591 6.43395 16.7082 6.45744 16.558 6.50267C14.9459 7.1985 13.33 7.85954 11.7218 8.61626C10.4819 9.19815 9.27588 10.0332 8.10332 11.123C6.93038 12.212 5.81104 13.5367 4.74494 15.0962C3.81039 16.42 2.96366 17.9909 2.20515 19.8105C2.01124 20.2541 1.83749 20.7368 1.68426 21.2578C1.53142 21.7788 1.40139 22.3285 1.29493 22.9069C1.18809 23.4853 1.10711 24.082 1.05084 24.697C0.994945 25.311 0.965289 25.9321 0.961867 26.5601C0.975554 27.2524 1.00977 27.9396 1.06452 28.6215C1.06452 28.6824 1.10254 28.7693 1.12155 28.7693C1.14056 28.7693 1.25463 28.7693 1.27744 28.7084C1.46374 28.0735 1.63484 27.4212 1.82114 26.7775C2.20933 25.3615 2.66026 24.0594 3.17468 22.8721C4.56168 19.8148 6.10266 17.2402 7.79801 15.1484C10.4207 11.8571 13.1696 9.26513 16.0447 7.37246C16.2729 7.2159 16.5162 7.05933 16.7405 6.88538C16.8416 6.7436 16.9291 6.56703 17.0029 6.3548C16.9686 6.39829 17.1435 6.3548 17.0105 6.43308ZM71.9201 27.83V27.9517L71.8821 27.8387C71.9433 27.6151 71.9863 27.3742 72.0114 27.1167C71.9962 26.1226 71.8757 25.2006 71.6502 24.3508C71.3148 22.9435 70.9164 21.6353 70.4552 20.428C69.994 19.2208 69.4811 18.1422 68.9165 17.1924C67.8188 15.2145 66.6516 13.481 65.4152 11.9911C64.1787 10.502 62.8936 9.28078 61.5595 8.32923C57.9311 5.66854 54.218 3.99854 50.4194 3.31923C49.6323 3.18006 48.8453 3.0235 48.0583 2.92782C47.0279 2.79735 45.9975 2.72777 44.9672 2.63209C44.9216 2.63209 44.8759 2.71907 44.8303 2.76256C44.8759 2.84084 44.9178 2.96261 44.9672 2.98871C46.1078 3.441 47.2484 3.8585 48.3891 4.32819C53.5162 6.39394 58.4942 9.64957 63.3236 14.0959C65.4969 16.1052 67.531 18.6884 69.426 21.8458C70.2138 23.1705 70.8905 24.7448 71.4563 26.5688C71.597 27.0124 71.7833 27.4125 71.9201 27.83ZM25.3256 5.31975C25.1846 5.21016 25.0401 5.13709 24.8922 5.1023C24.4055 5.1023 23.9188 5.1023 23.4322 5.1023C22.7303 5.10491 22.041 5.31627 21.3638 5.73725C20.3069 6.3809 19.2423 6.98975 18.1815 7.58991C15.2782 9.23816 12.481 11.5579 9.7903 14.5482C8.68884 15.7346 7.63148 17.1002 6.61823 18.6458C5.60535 20.1906 4.64761 21.898 3.74499 23.768C3.3298 24.5856 2.95606 25.492 2.623 26.487C2.28993 27.482 2.00478 28.5441 1.76791 29.6739C1.73179 29.8148 1.70023 29.9618 1.674 30.114C1.64738 30.2654 1.62647 30.4219 1.6105 30.5811C1.59491 30.7403 1.58427 30.9021 1.57933 31.0656C1.57438 31.2282 1.57514 31.3918 1.58123 31.5544C1.58731 31.7179 1.59872 31.8788 1.61583 32.038C1.63293 32.1963 1.65499 32.352 1.68236 32.5025C1.70974 32.6538 1.74243 32.7991 1.77969 32.9391C1.81696 33.0783 1.8584 33.2105 1.90478 33.3357C2.03786 33.7098 2.14812 34.136 2.28499 34.5274C3.01081 36.7819 3.8678 38.7354 4.8552 40.3898C5.80268 42.0145 6.79882 43.4645 7.84364 44.7387C9.42644 46.7001 11.0739 48.3153 12.7863 49.5835C14.179 50.5463 15.5946 51.2769 17.0333 51.7753C18.6416 52.5312 20.2639 53.0644 21.8999 53.3757C25.702 53.8106 29.5041 54.0455 33.3062 53.7411C36.3745 53.4975 39.4389 52.993 42.5034 52.5755C44.7467 52.2711 46.9899 51.8188 49.2179 51.123C52.1124 50.2123 54.9845 49.0529 57.8334 47.6438C59.5482 46.834 61.2275 45.7433 62.8727 44.3717C64.5175 43 66.1102 41.3631 67.6504 39.4591C68.5994 38.3327 69.4739 36.9584 70.2738 35.3363C70.7913 34.3456 71.2084 33.1687 71.5247 31.8049C71.5825 31.557 71.6141 31.2935 71.6202 31.0134C71.6262 30.7333 71.6057 30.4637 71.5589 30.2045C71.2156 28.2431 70.7225 26.5035 70.0799 24.9857C70.0062 24.8144 69.9218 24.6752 69.8271 24.57C69.7328 24.4639 69.6332 24.3969 69.5286 24.3682C69.2294 24.2351 68.9454 24.0029 68.677 23.6724C67.4063 22.1902 66.1022 20.8821 64.7646 19.7496C61.7876 17.3029 58.7573 15.2736 55.6738 13.6611C51.176 11.2343 46.6515 9.59043 42.127 8.12048C38.1044 6.83319 34.0856 5.89381 30.0478 5.40673C29.2828 5.30235 28.5224 5.39281 27.7666 5.67636C24.3941 7.05933 20.9988 8.19876 17.6378 9.84267C16.8356 10.2341 16.0371 10.7125 15.2349 11.0778C14.8775 11.2517 14.5201 11.3648 14.1627 11.504V11.5649C14.3049 11.3152 14.457 11.1039 14.6189 10.9299C15.079 10.5733 15.5429 10.2254 16.0143 9.97314C17.6378 9.10334 19.2613 8.23355 20.8962 7.42465C22.1129 6.82449 23.3409 6.3722 24.5652 5.83293C24.8237 5.71985 25.1127 5.77204 25.3256 5.25886C25.3484 5.28757 25.3724 5.30757 25.3979 5.31975C25.3979 5.31975 25.4321 5.31975 25.4473 5.25017L25.3256 5.31975ZM67.0041 19.68V19.7322C66.8618 19.4713 66.7109 19.239 66.5516 19.0364C65.4338 17.7839 64.3274 16.4792 63.1906 15.3484C60.6709 12.9148 58.0904 10.8855 55.4495 9.25991C50.6057 6.25391 45.6873 4.1751 40.6936 3.0235C40.0264 2.81388 39.3561 2.70951 38.6823 2.71037C36.9505 2.87737 35.2281 3.26617 33.5153 3.8759C33.4773 3.8759 33.4469 4.02376 33.4126 4.10204C33.459 4.17945 33.51 4.23773 33.5647 4.276L34.9221 4.57173C39.1272 5.44152 43.2867 6.80709 47.4689 8.32923C52.3318 10.0862 57.1236 12.5625 61.8446 15.7572C63.7145 16.9628 65.5258 18.5249 67.2778 20.4454C67.328 20.5272 67.3839 20.5733 67.4451 20.5846C67.4257 20.4837 67.3991 20.3941 67.3652 20.315C67.2474 20.1062 67.1257 19.8975 67.0041 19.68ZM2.99218 43.0948C3.86286 44.4195 4.78562 45.5154 5.7601 46.3826C7.49537 48.0378 9.27968 49.339 11.1134 50.288C11.41 50.4358 11.7104 50.4967 12.0107 50.5924C12.0297 50.5924 12.0563 50.5924 12.0792 50.5315C12.102 50.4706 12.0792 50.375 12.0373 50.3489C11.9328 50.2201 11.8252 50.1071 11.7142 50.0097C9.76711 48.4231 7.91322 46.3939 6.15171 43.9211C5.26811 42.7556 4.44229 41.4039 3.67465 39.867C2.90663 38.3301 2.21161 36.6375 1.58921 34.7883C1.52077 34.5969 1.45234 34.2751 1.31546 34.4839C1.25843 34.5708 1.23942 34.8492 1.23562 35.0405C1.16718 37.8152 1.46754 40.2593 2.43327 42.1293C2.65379 42.5294 2.87812 42.8861 2.99218 43.0948ZM12.562 50.862L12.5316 50.7316L12.505 50.7838L12.562 50.862Z" fill="#8AC7E2"/>
</svg>
