<svg width="180" height="78" viewBox="0 0 180 78" fill="none" xmlns="http://www.w3.org/2000/svg">
<path d="M168.885 17.8014C171.851 20.2646 174.465 23.2107 176.729 26.6373C177.518 27.8912 178.222 29.2154 178.84 30.6099C179.136 31.2404 179.374 31.9037 179.552 32.5986C179.731 33.2935 179.847 34.0049 179.9 34.7326C179.953 35.4592 179.941 36.1846 179.866 36.9088C179.791 37.633 179.653 38.3373 179.453 39.024C179.046 40.449 178.901 41.9139 179.019 43.4185C179.07 44.1463 179.057 44.8717 178.979 45.5947C178.901 46.3189 178.759 47.0232 178.556 47.7076C178.352 48.3932 178.09 49.0412 177.771 49.6541C177.452 50.267 177.082 50.8295 176.663 51.3404C175.362 53.0443 173.919 54.5361 172.336 55.817C169.079 58.3846 165.652 60.5256 162.051 62.2389C156.066 65.124 149.948 67.4678 143.696 69.2701C136.956 71.2857 130.178 73.0904 123.305 74.3678C111.276 76.6506 99.1814 77.5178 87.0205 76.9693C78.4324 76.5592 69.9009 75.399 61.3694 74.192C58.9749 73.8404 56.5804 73.4654 54.2048 73.0201C48.5486 71.8482 42.8923 70.981 37.2361 70.1607C30.9095 69.2982 24.7216 67.6342 18.6741 65.1685C14.4857 63.5807 10.5103 61.3939 6.74887 58.606C5.48375 57.5959 4.32422 56.424 3.27027 55.0904C2.83191 54.5021 2.46332 53.8517 2.16542 53.1404C1.86847 52.4279 1.65164 51.6791 1.51684 50.8951C1.0436 48.5748 0.952154 46.231 1.24345 43.8639C1.35469 43.2182 1.38014 42.5678 1.32075 41.9127C1.26042 41.2564 1.11901 40.6295 0.894649 40.0318C0.796607 39.7787 0.71742 39.5174 0.658972 39.2467C0.483628 38.6256 0.343164 37.9916 0.236638 37.3459C0.131055 36.7014 0.0603518 36.0498 0.0254717 35.3924C-0.00940844 34.7349 -0.0084658 34.0775 0.0282999 33.4213C0.0650653 32.7639 0.136711 32.1135 0.245123 31.4678C0.352591 30.8232 0.49494 30.1904 0.67217 29.5693C0.849399 28.9482 1.05962 28.3459 1.3019 27.7599C1.54512 27.1752 1.8185 26.6127 2.123 26.0736C2.42749 25.5346 2.75933 25.0224 3.11944 24.5396C4.87005 22.067 6.84031 19.9025 9.03022 18.0474C11.7056 15.7553 14.5319 13.8029 17.5099 12.1881C20.4879 10.5732 23.563 9.32752 26.7343 8.44979C35.9276 5.69705 45.2481 4.05643 54.695 3.52791C55.37 3.48104 56.0393 3.37557 56.703 3.21151C62.9362 1.79471 69.2156 0.846664 75.5402 0.367368C81.8648 -0.113101 88.1894 -0.122476 94.515 0.340414C95.5614 0.410727 96.6172 0.434164 97.6731 0.340414C107.022 0.054477 116.355 0.414243 125.672 1.41854C135.627 2.44862 145.327 4.98456 154.773 9.02401C157.925 10.3236 160.938 12.0076 163.813 14.0748C165.501 15.3756 167.188 16.5826 168.885 17.8014ZM66.8559 72.6685C67.1765 72.856 67.4781 73.1256 67.8552 72.8795C67.9712 72.9873 68.0975 73.0717 68.2332 73.1349C68.3681 73.1982 68.5085 73.2369 68.6528 73.2498C68.797 73.2639 68.9403 73.2521 69.0817 73.2146C69.224 73.1771 69.3579 73.1162 69.4861 73.0318C69.9801 73.2264 70.4826 73.374 70.9944 73.4771C74.2185 73.7935 77.452 74.0631 80.6855 74.3678C94.1936 75.5502 107.649 74.9408 121.052 72.5396C126.954 71.5318 132.789 70.0553 138.624 68.567C144.393 67.1232 150.074 65.267 155.668 63.0006C159.774 61.3822 163.755 59.3818 167.613 57.0006C170.277 55.3963 172.681 53.3267 174.824 50.7896C175.506 49.9142 176.103 48.9568 176.615 47.9185C176.862 47.342 177.031 46.7326 177.125 46.0904C177.125 45.9498 177.049 45.7623 177.002 45.5982C176.859 45.6404 176.724 45.7072 176.597 45.7974C176.418 45.9697 176.253 46.1572 176.097 46.3599C173.699 49.251 171.005 51.6264 168.018 53.485C163.044 56.6596 157.881 59.2541 152.529 61.2662C144.926 64.0646 137.202 66.1822 129.357 67.6178C121.326 69.2584 113.228 70.3014 105.102 70.9576C93.6666 71.8834 82.241 72.9264 70.7682 72.6685C70.3298 72.6967 69.8962 72.7705 69.4673 72.8912C69.3447 72.801 69.2137 72.7342 69.076 72.692C68.9375 72.6486 68.797 72.6322 68.6546 72.6404C68.5123 72.6486 68.3737 72.6826 68.2398 72.7412C68.105 72.7998 67.9797 72.8807 67.8646 72.9849L66.8654 72.6685H66.7051H66.8559ZM80.4121 2.49666C80.3018 2.37362 80.1783 2.27635 80.0426 2.20487C79.9059 2.13338 79.7635 2.09002 79.6164 2.07831C79.4684 2.06541 79.3233 2.08299 79.18 2.12987C79.0367 2.17791 78.9038 2.25291 78.7812 2.35604L78.1213 2.28573C75.3384 2.22245 72.5735 2.46502 69.8255 3.01229C69.7029 3.01229 69.6087 3.23495 69.4955 3.35213C69.1562 3.35213 68.8168 3.22323 68.4774 3.18807C68.4774 3.18807 68.3549 3.29354 68.3643 3.31698C68.3737 3.34041 68.4397 3.48104 68.4868 3.49276C68.8356 3.49276 69.1939 3.68026 69.4955 3.29354C69.7548 3.45057 70.0244 3.56776 70.3063 3.6451C71.6317 3.81151 72.9572 3.81737 74.2835 3.66151C75.609 3.50565 76.9109 3.19159 78.1873 2.71932L78.8001 2.44979C79.0536 2.59745 79.3214 2.67245 79.6014 2.67245C79.8813 2.67245 80.1491 2.59745 80.4027 2.44979H80.5441L80.4121 2.49666ZM41.4405 7.37166C41.0653 7.37284 40.6911 7.40448 40.3187 7.46541C36.3216 8.40292 32.3151 9.29354 28.3275 10.3131C25.2533 11.0971 22.263 12.2221 19.3557 13.6904C16.4475 15.1576 13.6721 16.9424 11.0288 19.0435C8.71159 20.8271 6.61217 22.9435 4.73147 25.3951C4.25069 25.9928 3.81987 26.6431 3.43996 27.3451C3.06099 28.0471 2.73859 28.7877 2.47463 29.567C2.20973 30.3463 2.00893 31.1502 1.86941 31.9787C1.73083 32.806 1.6573 33.6428 1.64882 34.4889C1.68275 35.4217 1.7676 36.3474 1.90335 37.2662C1.90335 37.3482 1.99762 37.4654 2.04475 37.4654C2.09189 37.4654 2.3747 37.4654 2.43126 37.3834C2.89319 36.5279 3.31741 35.649 3.77934 34.7818C4.74184 32.874 5.85989 31.1197 7.13538 29.5201C10.5744 25.401 14.3952 21.9322 18.5987 19.1139C25.1015 14.6795 31.9173 11.1873 39.0461 8.63729C39.6117 8.42635 40.215 8.21542 40.7712 7.98104C41.022 7.79002 41.2388 7.55213 41.4217 7.2662C41.3368 7.32479 41.7705 7.2662 41.4405 7.37166ZM177.586 36.1998V36.3639L177.492 36.2115C177.644 35.9103 177.75 35.5857 177.813 35.2389C177.775 33.8994 177.476 32.6572 176.917 31.5123C176.086 29.6162 175.098 27.8537 173.954 26.2271C172.811 24.6006 171.539 23.1474 170.139 21.8678C167.417 19.2029 164.523 16.8674 161.458 14.8599C158.392 12.8537 155.206 11.2084 151.898 9.92635C142.901 6.34159 133.695 4.09159 124.276 3.17635C122.325 2.98885 120.373 2.77791 118.422 2.64901C115.867 2.47323 113.313 2.37948 110.758 2.25057C110.645 2.25057 110.532 2.36776 110.419 2.42635C110.532 2.53182 110.635 2.69588 110.758 2.73104C113.586 3.34041 116.414 3.90291 119.242 4.53573C131.955 7.31893 144.298 11.7053 156.272 17.6959C161.66 20.4029 166.704 23.8834 171.402 28.1373C173.356 29.9221 175.034 32.0431 176.436 34.5006C176.785 35.0982 177.247 35.6373 177.586 36.1998ZM62.0576 5.87166C61.7078 5.72401 61.3496 5.62557 60.9829 5.5787C59.7762 5.5787 58.5695 5.5787 57.3629 5.5787C55.6226 5.58221 53.9135 5.86698 52.2345 6.43416C49.6138 7.30135 46.9742 8.12167 44.3441 8.93026C37.1456 11.151 30.21 14.2764 23.5385 18.3053C20.8075 19.9037 18.1858 21.7435 15.6735 23.826C13.1621 25.9072 10.7874 28.2076 8.54944 30.7271C7.52 31.8287 6.59332 33.0498 5.76751 34.3904C4.9417 35.731 4.23466 37.1619 3.64736 38.6842C3.5578 38.874 3.47955 39.0721 3.41451 39.2771C3.34852 39.481 3.29667 39.692 3.25708 39.9064C3.21842 40.1209 3.19203 40.3389 3.17977 40.5592C3.16752 40.7783 3.1694 40.9986 3.18449 41.2178C3.19957 41.4381 3.22785 41.6549 3.27027 41.8693C3.3127 42.0826 3.36737 42.2924 3.43525 42.4951C3.50312 42.699 3.5842 42.8947 3.67658 43.0834C3.76897 43.2709 3.87172 43.449 3.98673 43.6178C4.31668 44.1217 4.59007 44.6959 4.92944 45.2232C6.72907 48.2607 8.85393 50.8928 11.3021 53.1217C13.6514 55.3107 16.1213 57.2642 18.7118 58.981C22.6363 61.6236 26.7211 63.7998 30.967 65.5084C34.4202 66.8057 37.9299 67.79 41.4971 68.4615C45.4847 69.4799 49.5073 70.1982 53.5638 70.6178C62.9908 71.2037 72.4179 71.5201 81.845 71.1099C89.4527 70.7818 97.0509 70.1021 104.649 69.5396C110.211 69.1295 115.773 68.5201 121.297 67.5826C128.474 66.3557 135.595 64.7935 142.659 62.8951C146.911 61.8041 151.075 60.3346 155.154 58.4865C159.232 56.6385 163.181 54.433 167 51.8678C169.353 50.3502 171.521 48.4986 173.505 46.3131C174.788 44.9783 175.822 43.3928 176.606 41.5553C176.749 41.2213 176.828 40.8662 176.843 40.4889C176.858 40.1115 176.807 39.7482 176.691 39.399C175.84 36.7564 174.617 34.4127 173.024 32.3678C172.841 32.1369 172.632 31.9494 172.397 31.8076C172.163 31.6646 171.916 31.5744 171.657 31.5357C170.915 31.3564 170.211 31.0435 169.545 30.5982C166.395 28.6014 163.161 26.8389 159.845 25.3131C152.463 22.0166 144.95 19.2826 137.305 17.1099C126.152 13.8404 114.934 11.6256 103.716 9.6451C93.742 7.91073 83.7776 6.6451 73.766 5.98885C71.8693 5.84823 69.9839 5.9701 68.1098 6.35213C59.7479 8.21542 51.3295 9.75057 42.996 11.9654C41.0069 12.4928 39.0272 13.1373 37.0381 13.6295C36.1519 13.8639 35.2658 14.0162 34.3796 14.2037V14.2857C34.7322 13.9494 35.1093 13.6646 35.5109 13.4303C36.6516 12.9498 37.8017 12.481 38.9706 12.1412C42.996 10.9693 47.0214 9.79745 51.075 8.7076C54.0917 7.89901 57.1366 7.28963 60.1721 6.56307C60.8132 6.41073 61.5296 6.48104 62.0576 5.78963C62.1141 5.82831 62.1735 5.85526 62.2367 5.87166C62.2367 5.87166 62.3215 5.87166 62.3592 5.77791L62.0576 5.87166ZM165.397 25.2193V25.2896C165.045 24.9381 164.67 24.6252 164.275 24.3521C161.504 22.6646 158.761 20.9068 155.942 19.3834C149.695 16.1045 143.296 13.3705 136.748 11.1803C124.738 7.13026 112.543 4.32948 100.162 2.77791C98.5074 2.49549 96.8454 2.35487 95.1749 2.35604C90.8809 2.58104 86.6104 3.10487 82.3635 3.92635C82.2692 3.92635 82.1938 4.12557 82.109 4.23104C82.224 4.33534 82.3503 4.41385 82.4861 4.46541L85.8515 4.86385C96.2779 6.03573 106.591 7.87557 116.961 9.92635C129.018 12.2935 140.899 15.6299 152.605 19.9342C157.241 21.5584 161.732 23.6631 166.076 26.2506C166.2 26.3607 166.339 26.4228 166.491 26.4381C166.443 26.3021 166.377 26.1814 166.293 26.0748C166.001 25.7935 165.699 25.5123 165.397 25.2193ZM6.68288 56.7662C8.84168 58.551 11.1296 60.0275 13.5458 61.1959C17.8483 63.426 22.2724 65.1791 26.8191 66.4576C27.5544 66.6568 28.2992 66.7389 29.0439 66.8678C29.0911 66.8678 29.157 66.8678 29.2136 66.7857C29.2702 66.7037 29.2136 66.5748 29.1099 66.5396C28.8507 66.3662 28.5839 66.2139 28.3086 66.0826C23.481 63.9451 18.8843 61.2111 14.5168 57.8795C12.3259 56.3092 10.2784 54.4881 8.37504 52.4174C6.47077 50.3467 4.7475 48.0662 3.20428 45.5748C3.0346 45.317 2.86491 44.8834 2.52553 45.1646C2.38413 45.2818 2.33699 45.6568 2.32757 45.9146C2.15788 49.6529 2.90262 52.9459 5.2971 55.4654C5.84387 56.0045 6.40006 56.485 6.68288 56.7662ZM30.4108 67.231L30.3354 67.0553L30.2694 67.1256L30.4108 67.231Z" fill="#8AC7E2"/>
</svg>
