<svg width="84" height="80" viewBox="0 0 84 80" fill="none" xmlns="http://www.w3.org/2000/svg">
<path fill-rule="evenodd" clip-rule="evenodd" d="M42.0049 0C50.2997 0 57.0238 6.72418 57.0238 15.0189C57.0238 23.3136 50.2997 30.0377 42.0049 30.0377C33.7102 30.0377 26.9861 23.3136 26.9861 15.0189C26.9861 6.72418 33.7102 0 42.0049 0ZM16.9142 77.1305C10.2036 72.2552 8.71601 62.8627 13.5915 56.1521C18.467 49.4416 27.8593 47.954 34.5699 52.8296C41.2805 57.7049 42.768 67.0974 37.8927 73.808C33.0171 80.5186 23.6247 82.0061 16.9142 77.1305ZM70.467 56.1521C75.3426 62.8627 73.855 72.2552 67.1445 77.1305C60.4339 82.0061 51.0414 80.5186 46.1661 73.808C41.2905 67.0974 42.778 57.7049 49.4886 52.8296C56.1992 47.954 65.5917 49.4416 70.467 56.1521ZM1.38562 29.4385C3.94882 21.5499 12.4218 17.2327 20.3105 19.7959C28.1992 22.3591 32.5164 30.8321 29.9532 38.7207C27.39 46.6093 18.917 50.9265 11.0283 48.3633C3.13959 45.8001 -1.17758 37.3274 1.38562 29.4385ZM63.6892 19.7959C71.5781 17.2327 80.0509 21.5499 82.6141 29.4385C85.1773 37.3274 80.8601 45.8001 72.9715 48.3633C65.0825 50.9265 56.6098 46.6093 54.0466 38.7207C51.4834 30.8321 55.8006 22.3591 63.6892 19.7959Z" fill="#339DCD"/>
</svg>
