<svg width="159" height="159" viewBox="0 0 159 159" fill="none" xmlns="http://www.w3.org/2000/svg">
<g clip-path="url(#clip0_985_1822)">
<path d="M100.532 31.6169C101.248 28.9044 101.518 26.1529 99.2126 24.1201C94.7622 20.1949 88.1735 24.0708 84.6588 27.391C81.9758 29.9258 79.9183 32.9772 78.2574 36.2505C78.233 32.6561 77.8425 29.0827 76.6265 25.6727C75.6024 22.798 73.923 19.9774 71.2211 18.4054C68.802 16.999 65.8014 17.1131 63.5844 18.8603C59.291 22.2427 58.7011 28.9715 58.4206 34.0037C58.0894 39.9165 58.727 45.8147 60.2757 51.5285C62.0397 58.0303 64.9977 64.1815 69.1194 69.5152C69.4371 69.9261 69.8587 70.0366 70.243 69.9571C70.0669 70.3719 69.8913 70.7868 69.7198 71.2036C69.0643 72.7924 71.0711 73.7782 72.1723 72.6695C81.6298 63.1452 91.2912 53.2503 97.1123 40.9787C98.5406 37.9685 99.6833 34.8395 100.534 31.6193L100.532 31.6169ZM61.5097 30.962C61.8098 28.5568 62.1926 26.1219 63.2321 23.9098C64.0958 22.0728 65.5963 20.1691 67.832 20.2404C70.6453 20.3286 72.5796 23.3016 73.5529 25.6081C74.8857 28.7644 75.3501 32.133 75.4247 35.5349C75.2512 35.5272 75.0767 35.5505 74.9138 35.6124C72.3646 36.5709 70.0807 37.9638 67.95 39.5799C69.9368 36.2693 71.7938 32.8805 73.5048 29.4168C74.0078 28.3969 72.8618 27.4724 71.9123 27.7864C69.1382 28.7069 66.5414 29.9947 64.1567 31.607C66.0177 28.6045 68.0192 25.6902 70.1481 22.8708C70.686 22.1585 69.6702 21.372 69.075 22.0146C66.2245 25.0913 63.674 28.3882 61.4013 31.8863C61.4338 31.578 61.4689 31.2702 61.5072 30.963L61.5097 30.962ZM61.6833 44.7617C61.3924 42.7877 61.2107 40.7939 61.1433 38.786C61.1257 38.2362 61.119 37.6849 61.1197 37.1341C63.6475 34.6733 66.5934 32.6966 69.7989 31.2568C67.355 35.9107 64.6472 40.4174 61.6842 44.7628L61.6833 44.7617ZM63.5159 52.8168C63.0046 51.1652 62.5714 49.4901 62.2208 47.7949C62.4542 47.7412 62.6864 47.6199 62.8973 47.4154C66.1988 44.2075 69.6148 40.9596 73.7471 38.8936C73.2198 39.714 72.4318 40.5346 72.1011 40.9901C71.0448 42.4457 69.989 43.9002 68.9335 45.3555C67.1275 47.8434 65.322 50.3302 63.5159 52.8182L63.5159 52.8168ZM66.0525 59.4511C65.4994 58.2451 64.9903 57.0194 64.5259 55.7773C64.5551 55.7507 64.5842 55.7227 64.6115 55.6926C66.7969 53.3033 69.0383 50.8694 71.6887 49.0034C70.129 52.647 68.2503 56.1424 66.0525 59.4511ZM75.4398 46.5419C75.8011 45.5538 74.8484 44.3426 73.7731 44.8352C73.0313 45.175 72.3233 45.5589 71.6374 45.9748C71.7847 45.7698 71.9333 45.5653 72.0809 45.3598C73.1398 43.8964 74.2524 42.4552 75.281 40.9665C75.2163 41.9938 75.14 43.0161 75.0629 44.0272C74.9478 45.5327 77.2183 46.3716 77.7723 44.7763C79.4254 40.019 81.4809 35.2858 84.7462 31.3955C86.2939 29.551 88.1265 27.9314 90.2316 26.7498C91.2871 26.1576 92.5596 25.5808 93.8378 25.3876C89.6051 32.2235 84.5611 38.4566 79.576 44.7456C75.1204 50.3661 70.7724 56.1567 67.6435 62.6288C67.4952 62.3522 67.341 62.0784 67.197 61.7981C67.4548 61.7467 67.7019 61.5906 67.9002 61.2957C70.996 56.6897 73.5347 51.7549 75.4392 46.5417L75.4398 46.5419ZM93.7793 41.3261C91.0819 46.614 87.586 51.458 83.7939 56.0106C79.9612 60.6116 75.8005 64.9221 71.5916 69.1784C71.4645 69.1213 71.3296 69.0889 71.1934 69.0868C71.2802 68.7881 71.243 68.4458 71.0109 68.112C70.4115 67.2542 69.844 66.3779 69.2959 65.49C75.7273 55.9839 83.0102 47.126 91.2974 39.1985C89.5849 43.4107 86.5946 47.1296 83.8465 50.6813C80.0739 55.5568 76.0563 60.231 71.8256 64.7144C70.6996 65.9085 72.7044 67.4995 73.8195 66.3055C78.245 61.5654 82.4445 56.6134 86.3871 51.4644C90.0811 46.6395 93.9251 41.5668 94.9539 35.4255C95.1205 34.4295 93.7865 33.5294 92.9781 34.2569C89.339 37.5328 85.8326 40.971 82.4907 44.5633C87.0453 38.5993 91.6959 32.5886 94.5726 25.6088C94.6138 25.5093 94.6026 25.4106 94.5623 25.3254C95.3764 25.3037 96.1747 25.4645 96.904 25.9131C99.4034 27.4505 97.8619 30.962 97.1732 33.1316C96.278 35.9532 95.1243 38.6916 93.7788 41.3273L93.7793 41.3261Z" fill="#8AC7E2"/>
<path d="M121.162 76.0318C119.347 73.6625 116.431 73.424 113.662 73.6299C111.044 73.8246 108.43 74.4924 106.018 75.5211C103.561 76.5691 101.295 77.993 99.2987 79.7229C100.011 77.3117 100.558 74.8579 100.89 72.3958C101.389 68.6965 100.562 63.2739 95.8728 62.9722C90.7626 62.6446 87.4862 68.3276 85.6267 72.2583C83.3785 77.0125 81.8261 82.1015 81.0234 87.2983C80.1092 93.2151 80.1817 99.0305 81.5803 104.86C81.6232 105.041 81.7191 105.173 81.8374 105.258C81.7632 105.384 81.6891 105.51 81.6217 105.64C81.0011 106.845 82.4056 107.995 83.5336 107.597C90.0659 105.291 96.6189 103.038 103.13 100.671C108.856 98.5902 114.629 95.9993 118.641 91.2394C121.895 87.3805 124.675 80.6157 121.162 76.0313L121.162 76.0318ZM93.9648 85.9285C92.0807 85.8185 90.1975 85.955 88.3599 86.3386C89.3212 85.6176 90.3603 84.982 91.329 84.3334C93.4387 82.9215 95.4503 81.3305 96.5509 79.0012C95.8385 81.367 94.9559 83.6867 93.9648 85.9285ZM93.0527 66.6329C94.4788 65.6571 96.5077 65.2443 97.5309 66.9683C98.3659 68.3759 98.3024 70.2874 98.1043 71.8506C97.833 73.9768 97.3802 76.0932 96.7903 78.1776C96.7797 77.565 96.3629 76.9259 95.6995 76.9031C93.6032 76.8311 91.5284 76.9713 89.4922 77.3419C92.131 74.4426 94.7574 71.5339 97.3567 68.5972C98.1576 67.6917 96.7328 66.626 95.9152 67.4469C92.7512 70.6204 89.6273 73.8296 86.5112 77.0482C87.9109 73.3073 89.7376 68.902 93.0535 66.6326L93.0527 66.6329ZM85.2541 80.6911C85.5471 80.8282 85.8839 80.8743 86.2004 80.7705C88.4859 80.0227 90.8433 79.5682 93.2334 79.4519C91.999 80.9136 90.262 81.9511 88.6705 82.9994C86.7298 84.2773 84.8772 85.6492 83.6136 87.5809C84.0172 85.2543 84.5601 82.953 85.2541 80.6911ZM83.2624 89.8875C83.6164 90.3002 84.1977 90.5244 84.7334 90.2786C87.2755 89.1107 89.9683 88.5194 92.7108 88.528C91.2277 89.9366 89.7447 91.3481 88.2615 92.7568C86.4066 94.5197 84.475 96.2328 82.6629 98.0463C82.7069 95.3155 82.899 92.5878 83.2629 89.8864L83.2624 89.8875ZM82.7406 103.116C82.891 103.22 83.0591 103.298 83.2347 103.339C83.0821 103.532 82.9289 103.725 82.7777 103.918C82.7627 103.651 82.7525 103.383 82.7401 103.116L82.7406 103.116ZM85.6066 103.054C85.7235 102.754 85.651 102.455 85.4854 102.224C93.1036 96.7262 101.399 92.2639 110.191 88.9804C109.747 89.2928 109.324 89.5635 109.054 89.7689C107.63 90.8539 106.178 91.903 104.703 92.9153C101.808 94.9009 98.7677 96.6164 95.7928 98.4703C95.123 98.8869 95.163 99.6999 95.5493 100.25C92.1494 101.449 88.746 102.637 85.3442 103.829C85.423 103.568 85.5079 103.309 85.6075 103.055L85.6066 103.054ZM115.507 90.3591C111.814 94.1955 106.729 96.251 101.812 98.0232C103.803 96.7898 105.74 95.4609 107.628 94.1203C109.276 92.952 110.919 91.7558 112.48 90.4722C113.785 89.3973 114.937 88.0902 114.683 86.2867C114.557 85.4009 113.685 84.9472 112.869 85.2183C109.073 86.4766 105.353 87.9555 101.727 89.6362C106.764 85.9695 111.734 82.2319 116.654 78.4072C117.397 77.8295 116.567 76.7319 115.79 77.241C109.856 81.1249 104.002 85.1018 98.2112 89.1995C95.145 91.3694 91.9689 93.4642 88.9411 95.7349C89.2979 95.3899 89.6544 95.0455 90.0133 94.7049C92.1925 92.6392 94.3738 90.5766 96.5484 88.5055C97.0313 88.0452 97.1582 87.3482 96.9137 86.824C98.9625 83.5783 101.876 80.8858 105.265 79.0776C107.317 77.9848 109.543 77.1849 111.833 76.7826C113.862 76.4272 117.026 75.8433 118.612 77.5051C120.184 79.152 119.989 81.9479 119.403 83.955C118.693 86.3864 117.25 88.5471 115.506 90.3589L115.507 90.3591Z" fill="#8AC7E2"/>
<path d="M64.1212 101.264C64.9369 97.5401 65.9639 91.5776 61.6408 89.5249C57.3904 87.5075 52.9125 91.4011 50.7758 94.7401C49.5264 96.6931 48.6558 98.8102 48.0127 101.006C47.7021 99.6242 47.2997 98.2661 46.7652 96.9493C45.4975 93.8237 41.6861 87.4896 37.4573 89.2572C35.2561 90.1782 34.6238 92.978 34.1865 95.0646C33.6423 97.6622 33.5711 100.368 33.8195 103.006C34.3307 108.445 36.409 113.637 38.8548 118.472C40.2168 121.165 41.7683 123.786 43.3695 126.341C44.784 128.6 46.4587 130.666 48.8059 131.953C49.0058 132.149 49.2555 132.304 49.5591 132.396C50.3342 132.63 51.1132 132.412 51.4769 131.628C53.8579 126.509 56.2532 121.397 58.6171 116.27C60.8494 111.428 62.9746 106.493 64.12 101.263L64.1212 101.264ZM42.3739 96.9555C40.8241 99.1843 39.4238 101.535 38.2402 103.986C38.3955 100.518 38.8212 97.0588 39.4861 93.6574C39.6294 92.9221 38.4043 92.5588 38.1935 93.2995C37.3741 96.1747 36.7844 99.0689 36.4041 101.993C36.2211 99.0813 36.4618 96.1215 37.4675 93.426C37.7221 92.7432 38.0913 91.7318 38.9642 91.8079C39.8706 91.8861 40.8213 92.9353 41.403 93.5607C42.2124 94.4309 42.8765 95.413 43.4257 96.4584C43.0563 96.399 42.6696 96.5289 42.3733 96.9553L42.3739 96.9555ZM38.1026 110.715C38.1216 110.679 38.1421 110.644 38.157 110.604C39.1753 107.841 40.3605 105.182 41.7817 102.642C41.3438 106.748 40.5288 110.808 39.6561 114.848C39.0871 113.489 38.5599 112.115 38.1037 110.716L38.1026 110.715ZM43.6296 108.158C44.1268 105.214 44.4922 102.253 44.599 99.2633C45.2715 101.297 45.6505 103.418 45.8838 105.559C45.0768 106.38 44.3241 107.248 43.6299 108.159L43.6296 108.158ZM41.8259 119.694C41.5573 119.116 41.2886 118.536 41.0238 117.955C41.3643 117.864 41.6591 117.632 41.7948 117.225C42.5669 114.923 43.6341 112.784 44.9758 110.822C44.2503 114.491 43.5291 118.162 42.8116 121.834C42.8101 121.842 42.8104 121.848 42.809 121.856C42.4736 121.118 42.149 120.39 41.8253 119.694L41.8259 119.694ZM43.3804 123.09C43.995 123.412 44.9171 123.262 45.3066 122.525C45.6282 121.916 45.7703 121.227 45.9576 120.567C46.0387 120.281 45.997 120.007 45.8828 119.78C46.3939 117.238 46.9024 114.695 47.4101 112.151C48.1466 112.25 48.9862 111.85 49.0944 110.969C49.6116 106.785 50.1696 102.5 51.9178 98.6223C52.7594 96.7539 53.9215 94.9501 55.4764 93.5934C56.1113 93.0405 56.9553 92.4653 57.8525 92.1405C53.8083 102.638 49.748 113.164 45.3249 123.505C44.7694 124.803 46.7503 125.648 47.3376 124.367C49.2665 120.166 51.5092 116.143 54.0865 112.325C53.3768 113.966 52.6762 115.61 51.9721 117.255C50.5598 120.555 49.1474 123.854 47.7351 127.154C47.3073 128.153 48.1733 128.936 49.0077 128.932C48.614 129.235 48.3751 129.662 48.2828 130.116C46.0901 128.351 44.6239 125.721 43.3813 123.091L43.3804 123.09ZM55.7454 115.557C54.7032 117.805 53.6578 120.05 52.6115 122.294C53.5015 120.199 54.392 118.104 55.2831 116.009C56.0581 114.184 56.9905 112.352 57.591 110.461C58.0219 109.103 58.0448 107.49 56.75 106.603C56.2067 106.23 55.4298 106.231 55.001 106.799C53.9074 108.25 52.8637 109.737 51.8692 111.256C54.186 104.777 56.5868 98.3244 58.9828 91.8847C59.3934 91.8541 59.8022 91.8954 60.1929 92.038C61.8502 92.6425 62.0327 94.7655 61.9525 96.2695C61.8382 98.4341 61.3715 100.615 60.806 102.702C59.6016 107.152 57.6803 111.386 55.747 115.557L55.7454 115.557Z" fill="#8AC7E2"/>
</g>
<defs>
<clipPath id="clip0_985_1822">
<rect width="121" height="121" fill="white" transform="translate(47.6151) rotate(23.1733)"/>
</clipPath>
</defs>
</svg>
