<svg width="157" height="157" viewBox="0 0 157 157" fill="none" xmlns="http://www.w3.org/2000/svg">
<g clip-path="url(#clip0_985_1781)">
<mask id="mask0_985_1781" style="mask-type:luminance" maskUnits="userSpaceOnUse" x="38" y="28" width="41" height="50">
<path d="M62.8118 28.152L78.283 68.1307L54.2958 77.4134L38.8246 37.4347L62.8118 28.152Z" fill="white"/>
</mask>
<g mask="url(#mask0_985_1781)">
<mask id="mask1_985_1781" style="mask-type:luminance" maskUnits="userSpaceOnUse" x="28" y="21" width="119" height="108">
<path d="M57.4697 21.3811L146.331 92.865L117.661 128.504L28.8 57.0199L57.4697 21.3811Z" fill="white"/>
</mask>
<g mask="url(#mask1_985_1781)">
<mask id="mask2_985_1781" style="mask-type:luminance" maskUnits="userSpaceOnUse" x="28" y="21" width="119" height="108">
<path d="M57.4697 21.3811L146.331 92.865L117.661 128.504L28.8 57.0199L57.4697 21.3811Z" fill="white"/>
</mask>
<g mask="url(#mask2_985_1781)">
<path d="M46.9399 37.9272C47.1961 39.2001 47.4712 40.482 47.5129 41.7803C47.8566 52.1529 50.2815 62.271 52.8686 72.2897C52.8607 72.4777 52.8415 72.6661 52.8458 72.8575C52.8907 72.8022 52.9289 72.7413 52.9736 72.6854C53.3106 73.9921 53.6525 75.2976 53.9886 76.5985C54.0457 76.7566 54.1293 76.8747 54.2406 76.9644C54.7639 77.3853 55.7687 77.0052 55.6527 76.1977C55.4396 75.2707 55.2311 74.3377 55.0336 73.4039C55.1612 73.2258 55.2897 73.0534 55.4175 72.8759C55.4282 72.951 55.4112 73.0295 55.4341 73.0836C57.0938 70.5001 58.0897 67.5881 58.9946 64.6686C60.7805 59.1004 62.3828 53.4623 63.5424 47.7272C63.9161 45.9056 64.2464 44.075 64.5567 42.2434C64.6817 40.9714 65.2619 39.7237 66.3199 38.9735C66.6435 38.647 66.671 38.1438 66.402 37.7743C65.9583 37.2284 65.1654 37.3767 64.5391 37.2553C63.9363 36.939 63.1713 37.1036 62.5101 37.0058C59.8738 36.6242 57.3476 35.6992 54.807 34.9261C53.5274 34.5188 52.2254 34.1343 50.9344 33.7538C49.3168 33.1263 48.2512 33.6715 47.9429 35.3925C46.2337 35.3547 46.6037 36.8099 46.9362 37.9246L46.9399 37.9272ZM49.592 45.0553C50.6952 46.4931 54.3204 43.4769 55.4359 42.7369C54.1851 44.4439 52.9814 46.1748 51.8219 47.9461C51.2572 48.8889 50.5432 49.7893 50.1229 50.8131C49.9909 49.7279 49.8733 48.6378 49.7781 47.5513C49.7414 46.7212 49.6715 45.8891 49.592 45.0553ZM58.3821 38.3268C58.0473 38.6034 57.7356 38.8833 57.4659 39.0338C55.6083 40.437 53.7974 41.9136 51.7986 43.1112C53.2671 41.4764 54.646 39.7747 56.0302 38.0729C56.8142 38.1571 57.5956 38.245 58.3792 38.33L58.3821 38.3268ZM52.9364 55.464C52.4879 56.5163 51.7561 57.5089 51.4063 58.6152C50.9906 56.6533 50.6569 54.6705 50.3765 52.6853C51.7133 53.5922 55.5155 49.7534 56.403 48.9479C55.2205 51.1028 54.0539 53.2759 52.9364 55.464ZM52.373 62.6521C52.1647 61.8776 51.9895 61.0991 51.8062 60.319C53.0321 61.0148 55.2981 57.925 56.1988 57.2112C55.1519 59.4451 53.7456 61.5734 52.9732 63.9159C52.9055 64.6217 53.6505 65.3124 54.331 64.942C54.8185 64.7168 55.2008 64.3303 55.5722 63.9508C55.0288 65.3496 54.3563 66.7372 53.815 68.1589C53.3523 66.3174 52.8628 64.4851 52.373 62.6521ZM58.821 55.9681C58.5456 57.053 58.273 58.1397 58.0006 59.2269C57.9003 59.2372 57.7978 59.2315 57.6991 59.2846C57.18 59.5559 56.8658 60.1044 56.4512 60.5054C57.2176 58.9946 57.9942 57.4717 58.821 55.9681ZM54.8255 72.4511C54.6963 71.8317 54.5332 71.2159 54.3907 70.6009C55.0049 69.5651 55.5456 68.4798 56.0331 67.3669C55.6287 69.0622 55.2012 70.7535 54.8255 72.4511ZM60.1297 50.7777C60.1123 50.8501 60.0949 50.9225 60.077 50.9952C60.0498 51.0037 60.0211 51.0013 59.9947 51.0155C59.6795 51.1341 59.4611 51.3928 59.2476 51.6394C57.6133 53.3796 55.9187 55.0674 54.2269 56.752C56.7428 52.0267 59.0046 47.2805 62.179 42.9732C62.2462 42.8896 62.3244 42.8044 62.3983 42.7257C61.561 45.3839 60.8442 48.0822 60.1354 50.7768L60.1297 50.7777ZM63.3502 38.8597C63.3175 39.3128 63.2383 39.7541 63.1435 40.1885C62.8298 40.0327 62.4378 40.0388 62.1688 40.3224C59.1407 43.7627 56.0414 47.1974 52.4773 50.1053C54.2118 47.4298 55.9967 44.7796 57.9577 42.2658C58.7178 41.2954 59.481 40.3279 60.2748 39.3852C60.5118 39.1729 60.6722 38.8784 60.7155 38.577C61.5942 38.6713 62.4715 38.7601 63.348 38.8626L63.3502 38.8597ZM54.6418 37.9097C53.2871 38.8703 52.1138 40.0947 51.0397 41.3532C50.4674 42.0456 49.8054 42.7422 49.4662 43.5815C49.271 41.4909 49.112 39.3992 49.3915 37.3078C51.137 37.5287 52.8901 37.7148 54.6386 37.9068L54.6418 37.9097ZM52.0265 35.872C52.0553 35.8799 52.0872 35.8905 52.1197 35.901C51.3814 35.8175 50.6459 35.7362 49.9102 35.6543C49.8304 35.6459 49.7529 35.6346 49.6731 35.6262C49.7031 35.5129 49.736 35.4019 49.7747 35.2901C49.7841 35.2722 49.7905 35.2521 49.7976 35.2372C50.5485 35.4073 51.2901 35.6516 52.0266 35.8774L52.0265 35.872Z" fill="#EFBA43"/>
</g>
</g>
</g>
<mask id="mask3_985_1781" style="mask-type:luminance" maskUnits="userSpaceOnUse" x="62" y="49" width="48" height="39">
<path d="M100.359 49.8741L109.233 72.8053L71.8186 87.284L62.9445 64.3529L100.359 49.8741Z" fill="white"/>
</mask>
<g mask="url(#mask3_985_1781)">
<mask id="mask4_985_1781" style="mask-type:luminance" maskUnits="userSpaceOnUse" x="28" y="21" width="119" height="108">
<path d="M57.4697 21.3811L146.331 92.865L117.661 128.504L28.8 57.0199L57.4697 21.3811Z" fill="white"/>
</mask>
<g mask="url(#mask4_985_1781)">
<mask id="mask5_985_1781" style="mask-type:luminance" maskUnits="userSpaceOnUse" x="28" y="21" width="119" height="108">
<path d="M57.4697 21.3811L146.331 92.865L117.661 128.504L28.8 57.0199L57.4697 21.3811Z" fill="white"/>
</mask>
<g mask="url(#mask5_985_1781)">
<path d="M88.0028 57.4879C84.9949 63.2248 82.1827 69.1298 78.6824 74.6291C77.0444 77.3878 74.9291 79.8339 73.3549 82.6275C72.7017 83.776 72.2689 84.9985 71.295 85.9242C72.0272 85.7432 72.7441 85.4929 73.4505 85.2296C72.9933 85.4994 72.5226 85.7486 72.0693 86.027C74.7249 85.9541 77.2931 84.9236 79.712 83.768C80.2879 84.0987 80.9251 83.6617 81.539 82.8862C83.81 81.7688 86.0663 80.6253 88.3468 79.5219C93.4474 77.0493 98.6344 74.7425 103.525 71.8663C104.426 71.5454 105.655 70.9991 105.622 70.146C106.247 69.1541 105.967 68.0563 104.426 66.8269C103.639 66.0101 102.943 65.1187 102.268 64.2078C103.103 63.049 103.83 61.8279 104.297 60.4796C103.174 61.1467 102.201 61.976 101.302 62.8909C99.6512 60.5424 98.2054 58.0583 96.7823 55.5661C96.0167 54.5018 95.1571 51.841 93.4676 52.5842C92.6781 53.0198 92.2098 53.8373 91.7109 54.5582C91.2425 55.293 90.7885 56.0352 90.3379 56.7793C89.5411 55.9494 88.7436 55.9511 87.9977 57.4939L88.0028 57.4879ZM103.338 69.9105C103.057 70.0877 102.777 70.2652 102.496 70.437C99.0447 71.8545 95.6625 73.408 92.2951 74.9998C93.1021 72.9251 93.9328 70.859 94.888 68.8469C94.5126 69.9482 94.4693 71.974 96.1891 71.2759C97.5218 70.3739 98.3963 68.8938 99.4633 67.7064C99.6174 67.5147 99.7782 67.3278 99.9336 67.141C101.073 68.0578 102.213 68.9751 103.334 69.9079L103.338 69.9105ZM78.3773 79.3017C79.3665 77.8117 80.3246 76.2972 81.2954 74.7928C80.6947 76.4779 80.2403 78.2853 79.8197 79.8547C79.7683 80.1402 79.6864 80.426 79.5988 80.7126C78.4194 81.1772 77.2583 81.682 76.1182 82.2235C76.9627 81.3262 77.7311 80.3581 78.3773 79.3017ZM84.1666 77.9645C84.1057 78.2625 84.12 78.5551 84.1881 78.8133C84.0184 78.8912 83.8478 78.9633 83.6806 79.0375C83.8945 78.5624 84.0654 78.1792 84.1695 77.9668L84.1666 77.9645ZM87.1292 77.4454C87.6566 76.3849 88.0857 75.2615 88.5513 74.1815C89.7047 71.258 90.7571 68.2942 91.9667 65.3951C91.2556 68.6386 90.7323 71.5846 90.1152 74.8121C90.1013 75.1787 89.9425 75.6737 89.8212 76.1672C88.9257 76.5951 88.0247 77.0176 87.1292 77.44L87.1292 77.4454ZM96.8234 68.205C97.0332 67.2206 97.3143 66.2432 97.5962 65.2716C97.9217 65.5332 98.2515 65.7883 98.5793 66.047C97.9963 66.7713 97.4197 67.5013 96.8234 68.205ZM93.0389 68.7365C93.4321 66.7061 93.882 64.7013 94.3376 62.6956C94.5602 62.875 94.7907 63.0453 95.0087 63.2252C95.1572 63.3446 95.3057 63.4639 95.4567 63.581C94.627 65.2904 93.8515 67.0283 93.0389 68.7365ZM91.4676 62.1726C89.6 66.3021 88.1671 70.6131 86.4358 74.8009C86.7658 73.0972 87.1247 71.402 87.5707 69.7252C87.7923 68.8724 88.046 68.031 88.3017 67.186C88.4377 66.7391 88.155 66.2468 87.7092 66.1225C87.3094 66.0103 86.831 66.2117 86.6789 66.61C86.2609 67.6817 85.8695 68.7642 85.4627 69.8404C84.3185 72.8735 83.2463 75.9437 81.8715 78.8832C82.6012 76.5369 82.9772 74.1101 83.3164 71.6846C85.1987 68.71 87.0489 65.7188 88.8531 62.6965C89.4661 61.6998 90.0479 60.6785 90.6326 59.6594C91.086 60.085 91.5598 60.4918 92.0468 60.8888C91.868 61.3266 91.6799 61.7564 91.4765 62.1746L91.4676 62.1726ZM101.75 66.3677C101.514 66.1782 101.279 65.989 101.043 65.7995C101.088 65.7436 101.136 65.6851 101.181 65.6291C101.368 65.8777 101.554 66.1289 101.747 66.3708L101.75 66.3677ZM99.6698 64.7103C99.142 64.2953 98.6184 63.8738 98.09 63.4591C98.2393 62.8802 98.3622 62.296 98.4627 61.7083C98.9892 62.5507 99.5447 63.3697 100.121 64.1751C99.9677 64.3525 99.8203 64.5301 99.6698 64.7103ZM97.5322 60.195C97.3588 60.2336 97.1928 60.3195 97.0744 60.4792C96.7859 60.977 96.522 61.4891 96.2529 62.0018C95.7521 61.6095 95.2563 61.2105 94.7584 60.8151C94.9039 60.1774 95.0509 59.5453 95.1875 58.9056C95.28 58.5562 95.3309 58.138 95.2226 57.7653C95.0956 57.143 94.2357 56.8802 93.7938 57.3405C93.3641 57.9126 93.0432 58.5524 92.7494 59.2096C92.3221 58.8654 91.9125 58.5002 91.518 58.1216C92.2876 56.8223 93.0872 55.5426 94.0032 54.3412C95.2258 56.2328 96.3577 58.2245 97.5321 60.1896L97.5322 60.195Z" fill="#EFBA43"/>
</g>
</g>
</g>
<mask id="mask6_985_1781" style="mask-type:luminance" maskUnits="userSpaceOnUse" x="86" y="88" width="48" height="42">
<path d="M123.597 88.4082L133.697 114.507L96.1318 129.045L86.0317 102.945L123.597 88.4082Z" fill="white"/>
</mask>
<g mask="url(#mask6_985_1781)">
<mask id="mask7_985_1781" style="mask-type:luminance" maskUnits="userSpaceOnUse" x="28" y="21" width="119" height="108">
<path d="M57.4697 21.3811L146.331 92.865L117.661 128.504L28.8 57.0199L57.4697 21.3811Z" fill="white"/>
</mask>
<g mask="url(#mask7_985_1781)">
<mask id="mask8_985_1781" style="mask-type:luminance" maskUnits="userSpaceOnUse" x="28" y="21" width="119" height="108">
<path d="M57.4697 21.3811L146.331 92.865L117.661 128.504L28.8 57.0199L57.4697 21.3811Z" fill="white"/>
</mask>
<g mask="url(#mask8_985_1781)">
<path d="M124.816 114.414C125.946 113.808 127.219 112.929 125.95 112.021C125.533 111.823 125.11 111.987 124.697 112.094C124.642 112.106 124.584 112.121 124.532 112.135C124.498 111.505 124.48 110.874 124.496 110.239C124.898 109.885 125.282 109.514 125.632 109.112C126.106 108.478 125.673 107.538 124.892 107.45C124.825 107.458 124.757 107.48 124.693 107.489C124.797 106.441 124.914 105.388 125.03 104.337C125.151 104.2 125.265 104.052 125.357 103.892C125.478 103.627 125.414 103.352 125.277 103.123C125.62 101.777 125.985 100.423 126.424 99.0719C126.608 98.3428 127.336 97.5005 126.679 96.8136C126.386 96.5062 125.96 96.5101 125.57 96.5382C125.018 96.5839 124.466 96.6605 123.918 96.7142C122.6 96.1134 120.614 96.3062 119.262 96.4271C116.423 96.7099 113.619 97.234 110.843 97.8883C106.589 98.8894 102.302 99.7975 98.0011 100.515C95.2891 100.95 92.3909 101.16 89.991 102.571C90.5018 102.665 91.0098 102.681 91.5198 102.719C90.972 102.937 90.4343 103.162 89.9055 103.425C88.6605 103.102 87.3683 102.971 86.0882 102.946C86.0907 102.917 86.0575 102.952 86.0731 102.965C87.1793 103.834 88.401 104.491 89.6767 105.042C89.9383 105.319 90.2175 105.574 90.5056 105.806C92.903 107.734 96.1935 108.228 99.0871 109.077C101.445 109.678 103.799 110.291 106.128 110.991C106.213 111.024 106.301 111.054 106.39 111.085C110.123 112.69 114.263 113.694 117.509 116.224C118.039 116.706 118.449 117.312 118.813 117.925C119.096 118.531 119.682 119.14 120.399 118.819C121.065 118.473 121.281 117.692 121.533 116.992C123.126 117.681 125.481 118.755 125.574 116.921C125.224 116.094 124.997 115.253 124.829 114.404L124.816 114.414ZM107.995 109.754C107.53 109.609 107.058 109.48 106.591 109.344C105.506 108.935 104.419 108.525 103.329 108.128C102.489 107.829 100.756 107.211 100.292 107.047C100.039 106.955 99.7806 106.865 99.5249 106.777C100.229 106.567 100.906 106.296 101.314 106.195C103.37 105.478 105.411 104.716 107.438 103.909C106.331 104.809 102.213 106.567 104.353 108.226C105.03 108.583 105.853 108.358 106.572 108.232C107.882 107.954 109.139 107.496 110.4 107.051C109.655 107.779 108.963 109.268 110.127 109.938C110.509 110.169 110.986 110.227 111.425 110.208C112.777 110.107 114.104 109.75 115.395 109.325C114.719 112.576 120.036 110.437 121.959 109.912C121.942 109.99 121.915 110.066 121.899 110.144C120.944 110.938 119.82 111.625 119.252 112.744C118.885 113.974 119.654 114.425 120.632 114.522C120.606 114.599 120.572 114.673 120.546 114.749C116.378 113.044 112.295 111.132 108.001 109.754L107.995 109.754ZM115.094 103.022C112.419 104.375 109.681 105.636 106.779 106.409C109.072 104.871 111.401 103.383 113.8 102.007C114.755 101.465 115.706 100.898 116.682 100.382C116.945 100.257 117.185 100.118 117.351 99.8489C117.476 99.6487 117.493 99.4323 117.447 99.2276C119.447 98.9489 121.448 98.7066 123.452 98.4921C123.572 98.7423 123.532 99.0771 123.57 99.3475C123.625 100.616 123.536 101.881 123.413 103.144C121.961 103.859 120.654 104.894 119.318 105.793C116.839 107.043 114.262 108.128 111.465 108.479C112.813 106.962 114.433 105.766 116.043 104.48C117.145 103.917 118.236 103.321 119.32 102.728C120.152 102.194 121.204 101.857 121.831 101.065C122.675 97.3013 116.058 102.293 115.095 103.034L115.094 103.022ZM122.139 106.225C122.373 106.067 122.626 105.923 122.882 105.783C122.721 106.515 122.56 107.248 122.399 107.981C120.792 108.438 119.203 109.032 117.564 109.299C118.968 108.093 120.481 107.055 122.139 106.225ZM104.586 101.512C107.152 100.985 109.721 100.45 112.3 100.02C112.4 100.004 112.501 99.9926 112.598 99.974C112.008 100.219 111.413 100.47 110.819 100.701C107.666 101.97 104.51 103.236 101.304 104.362C102.474 103.522 103.614 102.593 104.581 101.513L104.586 101.512ZM122.286 114.939C122.353 114.754 122.426 114.568 122.489 114.383C122.605 114.359 122.718 114.333 122.819 114.302C122.643 114.508 122.463 114.725 122.286 114.939ZM91.6464 103.494C92.1452 103.482 92.6413 103.468 93.1413 103.437C95.9942 103.156 98.8178 102.652 101.636 102.098C100.718 102.68 99.8202 103.295 98.9388 103.928C98.274 104.495 97.1132 104.948 96.9664 105.866C95.8642 105.48 94.7625 105.093 93.6772 104.704C92.4937 104.299 91.4141 103.859 90.1728 103.493C90.6643 103.485 91.1577 103.499 91.6513 103.488L91.6464 103.494ZM119.812 116.327C119.851 116.343 119.89 116.359 119.928 116.374C119.919 116.397 119.91 116.421 119.904 116.442C119.877 116.399 119.842 116.366 119.818 116.327L119.812 116.327ZM122.444 115.51C122.704 115.409 122.964 115.302 123.22 115.186C123.264 115.41 123.28 115.637 123.33 115.861C123.032 115.749 122.741 115.622 122.441 115.508L122.444 115.51Z" fill="#EFBA43"/>
</g>
</g>
</g>
</g>
<defs>
<clipPath id="clip0_985_1781">
<rect width="121.324" height="121.324" fill="white" transform="translate(113.147) rotate(68.8442)"/>
</clipPath>
</defs>
</svg>
