<svg width="80" height="80" viewBox="0 0 80 80" fill="none" xmlns="http://www.w3.org/2000/svg">
<path fill-rule="evenodd" clip-rule="evenodd" d="M79.997 39.997C79.997 39.997 80.4715 21.617 69.427 10.5728C58.383 -0.471219 40.003 0.00296544 40.003 0.00296544C40.003 0.00296544 40.0004 0.0976325 40 0.27741C40 0.201484 39.9993 0.140743 39.9989 0.0958914C39.9981 0.0345581 39.997 0.00296544 39.997 0.00296544C39.997 0.00296544 21.617 -0.471219 10.5728 10.5728C-0.471219 21.617 0.00296544 39.997 0.00296544 39.997C0.00296544 39.997 18.3832 40.4711 29.427 29.427C39.5219 19.3326 39.9937 3.1093 40 0.394225C40.0067 3.1093 40.4785 19.3326 50.573 29.427C61.617 40.4711 79.997 39.997 79.997 39.997ZM10.5728 69.427C-0.471219 58.383 0.00296544 40.003 0.00296544 40.003C0.00296544 40.003 18.3832 39.5289 29.427 50.573C39.5219 60.6674 39.9937 76.8907 40 79.6059C40.0067 76.8907 40.4785 60.6674 50.573 50.573C61.617 39.5289 79.997 40.003 79.997 40.003C79.997 40.003 80.4715 58.383 69.427 69.427C58.383 80.4711 40.003 79.997 40.003 79.997C40.003 79.997 40.0004 79.9022 40 79.7226C39.9996 79.9022 39.997 79.997 39.997 79.997C39.997 79.997 21.617 80.4711 10.5728 69.427Z" fill="#FFEB66"/>
</svg>
