<svg width="125" height="98" viewBox="0 0 125 98" fill="none" xmlns="http://www.w3.org/2000/svg">
<path d="M9.21227 28.8278H81.2486C83.691 28.8304 86.0325 29.7577 87.7596 31.4062C89.4866 33.0547 90.4581 35.2898 90.4608 37.6211V75.2386C90.4581 77.5699 89.4866 79.805 87.7596 81.4535C86.0325 83.102 83.691 84.0293 81.2486 84.032H9.21227C6.76987 84.0293 4.42828 83.102 2.70124 81.4535C0.9742 79.805 0.00274456 77.5699 0 75.2386V37.6211C0.00274405 35.2898 0.9742 33.0547 2.70124 31.4062C4.42828 29.7577 6.76986 28.8304 9.21227 28.8278Z" fill="#3F3D56"/>
<path d="M9.21217 31.3586H81.2485C82.9878 31.3605 84.6553 32.0208 85.8852 33.1948C87.1151 34.3687 87.8069 35.9604 87.8088 37.6206V75.238C87.8069 76.8982 87.1151 78.4899 85.8852 79.6638C84.6553 80.8378 82.9878 81.4981 81.2485 81.5H9.21217C7.47289 81.4981 5.80541 80.8378 4.57556 79.6638C3.34571 78.4899 2.65393 76.8982 2.65198 75.238V37.6206C2.65392 35.9604 3.34571 34.3687 4.57556 33.1948C5.80541 32.0209 7.47289 31.3605 9.21217 31.3586Z" fill="white"/>
<path d="M9.9151 97.5002C9.69773 97.4996 9.48262 97.458 9.28209 97.3779C8.98278 97.2631 8.72677 97.0647 8.54755 96.8087C8.36834 96.5527 8.27427 96.251 8.27768 95.9431V82.939L26.4405 82.3557L11.0553 97.0413C10.9065 97.186 10.7291 97.3011 10.5334 97.3799C10.3377 97.4586 10.1275 97.4995 9.9151 97.5002Z" fill="#3F3D56"/>
<path d="M72.2265 40.7158H18.0588C15.8901 40.7158 14.132 42.394 14.132 44.4641V44.4641C14.132 46.5342 15.8901 48.2123 18.0588 48.2123H72.2265C74.3952 48.2123 76.1533 46.5342 76.1533 44.4641C76.1533 42.394 74.3952 40.7158 72.2265 40.7158Z" fill="#E6E6E6"/>
<path d="M72.3142 52.6818H18.1465C15.9778 52.6818 14.2197 54.3599 14.2197 56.43V56.43C14.2197 58.5001 15.9778 60.1783 18.1465 60.1783H72.3142C74.4829 60.1783 76.241 58.5001 76.241 56.43C76.241 54.3599 74.4829 52.6818 72.3142 52.6818Z" fill="#E6E6E6"/>
<path d="M72.402 64.6466H18.2344C16.0657 64.6466 14.3076 66.3248 14.3076 68.3949V68.3949C14.3076 70.465 16.0657 72.1431 18.2344 72.1431H72.402C74.5708 72.1431 76.3289 70.465 76.3289 68.3949C76.3289 66.3248 74.5708 64.6466 72.402 64.6466Z" fill="#E6E6E6"/>
<path d="M76.7556 45.6208C69.9266 41.9617 63.9903 36.9969 59.3304 31.0471C59.0516 30.6952 58.8878 30.2747 58.8588 29.8368C58.8299 29.3989 58.937 28.9626 59.1673 28.581L68.7607 12.5232C69.0757 11.9974 69.5996 11.6106 70.2176 11.4474C70.8357 11.2843 71.4973 11.3583 72.0574 11.653L110.06 31.7063C110.62 32.0023 111.031 32.4947 111.205 33.0755C111.378 33.6563 111.3 34.2782 110.986 34.8046L101.393 50.8624C101.166 51.2458 100.825 51.559 100.412 51.7637C99.9995 51.9684 99.5321 52.0559 99.0673 52.0155C91.2361 51.3739 83.6351 49.1954 76.7556 45.6208Z" fill="#0085C1"/>
<path d="M84.5222 32.6093C84.2404 32.4608 83.9929 32.2609 83.7944 32.0213L60.7975 4.17031C60.5009 3.81117 60.3256 3.37676 60.2941 2.92311C60.2627 2.46946 60.3766 2.01737 60.6211 1.62511C60.8656 1.23285 61.2295 0.91843 61.666 0.722369C62.1024 0.526308 62.5913 0.457597 63.0697 0.525109L99.6249 5.6828C100.214 5.76507 100.75 6.04933 101.13 6.48084L124.443 32.9144C124.75 33.263 124.94 33.69 124.988 34.1406C125.036 34.5911 124.94 35.0449 124.712 35.4438C124.483 35.8426 124.134 36.1685 123.708 36.3796C123.281 36.5907 122.798 36.6776 122.319 36.629L85.4475 32.8886C85.1222 32.8551 84.8074 32.7601 84.5222 32.6093Z" fill="#0085C1"/>
<path d="M60.9521 33.3399C62.5068 34.1602 64.4748 33.6408 65.3477 32.1797C66.2206 30.7186 65.6679 28.8691 64.1133 28.0487C62.5586 27.2283 60.5906 27.7477 59.7177 29.2088C58.8448 30.67 59.3974 32.5195 60.9521 33.3399Z" fill="#3F3D56"/>
<path d="M123.435 34.9871L86.5634 31.2466C86.2759 31.2175 85.9977 31.1342 85.7452 31.0017C85.4928 30.8693 85.2713 30.6904 85.0941 30.4757L62.0969 2.62503C61.8059 2.27884 61.646 1.85141 61.6424 1.41028C61.3801 1.55671 61.154 1.7539 60.9791 1.98875C60.8041 2.22361 60.6844 2.49075 60.6277 2.77245C60.571 3.05415 60.5787 3.34395 60.6504 3.62262C60.722 3.90129 60.8559 4.16244 61.0432 4.38875L84.0404 32.2394C84.2176 32.4541 84.4391 32.633 84.6915 32.7654C84.9439 32.8979 85.2222 32.9812 85.5097 33.0104L122.381 36.7508C122.683 36.7818 122.989 36.7521 123.279 36.6637C123.568 36.5754 123.834 36.4304 124.059 36.2383C124.284 36.0462 124.464 35.8114 124.585 35.5494C124.707 35.2874 124.768 35.0042 124.764 34.7184C124.365 34.9432 123.897 35.0377 123.435 34.9871Z" fill="#006A9A"/>
<path d="M62.7754 30.8088C62.8998 30.8744 63.0469 30.891 63.1843 30.8547C63.3217 30.8184 63.4381 30.7324 63.508 30.6154L72.3226 15.8612L90.9615 18.7286C91.0849 18.796 91.2317 18.8145 91.3697 18.7802C91.5077 18.7459 91.6255 18.6614 91.6972 18.5455C91.7689 18.4295 91.7887 18.2915 91.7521 18.1619C91.7156 18.0322 91.6258 17.9215 91.5024 17.8541L72.8634 14.9867C72.7405 14.9183 72.6041 14.8741 72.4625 14.8567C72.3209 14.8393 72.1769 14.8491 72.0394 14.8855C71.9016 14.9204 71.7726 14.9809 71.6601 15.0635C71.5476 15.146 71.4538 15.2489 71.3843 15.3661L62.5696 30.1203C62.4998 30.2372 62.4822 30.3754 62.5208 30.5046C62.5594 30.6337 62.651 30.7431 62.7754 30.8088Z" fill="#3F3D56"/>
</svg>
