<svg width="12" height="12" viewBox="0 0 12 12" fill="none" xmlns="http://www.w3.org/2000/svg">
<path d="M11.6875 1.5625V8.5625C11.6875 8.79456 11.5953 9.01712 11.4312 9.18122C11.2671 9.34531 11.0446 9.4375 10.8125 9.4375H7.50773L6.75961 10.7467C6.68306 10.8806 6.57249 10.9919 6.4391 11.0693C6.3057 11.1467 6.15422 11.1874 6 11.1874C5.84578 11.1874 5.6943 11.1467 5.5609 11.0693C5.42751 10.9919 5.31694 10.8806 5.24039 10.7467L4.49227 9.4375H1.1875C0.955436 9.4375 0.732876 9.34531 0.568782 9.18122C0.404687 9.01712 0.3125 8.79456 0.3125 8.5625V1.5625C0.3125 1.33044 0.404687 1.10788 0.568782 0.943781C0.732876 0.779687 0.955436 0.6875 1.1875 0.6875H10.8125C11.0446 0.6875 11.2671 0.779687 11.4312 0.943781C11.5953 1.10788 11.6875 1.33044 11.6875 1.5625Z" fill="black"/>
</svg>
