<svg width="212" height="101" viewBox="0 0 212 101" fill="none" xmlns="http://www.w3.org/2000/svg">
<path d="M132.357 33.4549C129.998 33.8831 128.565 35.0017 128.041 36.8369C127.849 37.501 127.831 37.7283 127.831 39.4411C127.831 41.5122 127.901 41.9492 128.416 42.9803C128.976 44.1077 129.447 44.5446 132.235 46.4672C135.074 48.4247 135.293 48.6432 135.467 49.753C135.59 50.4783 135.59 51.5357 135.476 51.9552C135.266 52.6893 134.69 53.0301 134.034 52.8116C133.501 52.6369 133.44 52.3747 133.397 50.1637L133.362 48.2674H130.662H127.962V49.7705C127.971 52.5145 128.277 53.7642 129.194 54.7779C130.356 56.0363 132.304 56.7441 134.646 56.7441C136.769 56.7441 138.595 56.1586 139.766 55.1012C140.404 54.5245 140.666 54.0875 140.91 53.1961C141.076 52.5844 141.103 52.2786 141.103 50.5395C141.111 48.4596 141.068 48.0926 140.666 46.8429C140.412 46.0739 139.941 45.3748 139.224 44.7369C138.49 44.064 137.206 43.1376 135.913 42.3337C134.017 41.1452 133.632 40.7956 133.414 40.079C133.274 39.6159 133.248 38.4012 133.379 37.9642C133.554 37.3525 134.139 37.0291 134.681 37.2564C135.074 37.4137 135.153 37.6933 135.196 39.1964L135.231 40.5771H137.984H140.744L140.683 39.2401C140.605 37.6671 140.517 36.968 140.273 36.2339C139.827 34.8794 138.167 33.8132 135.974 33.4549C135.004 33.2976 133.222 33.2976 132.357 33.4549Z" fill="black"/>
<path d="M92.0527 45.0341V56.3073H97.1639H102.275V54.0351V51.763H100.135H97.9939V49.3161V46.8692H99.785H101.576V44.7282V42.5872H99.785H97.9939V40.4461V38.3051H99.9161H101.838V36.033V33.7609H96.9455H92.0527V45.0341Z" fill="black"/>
<path d="M104.11 45.0341V56.3073H107.08H110.051V45.0341V33.7609H107.08H104.11V45.0341Z" fill="black"/>
<path d="M112.584 45.0341V56.3073H115.075H117.565L117.582 51.361L117.608 46.4148L118.954 50.9416C119.696 53.4409 120.36 55.6606 120.422 55.8878L120.553 56.3073H123.121H125.69V45.0341V33.7609H123.244H120.797L120.78 38.7595L120.754 43.7582L119.137 38.7595L117.521 33.7609H115.057H112.584V45.0341Z" fill="black"/>
<path d="M142.204 36.033V38.3051H143.907H145.611V47.3062V56.3073H148.582H151.552V47.3062V38.3051H153.3H155.047V36.033V33.7609H148.625H142.204V36.033Z" fill="black"/>
<path d="M156.532 45.0341V56.3073H161.643H166.755V54.0351V51.763H164.614H162.473V49.3161V46.8692H164.265H166.056V44.7282V42.5872H164.265H162.473V40.4461V38.3051H164.396H166.318V36.033V33.7609H161.425H156.532V45.0341Z" fill="black"/>
<path d="M168.677 45.0341V56.3073H171.647H174.618V45.0341V33.7609H171.647H168.677V45.0341Z" fill="black"/>
<path d="M177.064 45.0341V56.3073H179.555H182.045L182.062 51.361L182.088 46.4148L183.434 50.9416C184.176 53.4409 184.84 55.6606 184.902 55.8878L185.033 56.3073H187.601H190.17V45.0341V33.7609H187.724H185.277L185.26 38.7595L185.234 43.7582L183.617 38.7595L182.001 33.7609H179.537H177.064V45.0341Z" fill="black"/>
<path d="M182.044 67.4231C180.585 71.9062 179.187 76.2145 178.934 77.001L178.479 78.4254L179.493 78.3992L180.506 78.373L181.293 75.7688L182.079 73.1733H184.77H187.452L187.627 73.7588C187.723 74.0909 188.073 75.2532 188.405 76.363L189.008 78.373L190.039 78.3992C190.842 78.4167 191.052 78.3992 191.026 78.3118C191 78.2506 189.593 73.9424 187.889 68.734C186.194 63.5343 184.779 59.2785 184.753 59.2785C184.726 59.2785 183.503 62.9488 182.044 67.4231ZM185.897 68.1048L186.998 71.6003H184.77C182.699 71.6003 182.551 71.5916 182.586 71.443C182.752 70.8226 184.718 64.6092 184.753 64.6092C184.779 64.6092 185.294 66.1822 185.897 68.1048Z" fill="black"/>
<path d="M124.17 60.4582C123.375 60.6592 122.685 61.0787 122.082 61.7166C120.623 63.2809 120.02 65.9375 120.125 70.3943C120.186 73.1733 120.448 74.5803 121.156 76.0309C122.099 77.936 123.69 78.8536 125.865 78.74C127.656 78.6526 128.914 77.9185 129.788 76.4591C130.172 75.8212 130.618 74.4929 130.81 73.4355C131.029 72.1945 131.081 68.2708 130.898 66.7065C130.504 63.2546 129.36 61.3146 127.298 60.5805C126.617 60.3358 124.922 60.2747 124.17 60.4582ZM126.459 62.0312C128.504 62.6429 129.395 65.6141 129.107 70.8662C128.906 74.4317 128.285 76.1271 126.905 76.8873C126.477 77.1233 126.354 77.1495 125.603 77.1495C124.869 77.1495 124.712 77.1233 124.275 76.9048C123.113 76.3368 122.397 74.9036 122.099 72.5616C121.925 71.2158 121.951 67.292 122.143 66.156C122.606 63.3071 123.707 61.9263 125.524 61.9088C125.786 61.9001 126.206 61.9613 126.459 62.0312Z" fill="black"/>
<path d="M92.3149 69.5466V78.4166H93.2323H94.1497V74.1783V69.9399H97.033H99.9162V69.1534V68.3669H97.033H94.1497V65.3083V62.2496H97.994H101.838V61.4631V60.6766H97.0766H92.3149V69.5466Z" fill="black"/>
<path d="M107.255 69.5466V78.4166H112.017H116.778V77.6301V76.8436H112.934H109.09V68.7601V60.6766H108.172H107.255V69.5466Z" fill="black"/>
<path d="M136.175 69.5466V78.4166H137.092H138.01V74.7463V71.0759H139.346H140.692L142.824 74.7463L144.956 78.4166H146.126C147.044 78.4166 147.271 78.3904 147.201 78.303C147.017 78.0758 142.553 70.7351 142.553 70.6652C142.553 70.6215 142.806 70.4205 143.121 70.2108C144.292 69.433 145.157 68.262 145.48 67.0123C145.663 66.2783 145.646 65.1335 145.436 64.2945C144.964 62.4244 143.898 61.2709 142.256 60.8514C141.635 60.6941 141.286 60.6766 138.866 60.6766H136.175V69.5466ZM141.854 62.4943C142.955 62.8526 143.523 63.5867 143.68 64.8538C143.907 66.6715 143.357 68.1834 142.203 68.8737C141.435 69.3369 140.998 69.433 139.434 69.4767L138.01 69.5292V65.8763V62.2322L139.652 62.2671C140.998 62.3021 141.391 62.3458 141.854 62.4943Z" fill="black"/>
<path d="M151.831 61.4369L151.858 62.2059L153.063 62.2322L154.26 62.2584V69.5466V76.8349L153.063 76.8611L151.858 76.8873L151.831 77.6476L151.805 78.4166H155.178H158.541V77.6301V76.8436H157.318H156.095V69.5466V62.2496H157.318H158.541V61.4631V60.6766H155.178H151.805L151.831 61.4369Z" fill="black"/>
<path d="M165.881 69.5466V78.4166H166.798H167.716V74.9211V71.4255H169.009C171.28 71.4255 172.696 70.9798 173.797 69.9224C174.775 68.9873 175.221 67.7726 175.23 66.0685C175.23 63.2721 173.98 61.4369 171.682 60.8514C171.088 60.6941 170.712 60.6766 168.441 60.6766H165.881V69.5466ZM171.534 62.5468C172.6 63.0361 173.133 63.8926 173.307 65.3607C173.447 66.6191 173.237 67.7115 172.696 68.498C172.372 68.9699 172.023 69.2495 171.342 69.5641C170.844 69.7913 170.739 69.8088 169.271 69.835L167.716 69.87V66.0511V62.2322L169.358 62.2671C170.931 62.3021 171.01 62.3108 171.534 62.5468Z" fill="black"/>
<path d="M60.5643 22.4003C58.9042 22.6101 56.5802 23.3616 54.7279 24.2879C53.9241 24.6899 52.2204 25.8085 51.6787 26.2804C51.5127 26.429 51.1719 26.7174 50.936 26.9096C50.7001 27.1106 50.1846 27.6 49.7915 28.002C48.1926 29.6362 47.4237 31.1305 47.38 32.6773C47.3626 33.3152 47.3538 33.3327 47.1616 33.2803C45.0647 32.7647 41.6835 32.6249 39.6739 32.9657C36.747 33.4638 34.2045 34.7309 32.2824 36.6448C30.7709 38.1479 29.9234 39.6247 29.4691 41.5823C29.2506 42.4911 29.1633 42.9717 28.84 45.1215C28.5429 47.0878 27.809 49.1152 27.0227 50.1464C25.7209 51.8592 24.0521 52.7506 21.7892 52.9516C21.0203 53.0215 20.8543 53.1264 20.9854 53.4847C21.0465 53.6594 21.1951 53.773 21.5882 53.9303C22.9075 54.4634 23.4492 54.9878 25.9568 58.1425C26.4023 58.7105 27.6692 59.8815 28.0973 60.1262C28.9099 60.5894 29.6176 60.7904 30.5175 60.7991C30.9631 60.7991 31.33 60.8166 31.33 60.8341C31.33 60.8428 31.1466 61.1574 30.9281 61.5245C29.5127 63.849 28.4206 67.3533 28.0973 70.6129C27.9488 72.0898 28.0187 72.1422 29.5389 71.6354C30.4913 71.312 31.3825 71.3208 32.6843 71.6441C33.4794 71.8539 33.8813 71.8976 35.052 71.9325C36.2752 71.9587 36.5635 71.9412 37.1839 71.7839C38.311 71.4956 38.9051 70.9537 39.2808 69.8439C39.4468 69.372 39.4642 69.1623 39.4293 68.4544C39.3856 67.6854 39.2633 67.1174 39.106 66.9426C39.0711 66.8989 38.5731 66.8552 38.0052 66.8465C37.4285 66.829 36.8169 66.7765 36.6422 66.7154C35.751 66.427 35.0346 65.4482 35.0608 64.5306C35.0695 64.0413 35.4452 62.8353 35.8034 62.1362C36.0481 61.6468 36.6334 61.1225 37.3761 60.7292C37.9353 60.4234 38.0314 60.3971 38.4857 60.4408C39.0798 60.4933 39.4642 60.668 39.9098 61.0963C40.1283 61.2972 40.2681 61.3846 40.3292 61.3235C40.3729 61.2798 40.469 60.6943 40.5389 60.0214C40.7049 58.4221 41.0194 56.9977 41.4039 56.1326C41.6136 55.6606 41.9893 55.18 42.697 54.5071C44.8026 52.4972 45.7549 51.6145 46.1394 51.3261C46.384 51.1426 46.7772 50.8368 47.0131 50.6532C47.546 50.2425 49.0401 49.2288 49.11 49.2288C49.1362 49.2288 49.6342 48.9929 50.2196 48.7045C51.3903 48.119 52.0544 47.7082 52.3864 47.3499C52.8232 46.878 52.8756 46.8868 53.4435 47.516C54.8589 49.054 57.4102 50.2425 60.206 50.6707C61.4117 50.8455 63.4912 50.9242 64.3736 50.828L65.0464 50.7494L65.09 51.1863C65.4221 54.5508 65.8939 56.6045 66.7414 58.4047L67.0559 59.0601H67.9121C68.6548 59.0601 68.8382 59.095 69.2489 59.2873C70.6992 59.9689 71.3982 61.9264 70.6818 63.3072C70.4197 63.8228 69.7906 64.4083 69.3363 64.5743C68.978 64.7054 68.9081 64.7579 68.9431 64.9064C68.9693 65.0113 69.0654 65.457 69.1615 65.9027C69.4411 67.1698 69.878 68.1049 70.4721 68.7078C71.4069 69.6429 73.2767 69.8963 75.9327 69.4594C76.9812 69.2846 77.5578 69.2409 78.7898 69.2409C79.6373 69.2409 80.3537 69.206 80.3799 69.1623C80.4935 68.9788 79.5149 65.0025 78.9995 63.5344C78.5539 62.276 78.1083 61.3584 77.6103 60.6855C77.418 60.4146 77.2258 60.1787 77.1996 60.1525C77.1647 60.1262 77.0074 59.9951 76.8414 59.8553C76.5618 59.6194 76.5531 59.5932 76.7103 59.5058C77.9772 58.7542 79.148 57.7405 80.2401 56.4297C81.7778 54.577 82.8438 52.7419 83.2981 51.1514C83.8835 49.1152 84.0932 47.9879 84.4863 44.772C84.6174 43.7408 84.8271 42.2814 84.9494 41.5386C85.2901 39.5024 85.2814 39.6073 85.028 39.3626L84.8009 39.1528L84.4339 39.415C82.8175 40.5598 79.7945 40.7084 74.9717 39.8782C72.7088 39.4937 72.4379 39.4237 71.171 38.8557C68.6548 37.7371 66.82 37.0118 65.8502 36.7671L65.2124 36.6098L65.2561 36.1641C65.3085 35.6398 65.7541 34.4338 66.0686 33.9794C66.4268 33.4463 66.3395 33.2541 65.5968 32.8783C65.1163 32.6336 64.7493 32.52 64.1814 32.4414L63.4213 32.3365L63.3601 31.3665C63.2378 29.1817 63.6834 27.4864 64.7144 26.2367C65.4745 25.3104 66.2608 24.6113 66.8113 24.3579C67.0996 24.2268 67.3267 24.0695 67.3267 24.017C67.3267 23.851 66.3307 23.1694 65.7104 22.8985C64.6969 22.4703 64.2338 22.3829 62.6524 22.3566C61.8399 22.3392 60.8963 22.3566 60.5643 22.4003Z" fill="black"/>
<path d="M48.4545 68.0611C47.0479 68.2796 46.2091 68.7165 44.3743 70.1497C44.1035 70.3594 44.0423 70.2983 43.5531 69.4244C43.2909 68.935 43.1162 68.7165 43.0026 68.7165C42.8628 68.7165 42.8454 68.7602 42.889 69.0399C42.924 69.2147 43.0987 69.6691 43.2997 70.0536C43.4919 70.4381 43.6492 70.7877 43.6492 70.8314C43.6492 70.875 43.4744 71.1197 43.2735 71.3644C42.557 72.2121 41.9979 73.1821 41.6921 74.0735C41.4736 74.7289 41.028 76.9136 41.0892 77.0622C41.2115 77.3855 41.4387 77.3855 42.094 77.0535C42.4434 76.8787 42.8279 76.6602 42.9415 76.5728C43.055 76.4767 43.1774 76.4068 43.2123 76.4068C43.2473 76.4068 43.2997 76.6602 43.3259 76.9748C43.3696 77.5778 43.5443 77.8924 43.8239 77.8924C44.0423 77.8924 45.1432 77.4205 45.8859 77.0098L46.5324 76.6602V77.0535C46.5324 77.5603 46.777 77.8487 47.1265 77.7613C47.642 77.6302 48.5507 77.5516 49.6078 77.5428C50.6213 77.5428 50.7437 77.5603 51.1368 77.77C51.8183 78.1196 52.8318 78.2594 54.7015 78.2769C56.4053 78.2856 57.4887 78.1633 57.8644 77.9273C58.0129 77.8312 58.4148 77.805 59.4982 77.805H60.9398L61.1145 77.5778C61.2194 77.4467 61.298 77.2457 61.298 77.1321C61.298 77.0098 61.3242 76.9311 61.3679 76.9486C61.4029 76.9573 61.6562 77.0884 61.9271 77.2195C62.1979 77.3593 62.5736 77.4904 62.7571 77.5166C63.159 77.5691 63.2813 77.4554 63.491 76.8525C63.6308 76.4505 63.6308 76.4505 64.0327 76.4592C64.3647 76.4592 64.522 76.5291 65.0462 76.9136C65.4132 77.1758 65.7627 77.3681 65.8937 77.3681C66.2257 77.3681 66.3917 76.8874 66.348 76.0485C66.3131 75.5067 66.2519 75.2707 65.9898 74.7551C65.8151 74.4056 65.6666 74.0647 65.6666 73.9948C65.6666 73.5754 64.9676 72.0111 64.4696 71.312L64.1725 70.8925L64.6531 70.3682C64.9239 70.0798 65.2384 69.6691 65.3695 69.4593C65.6491 68.97 65.885 68.1135 65.7714 67.9999C65.6316 67.8601 65.518 67.9912 65.186 68.6466C64.889 69.2409 64.2599 70.1322 63.9716 70.3682C63.858 70.4643 63.7706 70.4206 63.3774 70.0711C62.5649 69.337 61.4902 68.7253 60.2933 68.3233C59.935 68.2009 58.4585 67.9388 58.1003 67.93C58.0478 67.93 57.9779 68.0873 57.943 68.2883C57.6809 69.9138 55.7325 71.1372 53.8715 70.8226C52.3251 70.5692 51.1892 69.6603 50.8747 68.4369L50.7611 67.9737L49.9748 67.9562C49.5467 67.9475 48.8652 67.9999 48.4545 68.0611Z" fill="black"/>
</svg>
