<svg width="105" height="101" viewBox="0 0 105 101" fill="none" xmlns="http://www.w3.org/2000/svg">
<path d="M60.0359 22.6016C59.0789 22.699 57.4515 23.1118 56.2998 23.5476C55.0448 24.0177 53.4232 24.8204 52.5866 25.3823C51.8989 25.841 50.9534 26.5519 50.9534 26.6035C50.9534 26.6264 50.7013 26.8443 50.3861 27.0851C49.8016 27.5495 48.8504 28.4956 48.4608 29.0173C48.3347 29.1836 48.1685 29.3842 48.094 29.4645C47.7445 29.8429 47.2517 30.7717 46.9938 31.5285C46.8047 32.0847 46.6901 32.8587 46.7245 33.2715C46.7531 33.541 46.7474 33.5524 46.6328 33.5295C45.3378 33.2486 44.5069 33.1282 43.1202 33.025C42.0314 32.9447 40.2665 32.9906 39.4643 33.1167C38.1864 33.3174 37.6248 33.4722 35.751 34.143C34.8342 34.4698 33.1839 35.4732 32.5134 36.1096C32.3301 36.2816 32.1181 36.4536 32.0378 36.4994C31.7628 36.6485 30.3245 38.294 30.3245 38.4545C30.3245 38.4832 30.2213 38.6609 30.0895 38.8502C29.528 39.6758 29.0065 41.0575 28.7257 42.4622C28.6283 42.9324 28.4564 43.9013 28.3475 44.6123C27.8834 47.5535 27.9006 47.4905 27.3104 48.7862C26.8863 49.7265 26.6055 50.1966 26.2445 50.575C26.1414 50.6897 25.9294 50.9305 25.7747 51.1083C25.3793 51.5727 24.726 52.0485 23.9295 52.4499C23.3393 52.748 23.1445 52.8168 22.5027 52.943C22.0958 53.0232 21.4999 53.1092 21.1847 53.1322C20.5372 53.1723 20.4111 53.2411 20.4111 53.5278C20.4111 53.7686 20.5945 53.9979 20.8294 54.0438C21.3394 54.1584 22.686 55.0643 23.196 55.6491C23.5169 56.0046 24.6114 57.3462 25.2417 58.1375C25.9638 59.0433 26.5196 59.611 27.064 59.9779C28.2157 60.7576 28.8461 60.9698 30.0208 60.9755L30.7772 60.9812L30.6855 61.1188C30.4964 61.4113 30.3646 61.6521 29.826 62.6554C29.6999 62.9077 29.4707 63.3893 29.3274 63.739C29.1784 64.083 29.0352 64.4156 29.0065 64.4786C28.7544 65.0176 28.1126 67.116 28.0267 67.6836C27.998 67.9072 27.9063 68.4118 27.8318 68.8074C27.5682 70.1777 27.4135 71.6111 27.5109 71.8633C27.6313 72.1787 27.7802 72.1844 28.6799 71.8863C30.1239 71.4046 30.462 71.3989 32.1582 71.8232C33.1896 72.0812 33.2469 72.0869 34.3242 72.1156C36.0032 72.1615 36.7309 72.0468 37.4816 71.6111C38.3812 71.0893 38.8626 70.1605 38.8626 68.9221C38.8626 68.1595 38.6907 67.2536 38.5188 67.0644C38.4901 67.0358 38.0661 67.0186 37.5733 67.0243C35.9115 67.0415 35.1837 66.709 34.7368 65.7457C34.4617 65.1495 34.4102 64.7481 34.5534 64.2206C34.7654 63.418 34.9545 62.8159 35.0978 62.5006C35.3213 61.9961 35.8771 61.4457 36.6049 61.0099L37.2295 60.6372H37.8025C38.3067 60.643 38.4156 60.6602 38.6964 60.7978C38.874 60.8838 39.1376 61.0787 39.2809 61.2335C39.4241 61.3826 39.5789 61.5259 39.6304 61.5431C39.7508 61.589 39.8138 61.331 39.8883 60.4366C40.0201 58.9516 40.4384 57.0997 40.8395 56.2798C41.0343 55.8727 41.2063 55.6319 41.6532 55.1446C41.9626 54.8063 42.4497 54.3247 42.7305 54.0782C43.017 53.8316 43.5041 53.373 43.8193 53.0691C44.6845 52.2263 46.5755 50.6152 46.8448 50.489C46.9136 50.4546 47.2918 50.2196 47.6757 49.9616C48.0654 49.7036 48.902 49.2334 49.5381 48.9238C50.8446 48.2759 51.1884 48.0638 51.8359 47.5134C52.2026 47.2038 52.3 47.1407 52.3573 47.2038C52.3917 47.2439 52.5579 47.4389 52.7241 47.6338C53.5091 48.5626 55.2912 49.6864 56.7983 50.2024C58.6033 50.8216 61.371 51.1771 63.348 51.0395C63.8866 50.9993 64.3508 50.9649 64.3852 50.9592C64.4195 50.9535 64.4711 51.286 64.5112 51.8077C64.6144 53.0462 64.855 54.8465 64.9926 55.4026C65.3307 56.7213 65.451 57.0653 66.2303 58.9057L66.3965 59.2899L67.0555 59.2555C67.8348 59.2096 68.2244 59.2899 68.8433 59.6167C69.5195 59.9722 69.9607 60.5971 70.2071 61.5489C70.3446 62.0878 70.3504 62.3343 70.2358 62.8733C70.0925 63.5556 69.5309 64.3296 68.9751 64.6105C68.786 64.708 68.5625 64.8055 68.4708 64.8284C68.3849 64.8456 68.3047 64.8857 68.2875 64.9087C68.2416 64.9832 68.5339 66.3133 68.723 66.8867C68.9579 67.6034 69.4393 68.5322 69.7258 68.8361C70.3733 69.5069 72.0694 69.977 73.5135 69.8738C73.8 69.8566 74.5335 69.7419 75.1466 69.6273L76.2525 69.4151L77.9716 69.4094C79.685 69.4094 79.6907 69.4037 79.7079 69.2833C79.7193 69.2145 79.6105 68.6354 79.4672 67.9932C79.2323 66.9612 79.089 66.3936 78.5446 64.3525C78.2295 63.1829 77.5304 61.6521 76.9516 60.8895C76.6766 60.5168 76.2239 60.0238 76.052 59.9034C75.9374 59.8231 75.9374 59.8174 76.1207 59.6798C76.2239 59.5995 76.5276 59.3873 76.7969 59.2039C78.0003 58.3897 79.301 57.0538 80.5388 55.3911C81.2035 54.4853 82.3725 52.3524 82.4985 51.8077C82.5214 51.7103 82.6418 51.3089 82.7621 50.9019C83.0142 50.0648 83.1288 49.5889 83.1862 49.1417C83.2033 48.9697 83.2721 48.5683 83.3294 48.253C83.3867 47.9377 83.53 46.9572 83.6446 46.0743C84.017 43.1732 84.2463 41.6137 84.4296 40.725C84.6073 39.8535 84.6073 39.8478 84.4984 39.7044C84.3379 39.4923 84.0915 39.3547 83.9941 39.4235C83.0773 40.0656 82.7048 40.2376 81.788 40.4268C79.7824 40.8339 77.1579 40.6619 72.9576 39.8478C71.8803 39.6414 71.7256 39.5955 71.0953 39.2974C70.7171 39.1196 70.2415 38.919 70.0352 38.8502C69.8289 38.7813 69.5367 38.6552 69.3762 38.5807C68.4938 38.1335 65.7318 37.0785 64.8952 36.8664C64.6144 36.7976 64.5915 36.7804 64.5915 36.6313C64.5915 36.3332 64.8665 35.2438 65.0384 34.8654C65.1301 34.659 65.3135 34.3265 65.4453 34.1258C65.5713 33.9251 65.6802 33.7302 65.6802 33.7015C65.6802 33.5811 65.2275 33.2199 64.8149 33.025C64.3221 32.7784 63.8179 32.6466 63.199 32.595C62.6718 32.5491 62.7177 32.6466 62.6718 31.4827C62.5916 29.625 62.9354 28.0942 63.6803 26.9991C64.0127 26.5003 64.6659 25.732 65.1186 25.2906C65.3536 25.0612 65.6344 24.872 66.11 24.6312L66.769 24.2987L66.6429 24.1553C66.3678 23.8572 65.7432 23.4329 65.1931 23.1692C64.5341 22.8481 63.921 22.6704 63.1875 22.5958C62.5744 22.5328 60.6834 22.5328 60.0359 22.6016Z" fill="black"/>
<path d="M48.4321 68.1538C48.3519 68.1652 48.094 68.2054 47.8591 68.2398C47.2288 68.3315 46.6042 68.5437 45.8076 68.9335C45.0169 69.3234 44.5069 69.6674 43.9625 70.1834L43.59 70.5332L43.464 70.3841C43.3952 70.3038 43.1545 69.9311 42.9253 69.5527C42.7018 69.1743 42.4841 68.8647 42.444 68.8647C42.4039 68.8647 42.3408 68.9049 42.295 68.9565C42.1689 69.1113 42.5013 69.9942 43.017 70.8542L43.1316 71.0377L42.7821 71.3989C42.2721 71.9321 41.9626 72.408 41.51 73.3368C41.0859 74.2083 40.9369 74.6842 40.639 76.0774C40.4212 77.1037 40.4212 77.247 40.616 77.4018C40.702 77.4706 40.8109 77.5222 40.8567 77.5222C40.9942 77.5222 41.7048 77.1381 42.1976 76.8055L42.6388 76.5017L42.6675 76.7367C42.6847 76.8686 42.7133 77.1266 42.7305 77.3101C42.7878 77.9293 43.0227 78.1701 43.4353 78.0497C43.7046 77.9694 45.0627 77.3158 45.5498 77.0349L45.9051 76.8342L45.9394 77.161C45.9853 77.6254 46.0311 77.7516 46.203 77.8777C46.3291 77.9752 46.3864 77.9809 46.5755 77.9293C47.0568 77.8032 48.1972 77.6942 49.0854 77.6942H50.0251L50.4778 77.9236C51.091 78.2389 51.7499 78.365 53.1424 78.451C54.9245 78.56 56.9817 78.3765 57.2968 78.0841C57.4229 77.9637 57.463 77.9637 58.8268 77.9981C60.139 78.0268 60.2307 78.021 60.3396 77.9236C60.4427 77.8261 60.6949 77.2585 60.6949 77.1209C60.6949 77.0349 60.7292 77.0464 60.9928 77.2356C61.2908 77.442 62.2592 77.7745 62.4197 77.7229C62.5515 77.677 62.7807 77.2528 62.8781 76.8686C62.9526 76.5647 63.0615 76.5131 63.474 76.5762C63.7548 76.6163 64.7175 77.2069 64.8207 77.4076C64.8894 77.5394 65.1759 77.6082 65.3307 77.5222C65.5369 77.4133 65.6974 77.0177 65.726 76.5361C65.7547 76.0201 65.6229 75.5155 65.2791 74.8275C65.0728 74.4147 64.9811 74.1395 64.792 73.3941C64.6373 72.7692 64.1445 71.8232 63.7204 71.3358L63.5027 71.0893L64.0242 70.5389C64.5857 69.9483 64.9009 69.3865 65.09 68.6755C65.1989 68.2627 65.1645 68.1022 64.9811 68.1308C64.8894 68.1423 64.8207 68.2455 64.7061 68.5322C64.4482 69.1629 63.3881 70.6421 63.1933 70.6421C63.1589 70.6421 62.9297 70.4472 62.6833 70.2121C62.1045 69.6559 61.6346 69.3578 60.6949 68.9335C59.8468 68.5494 59.142 68.3372 58.2595 68.2054C57.3656 68.0735 57.4114 68.062 57.3312 68.4691C57.1135 69.6043 56.0362 70.6593 54.787 70.9574C54.2655 71.0778 53.3601 71.0664 52.8329 70.9345C51.9104 70.6937 51.2629 70.2924 50.7758 69.6387C50.432 69.1743 50.3059 68.9106 50.2028 68.4462L50.134 68.1194L49.3547 68.1251C48.9249 68.1308 48.5123 68.1423 48.4321 68.1538Z" fill="black"/>
</svg>
