<svg width="106" height="102" viewBox="0 0 106 102" fill="none" xmlns="http://www.w3.org/2000/svg">
<path d="M64.9248 8.08046C63.4534 8.23032 60.9512 8.86503 59.1803 9.535C57.2508 10.2579 54.7574 11.492 53.4711 12.3559C52.4138 13.0612 50.9601 14.1543 50.9601 14.2336C50.9601 14.2689 50.5724 14.6039 50.0878 14.9741C49.1892 15.6882 47.7266 17.1427 47.1275 17.9449C46.9337 18.2006 46.6782 18.5091 46.5636 18.6325C46.0262 19.2143 45.2685 20.6424 44.872 21.8061C44.5813 22.6612 44.4051 23.8512 44.4579 24.486C44.502 24.9003 44.4932 24.9179 44.317 24.8826C42.3258 24.4507 41.0482 24.2656 38.9161 24.1069C37.2421 23.9835 34.5285 24.054 33.295 24.2479C31.3302 24.5565 30.4668 24.7945 27.5858 25.8259C26.1761 26.3284 23.6387 27.8711 22.6078 28.8496C22.3259 29.114 21.9999 29.3785 21.8766 29.449C21.4536 29.6782 19.2422 32.2083 19.2422 32.4551C19.2422 32.4992 19.0836 32.7724 18.881 33.0634C18.0175 34.3328 17.2158 36.4573 16.7841 38.6171C16.6343 39.3399 16.37 40.8297 16.2026 41.9228C15.4889 46.4452 15.5154 46.3482 14.6079 48.3405C13.9559 49.7862 13.5242 50.5091 12.9691 51.0909C12.8105 51.2672 12.4845 51.6374 12.2466 51.9107C11.6387 52.6248 10.6343 53.3564 9.40966 53.9735C8.50218 54.4319 8.20262 54.5377 7.21584 54.7316C6.59029 54.8551 5.674 54.9873 5.18942 55.0226C4.19383 55.0843 4 55.19 4 55.6308C4 56.0011 4.28194 56.3537 4.64317 56.4242C5.4273 56.6005 7.49778 57.9933 8.28191 58.8925C8.7753 59.4391 10.4581 61.5019 11.4273 62.7184C12.5374 64.1112 13.392 64.984 14.229 65.5482C15.9999 66.7471 16.9691 67.0732 18.7752 67.082L19.9382 67.0909L19.7973 67.3024C19.5065 67.752 19.3039 68.1223 18.4757 69.665C18.2819 70.0528 17.9294 70.7933 17.7092 71.3311C17.4801 71.86 17.2598 72.3713 17.2158 72.4683C16.8281 73.2969 15.8413 76.5234 15.7092 77.3961C15.6651 77.7399 15.5242 78.5156 15.4096 79.1239C15.0043 81.2308 14.7665 83.4346 14.9162 83.8225C15.1013 84.3074 15.3303 84.3162 16.7136 83.8578C18.9338 83.1173 19.4537 83.1085 22.0616 83.7608C23.6475 84.1575 23.7356 84.1663 25.3919 84.2104C27.9734 84.2809 29.0924 84.1046 30.2465 83.4346C31.6298 82.6324 32.3699 81.2043 32.3699 79.3002C32.3699 78.1278 32.1056 76.7349 31.8413 76.444C31.7972 76.3999 31.1452 76.3735 30.3875 76.3823C27.8325 76.4088 26.7135 75.8975 26.0263 74.4165C25.6034 73.4997 25.5241 72.8826 25.7444 72.0716C26.0704 70.8374 26.3611 69.9118 26.5814 69.4269C26.925 68.6512 27.7796 67.8049 28.8985 67.1349L29.8589 66.5619H30.7399C31.5153 66.5707 31.6827 66.5972 32.1144 66.8088C32.3875 66.941 32.7928 67.2407 33.0131 67.4787C33.2333 67.7079 33.4712 67.9283 33.5505 67.9548C33.7355 68.0253 33.8324 67.6286 33.947 66.2534C34.1496 63.9702 34.7928 61.1228 35.4095 59.8622C35.7091 59.2363 35.9734 58.8661 36.6606 58.1168C37.1364 57.5967 37.8853 56.8562 38.317 56.4771C38.7575 56.098 39.5064 55.3928 39.991 54.9256C41.3214 53.6297 44.2288 51.1526 44.6429 50.9586C44.7487 50.9058 45.3302 50.5443 45.9205 50.1476C46.5196 49.7509 47.8059 49.0281 48.7839 48.552C50.7927 47.5559 51.3213 47.2297 52.3169 46.3834C52.8808 45.9074 53.0306 45.8104 53.1187 45.9074C53.1715 45.9691 53.427 46.2688 53.6825 46.5686C54.8896 47.9967 57.6297 49.7245 59.9468 50.5179C62.7221 51.4699 66.9776 52.0165 70.0172 51.8049C70.8454 51.7432 71.5591 51.6903 71.612 51.6815C71.6648 51.6727 71.7441 52.184 71.8058 52.9862C71.9644 54.8903 72.3344 57.6584 72.5459 58.5135C73.0657 60.541 73.2507 61.0699 74.4489 63.8997L74.7044 64.4903L75.7177 64.4374C76.9159 64.3669 77.515 64.4903 78.4665 64.9928C79.5062 65.5393 80.1846 66.5002 80.5634 67.9636C80.7749 68.7922 80.7837 69.1713 80.6075 69.9999C80.3872 71.049 79.5238 72.2391 78.6692 72.671C78.3784 72.8209 78.0348 72.9707 77.8939 73.006C77.7617 73.0324 77.6384 73.0942 77.6119 73.1294C77.5414 73.244 77.9908 75.2892 78.2815 76.1707C78.6428 77.2727 79.3828 78.7008 79.8234 79.168C80.8189 80.1994 83.4269 80.9222 85.6471 80.7636C86.0876 80.7371 87.2154 80.5608 88.1581 80.3845L89.8585 80.0583L92.5017 80.0495C95.136 80.0495 95.1449 80.0407 95.1713 79.8556C95.1889 79.7498 95.0215 78.8594 94.8012 77.8721C94.44 76.2853 94.2198 75.4126 93.3828 72.2743C92.8982 70.476 91.8233 68.1223 90.9334 66.9498C90.5105 66.3768 89.8145 65.6187 89.5502 65.4336C89.374 65.3101 89.374 65.3013 89.6559 65.0898C89.8145 64.9663 90.2815 64.6402 90.6955 64.3581C92.5458 63.1063 94.5457 61.0523 96.4488 58.4958C97.4708 57.103 99.2682 53.8237 99.462 52.9862C99.4973 52.8363 99.6823 52.2192 99.8673 51.5934C100.255 50.3063 100.431 49.5746 100.519 48.887C100.546 48.6226 100.651 48.0055 100.74 47.5206C100.828 47.0358 101.048 45.5283 101.224 44.1708C101.797 39.7102 102.149 37.3124 102.431 35.946C102.704 34.606 102.704 34.5972 102.537 34.3768C102.29 34.0507 101.911 33.8391 101.762 33.9449C100.352 34.9322 99.7792 35.1967 98.3695 35.4876C95.2858 36.1135 91.2506 35.849 84.7925 34.5972C83.1361 34.2799 82.8982 34.2094 81.9291 33.751C81.3476 33.4777 80.6163 33.1691 80.2991 33.0634C79.982 32.9576 79.5326 32.7636 79.2859 32.649C77.9291 31.9614 73.6824 30.3394 72.3961 30.0132C71.9644 29.9074 71.9291 29.881 71.9291 29.6518C71.9291 29.1934 72.352 27.5185 72.6164 26.9366C72.7573 26.6193 73.0393 26.108 73.2419 25.7994C73.4357 25.4909 73.6031 25.1912 73.6031 25.1471C73.6031 24.962 72.9071 24.4066 72.2727 24.1069C71.515 23.7278 70.7397 23.5251 69.7882 23.4457C68.9776 23.3752 69.0481 23.5251 68.9776 21.7355C68.8543 18.8793 69.3829 16.5256 70.5283 14.8419C71.0393 14.0749 72.0437 12.8937 72.7397 12.2149C73.1009 11.8623 73.5326 11.5714 74.2639 11.2011L75.2771 10.6898L75.0833 10.4694C74.6604 10.011 73.7 9.35869 72.8542 8.95318C71.841 8.45952 70.8983 8.18624 69.7706 8.07164C68.8278 7.97467 65.9204 7.97467 64.9248 8.08046Z" fill="#0085C1"/>
<path d="M47.0835 78.1187C46.9601 78.1363 46.5636 78.198 46.2024 78.2509C45.2332 78.392 44.2729 78.7182 43.0482 79.3176C41.8324 79.9171 41.0483 80.446 40.2113 81.2394L39.6386 81.7771L39.4447 81.5479C39.339 81.4245 38.969 80.8515 38.6165 80.2697C38.2729 79.6879 37.9381 79.2118 37.8765 79.2118C37.8148 79.2118 37.7179 79.2735 37.6474 79.3529C37.4536 79.5909 37.9646 80.9485 38.7575 82.2708L38.9337 82.5529L38.3963 83.1082C37.6121 83.9281 37.1364 84.6597 36.4403 86.0878C35.7884 87.4278 35.5593 88.1595 35.1011 90.3016C34.7663 91.8796 34.7663 92.1 35.0659 92.338C35.1981 92.4438 35.3655 92.5231 35.4359 92.5231C35.6474 92.5231 36.7399 91.9325 37.4976 91.4212L38.176 90.954L38.2201 91.3154C38.2465 91.5181 38.2906 91.9148 38.317 92.1969C38.4051 93.149 38.7663 93.5192 39.4007 93.3341C39.8148 93.2107 41.9029 92.2057 42.6518 91.7738L43.198 91.4652L43.2509 91.9677C43.3214 92.6818 43.3918 92.8757 43.6562 93.0697C43.85 93.2195 43.9381 93.2283 44.2288 93.149C44.9689 92.9551 46.7222 92.7876 48.0879 92.7876H49.5328L50.2288 93.1402C51.1715 93.625 52.1847 93.819 54.3257 93.9512C57.0658 94.1187 60.2288 93.8366 60.7133 93.387C60.9072 93.2019 60.9688 93.2019 63.0657 93.2548C65.0834 93.2989 65.2243 93.29 65.3917 93.1402C65.5503 92.9903 65.938 92.1176 65.938 91.906C65.938 91.7738 65.9908 91.7914 66.3961 92.0823C66.8543 92.3997 68.3432 92.911 68.5899 92.8316C68.7926 92.7611 69.145 92.1088 69.2948 91.5181C69.4093 91.0509 69.5767 90.9716 70.2111 91.0686C70.6428 91.1303 72.123 92.0383 72.2816 92.3468C72.3873 92.5495 72.8278 92.6553 73.0657 92.5231C73.3829 92.3556 73.6296 91.7473 73.6736 91.0068C73.7177 90.2135 73.515 89.4377 72.9864 88.3799C72.6692 87.7451 72.5282 87.322 72.2375 86.176C71.9996 85.2151 71.2419 83.7606 70.5899 83.0113L70.2551 82.6322L71.0569 81.7859C71.9203 80.8779 72.4049 80.014 72.6956 78.9209C72.863 78.2862 72.8102 78.0394 72.5282 78.0834C72.3873 78.1011 72.2816 78.2598 72.1053 78.7005C71.7089 79.6702 70.0789 81.9446 69.7794 81.9446C69.7265 81.9446 69.3741 81.6449 68.9952 81.2834C68.1054 80.4283 67.3829 79.9699 65.938 79.3176C64.634 78.727 63.5503 78.4008 62.1935 78.198C60.8191 77.9953 60.8895 77.9777 60.7662 78.6036C60.4314 80.349 58.775 81.971 56.8543 82.4294C56.0526 82.6146 54.6605 82.5969 53.8499 82.3942C52.4314 82.0239 51.4359 81.4069 50.687 80.4019C50.1583 79.6879 49.9645 79.2823 49.8059 78.5683L49.7002 78.0658L48.502 78.0746C47.8412 78.0834 47.2068 78.1011 47.0835 78.1187Z" fill="#0085C1"/>
</svg>
